%TF.GenerationSoftware,KiCad,Pcbnew,7.0.9*%
%TF.CreationDate,2024-01-10T08:51:33-08:00*%
%TF.ProjectId,rpi_adapter,7270695f-6164-4617-9074-65722e6b6963,rev?*%
%TF.SameCoordinates,PX82a7440PY660b0c0*%
%TF.FileFunction,Copper,L1,Top*%
%TF.FilePolarity,Positive*%
%FSLAX46Y46*%
G04 Gerber Fmt 4.6, Leading zero omitted, Abs format (unit mm)*
G04 Created by KiCad (PCBNEW 7.0.9) date 2024-01-10 08:51:33*
%MOMM*%
%LPD*%
G01*
G04 APERTURE LIST*
G04 Aperture macros list*
%AMRoundRect*
0 Rectangle with rounded corners*
0 $1 Rounding radius*
0 $2 $3 $4 $5 $6 $7 $8 $9 X,Y pos of 4 corners*
0 Add a 4 corners polygon primitive as box body*
4,1,4,$2,$3,$4,$5,$6,$7,$8,$9,$2,$3,0*
0 Add four circle primitives for the rounded corners*
1,1,$1+$1,$2,$3*
1,1,$1+$1,$4,$5*
1,1,$1+$1,$6,$7*
1,1,$1+$1,$8,$9*
0 Add four rect primitives between the rounded corners*
20,1,$1+$1,$2,$3,$4,$5,0*
20,1,$1+$1,$4,$5,$6,$7,0*
20,1,$1+$1,$6,$7,$8,$9,0*
20,1,$1+$1,$8,$9,$2,$3,0*%
%AMFreePoly0*
4,1,28,0.178017,0.779942,0.347107,0.720775,0.498792,0.625465,0.625465,0.498792,0.720775,0.347107,0.779942,0.178017,0.800000,0.000000,0.779942,-0.178017,0.720775,-0.347107,0.625465,-0.498792,0.498792,-0.625465,0.347107,-0.720775,0.178017,-0.779942,0.000000,-0.800000,-2.200000,-0.800000,-2.205014,-0.794986,-2.244504,-0.794986,-2.324698,-0.756366,-2.380194,-0.686777,-2.400000,-0.600000,
-2.400000,0.600000,-2.380194,0.686777,-2.324698,0.756366,-2.244504,0.794986,-2.205014,0.794986,-2.200000,0.800000,0.000000,0.800000,0.178017,0.779942,0.178017,0.779942,$1*%
%AMFreePoly1*
4,1,28,0.605014,0.794986,0.644504,0.794986,0.724698,0.756366,0.780194,0.686777,0.800000,0.600000,0.800000,-0.600000,0.780194,-0.686777,0.724698,-0.756366,0.644504,-0.794986,0.605014,-0.794986,0.600000,-0.800000,0.000000,-0.800000,-0.178017,-0.779942,-0.347107,-0.720775,-0.498792,-0.625465,-0.625465,-0.498792,-0.720775,-0.347107,-0.779942,-0.178017,-0.800000,0.000000,-0.779942,0.178017,
-0.720775,0.347107,-0.625465,0.498792,-0.498792,0.625465,-0.347107,0.720775,-0.178017,0.779942,0.000000,0.800000,0.600000,0.800000,0.605014,0.794986,0.605014,0.794986,$1*%
%AMFreePoly2*
4,1,29,0.605014,0.794986,0.644504,0.794986,0.724698,0.756366,0.780194,0.686777,0.800000,0.600000,0.800000,-0.600000,0.780194,-0.686777,0.724698,-0.756366,0.644504,-0.794986,0.605014,-0.794986,0.600000,-0.800000,0.000000,-0.800000,-1.600000,-0.800000,-1.778017,-0.779942,-1.947107,-0.720775,-2.098792,-0.625465,-2.225465,-0.498792,-2.320775,-0.347107,-2.379942,-0.178017,-2.400000,0.000000,
-2.379942,0.178017,-2.320775,0.347107,-2.225465,0.498792,-2.098792,0.625465,-1.947107,0.720775,-1.778017,0.779942,-1.600000,0.800000,0.600000,0.800000,0.605014,0.794986,0.605014,0.794986,$1*%
%AMFreePoly3*
4,1,28,0.178017,0.779942,0.347107,0.720775,0.498792,0.625465,0.625465,0.498792,0.720775,0.347107,0.779942,0.178017,0.800000,0.000000,0.779942,-0.178017,0.720775,-0.347107,0.625465,-0.498792,0.498792,-0.625465,0.347107,-0.720775,0.178017,-0.779942,0.000000,-0.800000,-0.600000,-0.800000,-0.605014,-0.794986,-0.644504,-0.794986,-0.724698,-0.756366,-0.780194,-0.686777,-0.800000,-0.600000,
-0.800000,0.600000,-0.780194,0.686777,-0.724698,0.756366,-0.644504,0.794986,-0.605014,0.794986,-0.600000,0.800000,0.000000,0.800000,0.178017,0.779942,0.178017,0.779942,$1*%
%AMFreePoly4*
4,1,29,1.778017,0.779942,1.947107,0.720775,2.098792,0.625465,2.225465,0.498792,2.320775,0.347107,2.379942,0.178017,2.400000,0.000000,2.379942,-0.178017,2.320775,-0.347107,2.225465,-0.498792,2.098792,-0.625465,1.947107,-0.720775,1.778017,-0.779942,1.600000,-0.800000,0.000000,-0.800000,-0.600000,-0.800000,-0.605014,-0.794986,-0.644504,-0.794986,-0.724698,-0.756366,-0.780194,-0.686777,
-0.800000,-0.600000,-0.800000,0.600000,-0.780194,0.686777,-0.724698,0.756366,-0.644504,0.794986,-0.605014,0.794986,-0.600000,0.800000,1.600000,0.800000,1.778017,0.779942,1.778017,0.779942,$1*%
G04 Aperture macros list end*
%TA.AperFunction,ComponentPad*%
%ADD10RoundRect,0.200000X-0.600000X-0.600000X0.600000X-0.600000X0.600000X0.600000X-0.600000X0.600000X0*%
%TD*%
%TA.AperFunction,SMDPad,CuDef*%
%ADD11FreePoly0,0.000000*%
%TD*%
%TA.AperFunction,ComponentPad*%
%ADD12C,1.600000*%
%TD*%
%TA.AperFunction,SMDPad,CuDef*%
%ADD13RoundRect,0.800000X-0.800000X0.000000X0.800000X0.000000X0.800000X0.000000X-0.800000X0.000000X0*%
%TD*%
%TA.AperFunction,ComponentPad*%
%ADD14FreePoly1,0.000000*%
%TD*%
%TA.AperFunction,SMDPad,CuDef*%
%ADD15FreePoly2,0.000000*%
%TD*%
%TA.AperFunction,ComponentPad*%
%ADD16FreePoly3,0.000000*%
%TD*%
%TA.AperFunction,SMDPad,CuDef*%
%ADD17FreePoly4,0.000000*%
%TD*%
%TA.AperFunction,SMDPad,CuDef*%
%ADD18RoundRect,0.800000X0.000000X-0.800000X0.000000X0.800000X0.000000X0.800000X0.000000X-0.800000X0*%
%TD*%
%TA.AperFunction,SMDPad,CuDef*%
%ADD19FreePoly4,270.000000*%
%TD*%
%TA.AperFunction,ComponentPad*%
%ADD20O,1.950000X1.700000*%
%TD*%
%TA.AperFunction,ComponentPad*%
%ADD21RoundRect,0.425000X0.550000X-0.425000X0.550000X0.425000X-0.550000X0.425000X-0.550000X-0.425000X0*%
%TD*%
%TA.AperFunction,ComponentPad*%
%ADD22O,1.700000X1.700000*%
%TD*%
%TA.AperFunction,ComponentPad*%
%ADD23RoundRect,0.425000X0.425000X0.425000X-0.425000X0.425000X-0.425000X-0.425000X0.425000X-0.425000X0*%
%TD*%
%TA.AperFunction,ViaPad*%
%ADD24C,0.800000*%
%TD*%
%TA.AperFunction,Conductor*%
%ADD25C,0.200000*%
%TD*%
%TA.AperFunction,Conductor*%
%ADD26C,1.000000*%
%TD*%
%TA.AperFunction,Conductor*%
%ADD27C,0.250000*%
%TD*%
G04 APERTURE END LIST*
D10*
%TO.P,U1,1,GPIO0*%
%TO.N,/GPIO0*%
X-8890000Y24130000D03*
D11*
X-8890000Y24130000D03*
D12*
%TO.P,U1,2,GPIO1*%
%TO.N,/GPIO1*%
X-8890000Y21590000D03*
D13*
X-9690000Y21590000D03*
D14*
%TO.P,U1,3,GND*%
%TO.N,GND*%
X-8890000Y19050000D03*
D15*
X-8890000Y19050000D03*
D12*
%TO.P,U1,4,GPIO2*%
%TO.N,/GPIO2*%
X-8890000Y16510000D03*
D13*
X-9690000Y16510000D03*
D12*
%TO.P,U1,5,GPIO3*%
%TO.N,/GPIO3*%
X-8890000Y13970000D03*
D13*
X-9690000Y13970000D03*
D12*
%TO.P,U1,6,GPIO4*%
%TO.N,/GPIO4*%
X-8890000Y11430000D03*
D13*
X-9690000Y11430000D03*
D12*
%TO.P,U1,7,GPIO5*%
%TO.N,/GPIO5*%
X-8890000Y8890000D03*
D13*
X-9690000Y8890000D03*
D14*
%TO.P,U1,8,GND*%
%TO.N,GND*%
X-8890000Y6350000D03*
D15*
X-8890000Y6350000D03*
D12*
%TO.P,U1,9,GPIO6*%
%TO.N,/GPIO6*%
X-8890000Y3810000D03*
D13*
X-9690000Y3810000D03*
D12*
%TO.P,U1,10,GPIO7*%
%TO.N,/GPIO7*%
X-8890000Y1270000D03*
D13*
X-9690000Y1270000D03*
D12*
%TO.P,U1,11,GPIO8*%
%TO.N,/GPIO8*%
X-8890000Y-1270000D03*
D13*
X-9690000Y-1270000D03*
D12*
%TO.P,U1,12,GPIO9*%
%TO.N,/GPIO9*%
X-8890000Y-3810000D03*
D13*
X-9690000Y-3810000D03*
D14*
%TO.P,U1,13,GND*%
%TO.N,GND*%
X-8890000Y-6350000D03*
D15*
X-8890000Y-6350000D03*
D12*
%TO.P,U1,14,GPIO10*%
%TO.N,/GPIO10*%
X-8890000Y-8890000D03*
D13*
X-9690000Y-8890000D03*
D12*
%TO.P,U1,15,GPIO11*%
%TO.N,/GPIO11*%
X-8890000Y-11430000D03*
D13*
X-9690000Y-11430000D03*
D12*
%TO.P,U1,16,GPIO12*%
%TO.N,/GPIO12*%
X-8890000Y-13970000D03*
D13*
X-9690000Y-13970000D03*
D12*
%TO.P,U1,17,GPIO13*%
%TO.N,/GPIO13*%
X-8890000Y-16510000D03*
D13*
X-9690000Y-16510000D03*
D14*
%TO.P,U1,18,GND*%
%TO.N,GND*%
X-8890000Y-19050000D03*
D15*
X-8890000Y-19050000D03*
D12*
%TO.P,U1,19,GPIO14*%
%TO.N,/GPIO14*%
X-8890000Y-21590000D03*
D13*
X-9690000Y-21590000D03*
D12*
%TO.P,U1,20,GPIO15*%
%TO.N,/GPIO15*%
X-8890000Y-24130000D03*
D13*
X-9690000Y-24130000D03*
D12*
%TO.P,U1,21,GPIO16*%
%TO.N,/GPIO16*%
X8890000Y-24130000D03*
D13*
X9690000Y-24130000D03*
D12*
%TO.P,U1,22,GPIO17*%
%TO.N,/GPIO17*%
X8890000Y-21590000D03*
D13*
X9690000Y-21590000D03*
D16*
%TO.P,U1,23,GND*%
%TO.N,GND*%
X8890000Y-19050000D03*
D17*
X8890000Y-19050000D03*
D12*
%TO.P,U1,24,GPIO18*%
%TO.N,/GPIO18*%
X8890000Y-16510000D03*
D13*
X9690000Y-16510000D03*
D12*
%TO.P,U1,25,GPIO19*%
%TO.N,/GPIO19*%
X8890000Y-13970000D03*
D13*
X9690000Y-13970000D03*
D12*
%TO.P,U1,26,GPIO20*%
%TO.N,/GPIO20*%
X8890000Y-11430000D03*
D13*
X9690000Y-11430000D03*
D12*
%TO.P,U1,27,GPIO21*%
%TO.N,/GPIO21*%
X8890000Y-8890000D03*
D13*
X9690000Y-8890000D03*
D16*
%TO.P,U1,28,GND*%
%TO.N,GND*%
X8890000Y-6350000D03*
D17*
X8890000Y-6350000D03*
D12*
%TO.P,U1,29,GPIO22*%
%TO.N,/GPIO22*%
X8890000Y-3810000D03*
D13*
X9690000Y-3810000D03*
D12*
%TO.P,U1,30,RUN*%
%TO.N,/RUN*%
X8890000Y-1270000D03*
D13*
X9690000Y-1270000D03*
D12*
%TO.P,U1,31,GPIO26_ADC0*%
%TO.N,/ADC0*%
X8890000Y1270000D03*
D13*
X9690000Y1270000D03*
D12*
%TO.P,U1,32,GPIO27_ADC1*%
%TO.N,/ADC1*%
X8890000Y3810000D03*
D13*
X9690000Y3810000D03*
D16*
%TO.P,U1,33,AGND*%
%TO.N,GNDREF*%
X8890000Y6350000D03*
D17*
X8890000Y6350000D03*
D12*
%TO.P,U1,34,GPIO28_ADC2*%
%TO.N,/ADC2*%
X8890000Y8890000D03*
D13*
X9690000Y8890000D03*
D12*
%TO.P,U1,35,ADC_VREF*%
%TO.N,/ADC_VREF*%
X8890000Y11430000D03*
D13*
X9690000Y11430000D03*
D12*
%TO.P,U1,36,3V3*%
%TO.N,+3V3*%
X8890000Y13970000D03*
D13*
X9690000Y13970000D03*
D12*
%TO.P,U1,37,3V3_EN*%
%TO.N,/3V3_EN*%
X8890000Y16510000D03*
D13*
X9690000Y16510000D03*
D16*
%TO.P,U1,38,GND*%
%TO.N,GND*%
X8890000Y19050000D03*
D17*
X8890000Y19050000D03*
D12*
%TO.P,U1,39,VSYS*%
%TO.N,VS*%
X8890000Y21590000D03*
D13*
X9690000Y21590000D03*
D12*
%TO.P,U1,40,VBUS*%
%TO.N,VBUS*%
X8890000Y24130000D03*
D13*
X9690000Y24130000D03*
D18*
%TO.P,U1,D1,SWCLK*%
%TO.N,/SWCLK*%
X-2540000Y-24700000D03*
D19*
%TO.P,U1,D2,GND*%
%TO.N,GND*%
X0Y-23900000D03*
D18*
%TO.P,U1,D3,SWDIO*%
%TO.N,/SWDIO*%
X2540000Y-24700000D03*
%TD*%
D20*
%TO.P,J2,1,Pin_1*%
%TO.N,/SWCLK*%
X-16525000Y-21500000D03*
D21*
%TO.P,J2,2,Pin_2*%
%TO.N,GND*%
X-16525000Y-19000000D03*
D20*
%TO.P,J2,3,Pin_3*%
%TO.N,/SWDIO*%
X-16525000Y-16500000D03*
%TD*%
D22*
%TO.P,J1,1,Pin_1*%
%TO.N,/GPIO0*%
X18000000Y24130000D03*
%TO.P,J1,2,Pin_2*%
%TO.N,/GPIO1*%
X18000000Y21590000D03*
D23*
%TO.P,J1,3,Pin_3*%
%TO.N,GND*%
X18000000Y19050000D03*
D22*
%TO.P,J1,4,Pin_4*%
%TO.N,/GPIO2*%
X18000000Y16510000D03*
%TO.P,J1,5,Pin_5*%
%TO.N,/GPIO3*%
X18000000Y13970000D03*
%TO.P,J1,6,Pin_6*%
%TO.N,/GPIO4*%
X18000000Y11430000D03*
%TO.P,J1,7,Pin_7*%
%TO.N,/GPIO5*%
X18000000Y8890000D03*
D23*
%TO.P,J1,8,Pin_8*%
%TO.N,GND*%
X18000000Y6350000D03*
D22*
%TO.P,J1,9,Pin_9*%
%TO.N,/GPIO6*%
X18000000Y3810000D03*
%TO.P,J1,10,Pin_10*%
%TO.N,/GPIO7*%
X18000000Y1270000D03*
%TO.P,J1,11,Pin_11*%
%TO.N,/GPIO8*%
X18000000Y-1270000D03*
%TO.P,J1,12,Pin_12*%
%TO.N,/GPIO9*%
X18000000Y-3810000D03*
D23*
%TO.P,J1,13,Pin_13*%
%TO.N,GND*%
X18000000Y-6350000D03*
D22*
%TO.P,J1,14,Pin_14*%
%TO.N,/GPIO10*%
X18000000Y-8890000D03*
%TO.P,J1,15,Pin_15*%
%TO.N,/GPIO11*%
X18000000Y-11430000D03*
%TO.P,J1,16,Pin_16*%
%TO.N,/GPIO12*%
X18000000Y-13970000D03*
%TO.P,J1,17,Pin_17*%
%TO.N,/GPIO13*%
X18000000Y-16510000D03*
D23*
%TO.P,J1,18,Pin_18*%
%TO.N,GND*%
X18000000Y-19050000D03*
D22*
%TO.P,J1,19,Pin_19*%
%TO.N,/GPIO14*%
X18000000Y-21590000D03*
%TO.P,J1,20,Pin_20*%
%TO.N,/GPIO15*%
X18000000Y-24130000D03*
%TO.P,J1,21,Pin_21*%
%TO.N,/GPIO16*%
X15460000Y-24130000D03*
%TO.P,J1,22,Pin_22*%
%TO.N,/GPIO17*%
X15460000Y-21590000D03*
D23*
%TO.P,J1,23,Pin_23*%
%TO.N,GND*%
X15460000Y-19050000D03*
D22*
%TO.P,J1,24,Pin_24*%
%TO.N,/GPIO18*%
X15460000Y-16510000D03*
%TO.P,J1,25,Pin_25*%
%TO.N,/GPIO19*%
X15460000Y-13970000D03*
%TO.P,J1,26,Pin_26*%
%TO.N,/GPIO20*%
X15460000Y-11430000D03*
%TO.P,J1,27,Pin_27*%
%TO.N,/GPIO21*%
X15460000Y-8890000D03*
D23*
%TO.P,J1,28,Pin_28*%
%TO.N,GND*%
X15460000Y-6350000D03*
D22*
%TO.P,J1,29,Pin_29*%
%TO.N,/GPIO22*%
X15460000Y-3810000D03*
%TO.P,J1,30,Pin_30*%
%TO.N,/RUN*%
X15460000Y-1270000D03*
%TO.P,J1,31,Pin_31*%
%TO.N,/ADC0*%
X15460000Y1270000D03*
%TO.P,J1,32,Pin_32*%
%TO.N,/ADC1*%
X15460000Y3810000D03*
D23*
%TO.P,J1,33,Pin_33*%
%TO.N,GNDREF*%
X15460000Y6350000D03*
D22*
%TO.P,J1,34,Pin_34*%
%TO.N,/ADC2*%
X15460000Y8890000D03*
%TO.P,J1,35,Pin_35*%
%TO.N,/ADC_VREF*%
X15460000Y11430000D03*
%TO.P,J1,36,Pin_36*%
%TO.N,+3V3*%
X15460000Y13970000D03*
%TO.P,J1,37,Pin_37*%
%TO.N,/3V3_EN*%
X15460000Y16510000D03*
D23*
%TO.P,J1,38,Pin_38*%
%TO.N,GND*%
X15460000Y19050000D03*
D22*
%TO.P,J1,39,Pin_39*%
%TO.N,VS*%
X15460000Y21590000D03*
%TO.P,J1,40,Pin_40*%
%TO.N,VBUS*%
X15460000Y24130000D03*
%TD*%
D24*
%TO.N,GND*%
X0Y-22000000D03*
X12446000Y5080000D03*
%TD*%
D25*
%TO.N,/GPIO0*%
X-4572000Y11176000D02*
X-3302000Y9906000D01*
X-4572000Y19192817D02*
X-4572000Y11176000D01*
X16764000Y22894000D02*
X18000000Y24130000D01*
X-3302000Y9906000D02*
X3302000Y9906000D01*
X-8890000Y24130000D02*
X-8890000Y23510817D01*
X4572000Y11176000D02*
X4572000Y17272000D01*
X7620000Y20320000D02*
X16256000Y20320000D01*
X3302000Y9906000D02*
X4572000Y11176000D01*
X-8890000Y23510817D02*
X-4572000Y19192817D01*
X16764000Y20828000D02*
X16764000Y22894000D01*
X4572000Y17272000D02*
X7620000Y20320000D01*
X16256000Y20320000D02*
X16764000Y20828000D01*
%TO.N,/GPIO1*%
X16764000Y18478694D02*
X16065306Y17780000D01*
X18000000Y20925306D02*
X16764000Y19689306D01*
X5080000Y15240000D02*
X5080000Y10922000D01*
X-5080000Y10922000D02*
X-5080000Y17780000D01*
X16764000Y19689306D02*
X16764000Y18478694D01*
X3556000Y9398000D02*
X-3556000Y9398000D01*
X-3556000Y9398000D02*
X-5080000Y10922000D01*
X5080000Y10922000D02*
X3556000Y9398000D01*
X16065306Y17780000D02*
X7620000Y17780000D01*
X7620000Y17780000D02*
X5080000Y15240000D01*
X18000000Y21590000D02*
X18000000Y20925306D01*
X-5080000Y17780000D02*
X-8890000Y21590000D01*
D26*
%TO.N,GND*%
X8890000Y-19050000D02*
X15460000Y-19050000D01*
X15460000Y-19050000D02*
X18000000Y-19050000D01*
X8890000Y19050000D02*
X15460000Y19050000D01*
X9020000Y-6480000D02*
X8890000Y-6350000D01*
X0Y-23900000D02*
X0Y-22000000D01*
X-16475000Y-19050000D02*
X-16525000Y-19000000D01*
D25*
X15494000Y5080000D02*
X12446000Y5080000D01*
D26*
X9020000Y18920000D02*
X8890000Y19050000D01*
D25*
X18000000Y6350000D02*
X16730000Y5080000D01*
D26*
X18000000Y-6350000D02*
X15460000Y-6350000D01*
D25*
X16730000Y5080000D02*
X15494000Y5080000D01*
D26*
X15460000Y-6350000D02*
X8890000Y-6350000D01*
X-8890000Y-19050000D02*
X-16475000Y-19050000D01*
X9020000Y-19180000D02*
X8890000Y-19050000D01*
D25*
%TO.N,/GPIO2*%
X-7112000Y16510000D02*
X-8890000Y16510000D01*
X5588000Y10668000D02*
X3810000Y8890000D01*
X5588000Y13208000D02*
X5588000Y10668000D01*
X3810000Y8890000D02*
X-3810000Y8890000D01*
X-5588000Y10668000D02*
X-5588000Y14986000D01*
X18000000Y16510000D02*
X16730000Y15240000D01*
X7620000Y15240000D02*
X5588000Y13208000D01*
X16730000Y15240000D02*
X7620000Y15240000D01*
X-5588000Y14986000D02*
X-7112000Y16510000D01*
X-3810000Y8890000D02*
X-5588000Y10668000D01*
%TO.N,/GPIO3*%
X16730000Y12700000D02*
X7874000Y12700000D01*
X6096000Y10414000D02*
X4064000Y8382000D01*
X-7620000Y13970000D02*
X-8890000Y13970000D01*
X-4064000Y8382000D02*
X-6096000Y10414000D01*
X18000000Y13970000D02*
X16730000Y12700000D01*
X7874000Y12700000D02*
X6096000Y10922000D01*
X-6096000Y12446000D02*
X-7620000Y13970000D01*
X-6096000Y10414000D02*
X-6096000Y12446000D01*
X6096000Y10922000D02*
X6096000Y10414000D01*
X4064000Y8382000D02*
X-4064000Y8382000D01*
%TO.N,/GPIO4*%
X18000000Y11430000D02*
X16730000Y10160000D01*
X-4318000Y7874000D02*
X-7874000Y11430000D01*
X16730000Y10160000D02*
X6858000Y10160000D01*
X6858000Y10160000D02*
X4572000Y7874000D01*
X4572000Y7874000D02*
X-4318000Y7874000D01*
X-7874000Y11430000D02*
X-8890000Y11430000D01*
%TO.N,/GPIO5*%
X-4572000Y7366000D02*
X-6096000Y8890000D01*
X16730000Y7620000D02*
X5080000Y7620000D01*
X18000000Y8890000D02*
X16730000Y7620000D01*
X-6096000Y8890000D02*
X-8890000Y8890000D01*
X4826000Y7366000D02*
X-4572000Y7366000D01*
X5080000Y7620000D02*
X4826000Y7366000D01*
%TO.N,/GPIO6*%
X-7620000Y2540000D02*
X-8890000Y3810000D01*
X16730000Y2540000D02*
X-7620000Y2540000D01*
X18000000Y3810000D02*
X16730000Y2540000D01*
%TO.N,/GPIO7*%
X-7620000Y0D02*
X-8890000Y1270000D01*
X16730000Y0D02*
X-7620000Y0D01*
X18000000Y1270000D02*
X16730000Y0D01*
%TO.N,/GPIO8*%
X16730000Y-2540000D02*
X-7620000Y-2540000D01*
X-7620000Y-2540000D02*
X-8890000Y-1270000D01*
X18000000Y-1270000D02*
X16730000Y-2540000D01*
%TO.N,/GPIO9*%
X16730000Y-5080000D02*
X-7620000Y-5080000D01*
X-7620000Y-5080000D02*
X-8890000Y-3810000D01*
X18000000Y-3810000D02*
X16730000Y-5080000D01*
%TO.N,/GPIO10*%
X18000000Y-8890000D02*
X16730000Y-10160000D01*
X16730000Y-10160000D02*
X-7620000Y-10160000D01*
X-7620000Y-10160000D02*
X-8890000Y-8890000D01*
%TO.N,/GPIO11*%
X-7620000Y-12700000D02*
X-8890000Y-11430000D01*
X18000000Y-11430000D02*
X16730000Y-12700000D01*
X16730000Y-12700000D02*
X-7620000Y-12700000D01*
%TO.N,/GPIO12*%
X18000000Y-13970000D02*
X16730000Y-15240000D01*
X16730000Y-15240000D02*
X-7620000Y-15240000D01*
X-7620000Y-15240000D02*
X-8890000Y-13970000D01*
%TO.N,/GPIO13*%
X16730000Y-17780000D02*
X-7620000Y-17780000D01*
X18000000Y-16510000D02*
X16730000Y-17780000D01*
X-7620000Y-17780000D02*
X-8890000Y-16510000D01*
%TO.N,/GPIO14*%
X16730000Y-20320000D02*
X-7620000Y-20320000D01*
X-7620000Y-20320000D02*
X-8890000Y-21590000D01*
X18000000Y-21590000D02*
X16730000Y-20320000D01*
%TO.N,/GPIO15*%
X-8636000Y-24130000D02*
X-8890000Y-24130000D01*
X-6604000Y-21082000D02*
X-7900000Y-22378000D01*
X8382000Y-22860000D02*
X6604000Y-21082000D01*
X16730000Y-22860000D02*
X8382000Y-22860000D01*
X6604000Y-21082000D02*
X-6604000Y-21082000D01*
X18000000Y-24130000D02*
X16730000Y-22860000D01*
X-7900000Y-23394000D02*
X-8636000Y-24130000D01*
X-7900000Y-22378000D02*
X-7900000Y-23394000D01*
%TO.N,/GPIO16*%
X8890000Y-24130000D02*
X15460000Y-24130000D01*
%TO.N,/GPIO17*%
X8890000Y-21590000D02*
X15460000Y-21590000D01*
%TO.N,/GPIO18*%
X8890000Y-16510000D02*
X15460000Y-16510000D01*
%TO.N,/GPIO19*%
X8890000Y-13970000D02*
X15460000Y-13970000D01*
%TO.N,/GPIO20*%
X8890000Y-11430000D02*
X15460000Y-11430000D01*
%TO.N,/GPIO21*%
X8890000Y-8890000D02*
X15460000Y-8890000D01*
%TO.N,/GPIO22*%
X8890000Y-3810000D02*
X15460000Y-3810000D01*
D27*
%TO.N,/RUN*%
X8890000Y-1270000D02*
X15460000Y-1270000D01*
X9020000Y-1400000D02*
X8890000Y-1270000D01*
%TO.N,/ADC0*%
X9020000Y1140000D02*
X8890000Y1270000D01*
X8890000Y1270000D02*
X15460000Y1270000D01*
%TO.N,/ADC1*%
X9020000Y3680000D02*
X8890000Y3810000D01*
X8890000Y3810000D02*
X15460000Y3810000D01*
D26*
%TO.N,GNDREF*%
X9020000Y6220000D02*
X8890000Y6350000D01*
X8890000Y6350000D02*
X15460000Y6350000D01*
D27*
%TO.N,/ADC2*%
X9020000Y8760000D02*
X8890000Y8890000D01*
X8890000Y8890000D02*
X15460000Y8890000D01*
D26*
%TO.N,/ADC_VREF*%
X8890000Y11430000D02*
X15460000Y11430000D01*
%TO.N,+3V3*%
X8890000Y13970000D02*
X15460000Y13970000D01*
%TO.N,/3V3_EN*%
X8890000Y16510000D02*
X15460000Y16510000D01*
%TO.N,VS*%
X8890000Y21590000D02*
X15460000Y21590000D01*
%TO.N,VBUS*%
X8890000Y24130000D02*
X15460000Y24130000D01*
D25*
%TO.N,/SWCLK*%
X-3302000Y-26162000D02*
X-15240000Y-26162000D01*
X-2540000Y-25400000D02*
X-3302000Y-26162000D01*
X-15240000Y-26162000D02*
X-16525000Y-24877000D01*
X-16525000Y-24877000D02*
X-16525000Y-21500000D01*
X-2540000Y-23900000D02*
X-2540000Y-25400000D01*
%TO.N,/SWDIO*%
X-17389000Y-16500000D02*
X-16525000Y-16500000D01*
X-15494000Y-26924000D02*
X-18542000Y-23876000D01*
X-18542000Y-17653000D02*
X-17389000Y-16500000D01*
X2540000Y-23900000D02*
X2540000Y-25400000D01*
X-18542000Y-23876000D02*
X-18542000Y-17653000D01*
X1016000Y-26924000D02*
X-15494000Y-26924000D01*
X2540000Y-25400000D02*
X1016000Y-26924000D01*
%TD*%
M02*
