M48
; DRILL file {KiCad 7.0.9} date Wed Jan 10 08:50:18 2024
; FORMAT={-:-/ absolute / inch / decimal}
; #@! TF.CreationDate,2024-01-10T08:50:18-08:00
; #@! TF.GenerationSoftware,Kicad,Pcbnew,7.0.9
; #@! TF.FileFunction,Plated,1,2,PTH
FMAT,2
INCH
; #@! TA.AperFunction,Plated,PTH,ViaDrill
T1C0.0157
; #@! TA.AperFunction,Plated,PTH,ComponentDrill
T2C0.0374
; #@! TA.AperFunction,Plated,PTH,ComponentDrill
T3C0.0394
%
G90
G05
T1
X0.0Y-0.8661
X0.49Y0.2
T2
X-0.6506Y-0.6496
X-0.6506Y-0.748
X-0.6506Y-0.8465
T3
X-0.35Y0.95
X-0.35Y0.85
X-0.35Y0.75
X-0.35Y0.65
X-0.35Y0.55
X-0.35Y0.45
X-0.35Y0.35
X-0.35Y0.25
X-0.35Y0.15
X-0.35Y0.05
X-0.35Y-0.05
X-0.35Y-0.15
X-0.35Y-0.25
X-0.35Y-0.35
X-0.35Y-0.45
X-0.35Y-0.55
X-0.35Y-0.65
X-0.35Y-0.75
X-0.35Y-0.85
X-0.35Y-0.95
X0.35Y0.95
X0.35Y0.85
X0.35Y0.75
X0.35Y0.65
X0.35Y0.55
X0.35Y0.45
X0.35Y0.35
X0.35Y0.25
X0.35Y0.15
X0.35Y0.05
X0.35Y-0.05
X0.35Y-0.15
X0.35Y-0.25
X0.35Y-0.35
X0.35Y-0.45
X0.35Y-0.55
X0.35Y-0.65
X0.35Y-0.75
X0.35Y-0.85
X0.35Y-0.95
X0.6087Y0.95
X0.6087Y0.85
X0.6087Y0.75
X0.6087Y0.65
X0.6087Y0.55
X0.6087Y0.45
X0.6087Y0.35
X0.6087Y0.25
X0.6087Y0.15
X0.6087Y0.05
X0.6087Y-0.05
X0.6087Y-0.15
X0.6087Y-0.25
X0.6087Y-0.35
X0.6087Y-0.45
X0.6087Y-0.55
X0.6087Y-0.65
X0.6087Y-0.75
X0.6087Y-0.85
X0.6087Y-0.95
X0.7087Y0.95
X0.7087Y0.85
X0.7087Y0.75
X0.7087Y0.65
X0.7087Y0.55
X0.7087Y0.45
X0.7087Y0.35
X0.7087Y0.25
X0.7087Y0.15
X0.7087Y0.05
X0.7087Y-0.05
X0.7087Y-0.15
X0.7087Y-0.25
X0.7087Y-0.35
X0.7087Y-0.45
X0.7087Y-0.55
X0.7087Y-0.65
X0.7087Y-0.75
X0.7087Y-0.85
X0.7087Y-0.95
T0
M30
