%TF.GenerationSoftware,KiCad,Pcbnew,7.0.9*%
%TF.CreationDate,2024-01-10T08:51:33-08:00*%
%TF.ProjectId,rpi_adapter,7270695f-6164-4617-9074-65722e6b6963,rev?*%
%TF.SameCoordinates,PX82a7440PY660b0c0*%
%TF.FileFunction,Legend,Top*%
%TF.FilePolarity,Positive*%
%FSLAX46Y46*%
G04 Gerber Fmt 4.6, Leading zero omitted, Abs format (unit mm)*
G04 Created by KiCad (PCBNEW 7.0.9) date 2024-01-10 08:51:33*
%MOMM*%
%LPD*%
G01*
G04 APERTURE LIST*
%ADD10C,0.150000*%
%ADD11C,0.400000*%
%ADD12C,0.120000*%
G04 APERTURE END LIST*
D10*
X-6010001Y-7924819D02*
X-6343334Y-7448628D01*
X-6581429Y-7924819D02*
X-6581429Y-6924819D01*
X-6581429Y-6924819D02*
X-6200477Y-6924819D01*
X-6200477Y-6924819D02*
X-6105239Y-6972438D01*
X-6105239Y-6972438D02*
X-6057620Y-7020057D01*
X-6057620Y-7020057D02*
X-6010001Y-7115295D01*
X-6010001Y-7115295D02*
X-6010001Y-7258152D01*
X-6010001Y-7258152D02*
X-6057620Y-7353390D01*
X-6057620Y-7353390D02*
X-6105239Y-7401009D01*
X-6105239Y-7401009D02*
X-6200477Y-7448628D01*
X-6200477Y-7448628D02*
X-6581429Y-7448628D01*
X-5152858Y-7924819D02*
X-5152858Y-7401009D01*
X-5152858Y-7401009D02*
X-5200477Y-7305771D01*
X-5200477Y-7305771D02*
X-5295715Y-7258152D01*
X-5295715Y-7258152D02*
X-5486191Y-7258152D01*
X-5486191Y-7258152D02*
X-5581429Y-7305771D01*
X-5152858Y-7877200D02*
X-5248096Y-7924819D01*
X-5248096Y-7924819D02*
X-5486191Y-7924819D01*
X-5486191Y-7924819D02*
X-5581429Y-7877200D01*
X-5581429Y-7877200D02*
X-5629048Y-7781961D01*
X-5629048Y-7781961D02*
X-5629048Y-7686723D01*
X-5629048Y-7686723D02*
X-5581429Y-7591485D01*
X-5581429Y-7591485D02*
X-5486191Y-7543866D01*
X-5486191Y-7543866D02*
X-5248096Y-7543866D01*
X-5248096Y-7543866D02*
X-5152858Y-7496247D01*
X-4724286Y-7877200D02*
X-4629048Y-7924819D01*
X-4629048Y-7924819D02*
X-4438572Y-7924819D01*
X-4438572Y-7924819D02*
X-4343334Y-7877200D01*
X-4343334Y-7877200D02*
X-4295715Y-7781961D01*
X-4295715Y-7781961D02*
X-4295715Y-7734342D01*
X-4295715Y-7734342D02*
X-4343334Y-7639104D01*
X-4343334Y-7639104D02*
X-4438572Y-7591485D01*
X-4438572Y-7591485D02*
X-4581429Y-7591485D01*
X-4581429Y-7591485D02*
X-4676667Y-7543866D01*
X-4676667Y-7543866D02*
X-4724286Y-7448628D01*
X-4724286Y-7448628D02*
X-4724286Y-7401009D01*
X-4724286Y-7401009D02*
X-4676667Y-7305771D01*
X-4676667Y-7305771D02*
X-4581429Y-7258152D01*
X-4581429Y-7258152D02*
X-4438572Y-7258152D01*
X-4438572Y-7258152D02*
X-4343334Y-7305771D01*
X-3867143Y-7258152D02*
X-3867143Y-8258152D01*
X-3867143Y-7305771D02*
X-3771905Y-7258152D01*
X-3771905Y-7258152D02*
X-3581429Y-7258152D01*
X-3581429Y-7258152D02*
X-3486191Y-7305771D01*
X-3486191Y-7305771D02*
X-3438572Y-7353390D01*
X-3438572Y-7353390D02*
X-3390953Y-7448628D01*
X-3390953Y-7448628D02*
X-3390953Y-7734342D01*
X-3390953Y-7734342D02*
X-3438572Y-7829580D01*
X-3438572Y-7829580D02*
X-3486191Y-7877200D01*
X-3486191Y-7877200D02*
X-3581429Y-7924819D01*
X-3581429Y-7924819D02*
X-3771905Y-7924819D01*
X-3771905Y-7924819D02*
X-3867143Y-7877200D01*
X-2962381Y-7924819D02*
X-2962381Y-6924819D01*
X-2962381Y-7305771D02*
X-2867143Y-7258152D01*
X-2867143Y-7258152D02*
X-2676667Y-7258152D01*
X-2676667Y-7258152D02*
X-2581429Y-7305771D01*
X-2581429Y-7305771D02*
X-2533810Y-7353390D01*
X-2533810Y-7353390D02*
X-2486191Y-7448628D01*
X-2486191Y-7448628D02*
X-2486191Y-7734342D01*
X-2486191Y-7734342D02*
X-2533810Y-7829580D01*
X-2533810Y-7829580D02*
X-2581429Y-7877200D01*
X-2581429Y-7877200D02*
X-2676667Y-7924819D01*
X-2676667Y-7924819D02*
X-2867143Y-7924819D01*
X-2867143Y-7924819D02*
X-2962381Y-7877200D01*
X-1676667Y-7877200D02*
X-1771905Y-7924819D01*
X-1771905Y-7924819D02*
X-1962381Y-7924819D01*
X-1962381Y-7924819D02*
X-2057619Y-7877200D01*
X-2057619Y-7877200D02*
X-2105238Y-7781961D01*
X-2105238Y-7781961D02*
X-2105238Y-7401009D01*
X-2105238Y-7401009D02*
X-2057619Y-7305771D01*
X-2057619Y-7305771D02*
X-1962381Y-7258152D01*
X-1962381Y-7258152D02*
X-1771905Y-7258152D01*
X-1771905Y-7258152D02*
X-1676667Y-7305771D01*
X-1676667Y-7305771D02*
X-1629048Y-7401009D01*
X-1629048Y-7401009D02*
X-1629048Y-7496247D01*
X-1629048Y-7496247D02*
X-2105238Y-7591485D01*
X-1200476Y-7924819D02*
X-1200476Y-7258152D01*
X-1200476Y-7448628D02*
X-1152857Y-7353390D01*
X-1152857Y-7353390D02*
X-1105238Y-7305771D01*
X-1105238Y-7305771D02*
X-1010000Y-7258152D01*
X-1010000Y-7258152D02*
X-914762Y-7258152D01*
X-581428Y-7924819D02*
X-581428Y-7258152D01*
X-581428Y-7448628D02*
X-533809Y-7353390D01*
X-533809Y-7353390D02*
X-486190Y-7305771D01*
X-486190Y-7305771D02*
X-390952Y-7258152D01*
X-390952Y-7258152D02*
X-295714Y-7258152D01*
X-57618Y-7258152D02*
X180477Y-7924819D01*
X418572Y-7258152D02*
X180477Y-7924819D01*
X180477Y-7924819D02*
X85239Y-8162914D01*
X85239Y-8162914D02*
X37620Y-8210533D01*
X37620Y-8210533D02*
X-57618Y-8258152D01*
X1561430Y-7924819D02*
X1561430Y-6924819D01*
X1561430Y-6924819D02*
X1942382Y-6924819D01*
X1942382Y-6924819D02*
X2037620Y-6972438D01*
X2037620Y-6972438D02*
X2085239Y-7020057D01*
X2085239Y-7020057D02*
X2132858Y-7115295D01*
X2132858Y-7115295D02*
X2132858Y-7258152D01*
X2132858Y-7258152D02*
X2085239Y-7353390D01*
X2085239Y-7353390D02*
X2037620Y-7401009D01*
X2037620Y-7401009D02*
X1942382Y-7448628D01*
X1942382Y-7448628D02*
X1561430Y-7448628D01*
X2561430Y-7924819D02*
X2561430Y-7258152D01*
X2561430Y-6924819D02*
X2513811Y-6972438D01*
X2513811Y-6972438D02*
X2561430Y-7020057D01*
X2561430Y-7020057D02*
X2609049Y-6972438D01*
X2609049Y-6972438D02*
X2561430Y-6924819D01*
X2561430Y-6924819D02*
X2561430Y-7020057D01*
X3799525Y-7924819D02*
X3799525Y-6924819D01*
X3799525Y-6924819D02*
X4180477Y-6924819D01*
X4180477Y-6924819D02*
X4275715Y-6972438D01*
X4275715Y-6972438D02*
X4323334Y-7020057D01*
X4323334Y-7020057D02*
X4370953Y-7115295D01*
X4370953Y-7115295D02*
X4370953Y-7258152D01*
X4370953Y-7258152D02*
X4323334Y-7353390D01*
X4323334Y-7353390D02*
X4275715Y-7401009D01*
X4275715Y-7401009D02*
X4180477Y-7448628D01*
X4180477Y-7448628D02*
X3799525Y-7448628D01*
X4799525Y-7924819D02*
X4799525Y-7258152D01*
X4799525Y-6924819D02*
X4751906Y-6972438D01*
X4751906Y-6972438D02*
X4799525Y-7020057D01*
X4799525Y-7020057D02*
X4847144Y-6972438D01*
X4847144Y-6972438D02*
X4799525Y-6924819D01*
X4799525Y-6924819D02*
X4799525Y-7020057D01*
X5704286Y-7877200D02*
X5609048Y-7924819D01*
X5609048Y-7924819D02*
X5418572Y-7924819D01*
X5418572Y-7924819D02*
X5323334Y-7877200D01*
X5323334Y-7877200D02*
X5275715Y-7829580D01*
X5275715Y-7829580D02*
X5228096Y-7734342D01*
X5228096Y-7734342D02*
X5228096Y-7448628D01*
X5228096Y-7448628D02*
X5275715Y-7353390D01*
X5275715Y-7353390D02*
X5323334Y-7305771D01*
X5323334Y-7305771D02*
X5418572Y-7258152D01*
X5418572Y-7258152D02*
X5609048Y-7258152D01*
X5609048Y-7258152D02*
X5704286Y-7305771D01*
X6275715Y-7924819D02*
X6180477Y-7877200D01*
X6180477Y-7877200D02*
X6132858Y-7829580D01*
X6132858Y-7829580D02*
X6085239Y-7734342D01*
X6085239Y-7734342D02*
X6085239Y-7448628D01*
X6085239Y-7448628D02*
X6132858Y-7353390D01*
X6132858Y-7353390D02*
X6180477Y-7305771D01*
X6180477Y-7305771D02*
X6275715Y-7258152D01*
X6275715Y-7258152D02*
X6418572Y-7258152D01*
X6418572Y-7258152D02*
X6513810Y-7305771D01*
X6513810Y-7305771D02*
X6561429Y-7353390D01*
X6561429Y-7353390D02*
X6609048Y-7448628D01*
X6609048Y-7448628D02*
X6609048Y-7734342D01*
X6609048Y-7734342D02*
X6561429Y-7829580D01*
X6561429Y-7829580D02*
X6513810Y-7877200D01*
X6513810Y-7877200D02*
X6418572Y-7924819D01*
X6418572Y-7924819D02*
X6275715Y-7924819D01*
X-12408685Y-14332295D02*
X-12808685Y-14332295D01*
X-12608685Y-14332295D02*
X-12608685Y-13532295D01*
X-12608685Y-13532295D02*
X-12675352Y-13646580D01*
X-12675352Y-13646580D02*
X-12742018Y-13722771D01*
X-12742018Y-13722771D02*
X-12808685Y-13760866D01*
X-12142018Y-13608485D02*
X-12108685Y-13570390D01*
X-12108685Y-13570390D02*
X-12042018Y-13532295D01*
X-12042018Y-13532295D02*
X-11875351Y-13532295D01*
X-11875351Y-13532295D02*
X-11808685Y-13570390D01*
X-11808685Y-13570390D02*
X-11775351Y-13608485D01*
X-11775351Y-13608485D02*
X-11742018Y-13684676D01*
X-11742018Y-13684676D02*
X-11742018Y-13760866D01*
X-11742018Y-13760866D02*
X-11775351Y-13875152D01*
X-11775351Y-13875152D02*
X-12175351Y-14332295D01*
X-12175351Y-14332295D02*
X-11742018Y-14332295D01*
X12525316Y-18650390D02*
X12458649Y-18612295D01*
X12458649Y-18612295D02*
X12358649Y-18612295D01*
X12358649Y-18612295D02*
X12258649Y-18650390D01*
X12258649Y-18650390D02*
X12191983Y-18726580D01*
X12191983Y-18726580D02*
X12158649Y-18802771D01*
X12158649Y-18802771D02*
X12125316Y-18955152D01*
X12125316Y-18955152D02*
X12125316Y-19069438D01*
X12125316Y-19069438D02*
X12158649Y-19221819D01*
X12158649Y-19221819D02*
X12191983Y-19298009D01*
X12191983Y-19298009D02*
X12258649Y-19374200D01*
X12258649Y-19374200D02*
X12358649Y-19412295D01*
X12358649Y-19412295D02*
X12425316Y-19412295D01*
X12425316Y-19412295D02*
X12525316Y-19374200D01*
X12525316Y-19374200D02*
X12558649Y-19336104D01*
X12558649Y-19336104D02*
X12558649Y-19069438D01*
X12558649Y-19069438D02*
X12425316Y-19069438D01*
X12858649Y-19412295D02*
X12858649Y-18612295D01*
X12858649Y-18612295D02*
X13258649Y-19412295D01*
X13258649Y-19412295D02*
X13258649Y-18612295D01*
X13591982Y-19412295D02*
X13591982Y-18612295D01*
X13591982Y-18612295D02*
X13758649Y-18612295D01*
X13758649Y-18612295D02*
X13858649Y-18650390D01*
X13858649Y-18650390D02*
X13925316Y-18726580D01*
X13925316Y-18726580D02*
X13958649Y-18802771D01*
X13958649Y-18802771D02*
X13991982Y-18955152D01*
X13991982Y-18955152D02*
X13991982Y-19069438D01*
X13991982Y-19069438D02*
X13958649Y-19221819D01*
X13958649Y-19221819D02*
X13925316Y-19298009D01*
X13925316Y-19298009D02*
X13858649Y-19374200D01*
X13858649Y-19374200D02*
X13758649Y-19412295D01*
X13758649Y-19412295D02*
X13591982Y-19412295D01*
X11658648Y22027705D02*
X11891982Y21227705D01*
X11891982Y21227705D02*
X12125315Y22027705D01*
X12325315Y21265800D02*
X12425315Y21227705D01*
X12425315Y21227705D02*
X12591982Y21227705D01*
X12591982Y21227705D02*
X12658648Y21265800D01*
X12658648Y21265800D02*
X12691982Y21303896D01*
X12691982Y21303896D02*
X12725315Y21380086D01*
X12725315Y21380086D02*
X12725315Y21456277D01*
X12725315Y21456277D02*
X12691982Y21532467D01*
X12691982Y21532467D02*
X12658648Y21570562D01*
X12658648Y21570562D02*
X12591982Y21608658D01*
X12591982Y21608658D02*
X12458648Y21646753D01*
X12458648Y21646753D02*
X12391982Y21684848D01*
X12391982Y21684848D02*
X12358648Y21722943D01*
X12358648Y21722943D02*
X12325315Y21799134D01*
X12325315Y21799134D02*
X12325315Y21875324D01*
X12325315Y21875324D02*
X12358648Y21951515D01*
X12358648Y21951515D02*
X12391982Y21989610D01*
X12391982Y21989610D02*
X12458648Y22027705D01*
X12458648Y22027705D02*
X12625315Y22027705D01*
X12625315Y22027705D02*
X12725315Y21989610D01*
X13158649Y21608658D02*
X13158649Y21227705D01*
X12925315Y22027705D02*
X13158649Y21608658D01*
X13158649Y21608658D02*
X13391982Y22027705D01*
X13591982Y21265800D02*
X13691982Y21227705D01*
X13691982Y21227705D02*
X13858649Y21227705D01*
X13858649Y21227705D02*
X13925315Y21265800D01*
X13925315Y21265800D02*
X13958649Y21303896D01*
X13958649Y21303896D02*
X13991982Y21380086D01*
X13991982Y21380086D02*
X13991982Y21456277D01*
X13991982Y21456277D02*
X13958649Y21532467D01*
X13958649Y21532467D02*
X13925315Y21570562D01*
X13925315Y21570562D02*
X13858649Y21608658D01*
X13858649Y21608658D02*
X13725315Y21646753D01*
X13725315Y21646753D02*
X13658649Y21684848D01*
X13658649Y21684848D02*
X13625315Y21722943D01*
X13625315Y21722943D02*
X13591982Y21799134D01*
X13591982Y21799134D02*
X13591982Y21875324D01*
X13591982Y21875324D02*
X13625315Y21951515D01*
X13625315Y21951515D02*
X13658649Y21989610D01*
X13658649Y21989610D02*
X13725315Y22027705D01*
X13725315Y22027705D02*
X13891982Y22027705D01*
X13891982Y22027705D02*
X13991982Y21989610D01*
X11491982Y24567705D02*
X11725316Y23767705D01*
X11725316Y23767705D02*
X11958649Y24567705D01*
X12425316Y24186753D02*
X12525316Y24148658D01*
X12525316Y24148658D02*
X12558649Y24110562D01*
X12558649Y24110562D02*
X12591982Y24034372D01*
X12591982Y24034372D02*
X12591982Y23920086D01*
X12591982Y23920086D02*
X12558649Y23843896D01*
X12558649Y23843896D02*
X12525316Y23805800D01*
X12525316Y23805800D02*
X12458649Y23767705D01*
X12458649Y23767705D02*
X12191982Y23767705D01*
X12191982Y23767705D02*
X12191982Y24567705D01*
X12191982Y24567705D02*
X12425316Y24567705D01*
X12425316Y24567705D02*
X12491982Y24529610D01*
X12491982Y24529610D02*
X12525316Y24491515D01*
X12525316Y24491515D02*
X12558649Y24415324D01*
X12558649Y24415324D02*
X12558649Y24339134D01*
X12558649Y24339134D02*
X12525316Y24262943D01*
X12525316Y24262943D02*
X12491982Y24224848D01*
X12491982Y24224848D02*
X12425316Y24186753D01*
X12425316Y24186753D02*
X12191982Y24186753D01*
X12891982Y24567705D02*
X12891982Y23920086D01*
X12891982Y23920086D02*
X12925316Y23843896D01*
X12925316Y23843896D02*
X12958649Y23805800D01*
X12958649Y23805800D02*
X13025316Y23767705D01*
X13025316Y23767705D02*
X13158649Y23767705D01*
X13158649Y23767705D02*
X13225316Y23805800D01*
X13225316Y23805800D02*
X13258649Y23843896D01*
X13258649Y23843896D02*
X13291982Y23920086D01*
X13291982Y23920086D02*
X13291982Y24567705D01*
X13591982Y23805800D02*
X13691982Y23767705D01*
X13691982Y23767705D02*
X13858649Y23767705D01*
X13858649Y23767705D02*
X13925315Y23805800D01*
X13925315Y23805800D02*
X13958649Y23843896D01*
X13958649Y23843896D02*
X13991982Y23920086D01*
X13991982Y23920086D02*
X13991982Y23996277D01*
X13991982Y23996277D02*
X13958649Y24072467D01*
X13958649Y24072467D02*
X13925315Y24110562D01*
X13925315Y24110562D02*
X13858649Y24148658D01*
X13858649Y24148658D02*
X13725315Y24186753D01*
X13725315Y24186753D02*
X13658649Y24224848D01*
X13658649Y24224848D02*
X13625315Y24262943D01*
X13625315Y24262943D02*
X13591982Y24339134D01*
X13591982Y24339134D02*
X13591982Y24415324D01*
X13591982Y24415324D02*
X13625315Y24491515D01*
X13625315Y24491515D02*
X13658649Y24529610D01*
X13658649Y24529610D02*
X13725315Y24567705D01*
X13725315Y24567705D02*
X13891982Y24567705D01*
X13891982Y24567705D02*
X13991982Y24529610D01*
X-13349351Y8527705D02*
X-13349351Y9327705D01*
X-12882684Y9327705D02*
X-12749351Y9327705D01*
X-12749351Y9327705D02*
X-12682684Y9289610D01*
X-12682684Y9289610D02*
X-12616018Y9213420D01*
X-12616018Y9213420D02*
X-12582684Y9061039D01*
X-12582684Y9061039D02*
X-12582684Y8794372D01*
X-12582684Y8794372D02*
X-12616018Y8641991D01*
X-12616018Y8641991D02*
X-12682684Y8565800D01*
X-12682684Y8565800D02*
X-12749351Y8527705D01*
X-12749351Y8527705D02*
X-12882684Y8527705D01*
X-12882684Y8527705D02*
X-12949351Y8565800D01*
X-12949351Y8565800D02*
X-13016018Y8641991D01*
X-13016018Y8641991D02*
X-13049351Y8794372D01*
X-13049351Y8794372D02*
X-13049351Y9061039D01*
X-13049351Y9061039D02*
X-13016018Y9213420D01*
X-13016018Y9213420D02*
X-12949351Y9289610D01*
X-12949351Y9289610D02*
X-12882684Y9327705D01*
X-11949351Y9327705D02*
X-12282685Y9327705D01*
X-12282685Y9327705D02*
X-12316018Y8946753D01*
X-12316018Y8946753D02*
X-12282685Y8984848D01*
X-12282685Y8984848D02*
X-12216018Y9022943D01*
X-12216018Y9022943D02*
X-12049351Y9022943D01*
X-12049351Y9022943D02*
X-11982685Y8984848D01*
X-11982685Y8984848D02*
X-11949351Y8946753D01*
X-11949351Y8946753D02*
X-11916018Y8870562D01*
X-11916018Y8870562D02*
X-11916018Y8680086D01*
X-11916018Y8680086D02*
X-11949351Y8603896D01*
X-11949351Y8603896D02*
X-11982685Y8565800D01*
X-11982685Y8565800D02*
X-12049351Y8527705D01*
X-12049351Y8527705D02*
X-12216018Y8527705D01*
X-12216018Y8527705D02*
X-12282685Y8565800D01*
X-12282685Y8565800D02*
X-12316018Y8603896D01*
X-13349351Y-1632295D02*
X-13349351Y-832295D01*
X-12882684Y-832295D02*
X-12749351Y-832295D01*
X-12749351Y-832295D02*
X-12682684Y-870390D01*
X-12682684Y-870390D02*
X-12616018Y-946580D01*
X-12616018Y-946580D02*
X-12582684Y-1098961D01*
X-12582684Y-1098961D02*
X-12582684Y-1365628D01*
X-12582684Y-1365628D02*
X-12616018Y-1518009D01*
X-12616018Y-1518009D02*
X-12682684Y-1594200D01*
X-12682684Y-1594200D02*
X-12749351Y-1632295D01*
X-12749351Y-1632295D02*
X-12882684Y-1632295D01*
X-12882684Y-1632295D02*
X-12949351Y-1594200D01*
X-12949351Y-1594200D02*
X-13016018Y-1518009D01*
X-13016018Y-1518009D02*
X-13049351Y-1365628D01*
X-13049351Y-1365628D02*
X-13049351Y-1098961D01*
X-13049351Y-1098961D02*
X-13016018Y-946580D01*
X-13016018Y-946580D02*
X-12949351Y-870390D01*
X-12949351Y-870390D02*
X-12882684Y-832295D01*
X-12182685Y-1175152D02*
X-12249351Y-1137057D01*
X-12249351Y-1137057D02*
X-12282685Y-1098961D01*
X-12282685Y-1098961D02*
X-12316018Y-1022771D01*
X-12316018Y-1022771D02*
X-12316018Y-984676D01*
X-12316018Y-984676D02*
X-12282685Y-908485D01*
X-12282685Y-908485D02*
X-12249351Y-870390D01*
X-12249351Y-870390D02*
X-12182685Y-832295D01*
X-12182685Y-832295D02*
X-12049351Y-832295D01*
X-12049351Y-832295D02*
X-11982685Y-870390D01*
X-11982685Y-870390D02*
X-11949351Y-908485D01*
X-11949351Y-908485D02*
X-11916018Y-984676D01*
X-11916018Y-984676D02*
X-11916018Y-1022771D01*
X-11916018Y-1022771D02*
X-11949351Y-1098961D01*
X-11949351Y-1098961D02*
X-11982685Y-1137057D01*
X-11982685Y-1137057D02*
X-12049351Y-1175152D01*
X-12049351Y-1175152D02*
X-12182685Y-1175152D01*
X-12182685Y-1175152D02*
X-12249351Y-1213247D01*
X-12249351Y-1213247D02*
X-12282685Y-1251342D01*
X-12282685Y-1251342D02*
X-12316018Y-1327533D01*
X-12316018Y-1327533D02*
X-12316018Y-1479914D01*
X-12316018Y-1479914D02*
X-12282685Y-1556104D01*
X-12282685Y-1556104D02*
X-12249351Y-1594200D01*
X-12249351Y-1594200D02*
X-12182685Y-1632295D01*
X-12182685Y-1632295D02*
X-12049351Y-1632295D01*
X-12049351Y-1632295D02*
X-11982685Y-1594200D01*
X-11982685Y-1594200D02*
X-11949351Y-1556104D01*
X-11949351Y-1556104D02*
X-11916018Y-1479914D01*
X-11916018Y-1479914D02*
X-11916018Y-1327533D01*
X-11916018Y-1327533D02*
X-11949351Y-1251342D01*
X-11949351Y-1251342D02*
X-11982685Y-1213247D01*
X-11982685Y-1213247D02*
X-12049351Y-1175152D01*
X-13382684Y19449610D02*
X-13449351Y19487705D01*
X-13449351Y19487705D02*
X-13549351Y19487705D01*
X-13549351Y19487705D02*
X-13649351Y19449610D01*
X-13649351Y19449610D02*
X-13716017Y19373420D01*
X-13716017Y19373420D02*
X-13749351Y19297229D01*
X-13749351Y19297229D02*
X-13782684Y19144848D01*
X-13782684Y19144848D02*
X-13782684Y19030562D01*
X-13782684Y19030562D02*
X-13749351Y18878181D01*
X-13749351Y18878181D02*
X-13716017Y18801991D01*
X-13716017Y18801991D02*
X-13649351Y18725800D01*
X-13649351Y18725800D02*
X-13549351Y18687705D01*
X-13549351Y18687705D02*
X-13482684Y18687705D01*
X-13482684Y18687705D02*
X-13382684Y18725800D01*
X-13382684Y18725800D02*
X-13349351Y18763896D01*
X-13349351Y18763896D02*
X-13349351Y19030562D01*
X-13349351Y19030562D02*
X-13482684Y19030562D01*
X-13049351Y18687705D02*
X-13049351Y19487705D01*
X-13049351Y19487705D02*
X-12649351Y18687705D01*
X-12649351Y18687705D02*
X-12649351Y19487705D01*
X-12316018Y18687705D02*
X-12316018Y19487705D01*
X-12316018Y19487705D02*
X-12149351Y19487705D01*
X-12149351Y19487705D02*
X-12049351Y19449610D01*
X-12049351Y19449610D02*
X-11982684Y19373420D01*
X-11982684Y19373420D02*
X-11949351Y19297229D01*
X-11949351Y19297229D02*
X-11916018Y19144848D01*
X-11916018Y19144848D02*
X-11916018Y19030562D01*
X-11916018Y19030562D02*
X-11949351Y18878181D01*
X-11949351Y18878181D02*
X-11982684Y18801991D01*
X-11982684Y18801991D02*
X-12049351Y18725800D01*
X-12049351Y18725800D02*
X-12149351Y18687705D01*
X-12149351Y18687705D02*
X-12316018Y18687705D01*
X11891982Y-14332295D02*
X11891982Y-13532295D01*
X12358649Y-13532295D02*
X12491982Y-13532295D01*
X12491982Y-13532295D02*
X12558649Y-13570390D01*
X12558649Y-13570390D02*
X12625315Y-13646580D01*
X12625315Y-13646580D02*
X12658649Y-13798961D01*
X12658649Y-13798961D02*
X12658649Y-14065628D01*
X12658649Y-14065628D02*
X12625315Y-14218009D01*
X12625315Y-14218009D02*
X12558649Y-14294200D01*
X12558649Y-14294200D02*
X12491982Y-14332295D01*
X12491982Y-14332295D02*
X12358649Y-14332295D01*
X12358649Y-14332295D02*
X12291982Y-14294200D01*
X12291982Y-14294200D02*
X12225315Y-14218009D01*
X12225315Y-14218009D02*
X12191982Y-14065628D01*
X12191982Y-14065628D02*
X12191982Y-13798961D01*
X12191982Y-13798961D02*
X12225315Y-13646580D01*
X12225315Y-13646580D02*
X12291982Y-13570390D01*
X12291982Y-13570390D02*
X12358649Y-13532295D01*
X13325315Y-14332295D02*
X12925315Y-14332295D01*
X13125315Y-14332295D02*
X13125315Y-13532295D01*
X13125315Y-13532295D02*
X13058648Y-13646580D01*
X13058648Y-13646580D02*
X12991982Y-13722771D01*
X12991982Y-13722771D02*
X12925315Y-13760866D01*
X13658649Y-14332295D02*
X13791982Y-14332295D01*
X13791982Y-14332295D02*
X13858649Y-14294200D01*
X13858649Y-14294200D02*
X13891982Y-14256104D01*
X13891982Y-14256104D02*
X13958649Y-14141819D01*
X13958649Y-14141819D02*
X13991982Y-13989438D01*
X13991982Y-13989438D02*
X13991982Y-13684676D01*
X13991982Y-13684676D02*
X13958649Y-13608485D01*
X13958649Y-13608485D02*
X13925315Y-13570390D01*
X13925315Y-13570390D02*
X13858649Y-13532295D01*
X13858649Y-13532295D02*
X13725315Y-13532295D01*
X13725315Y-13532295D02*
X13658649Y-13570390D01*
X13658649Y-13570390D02*
X13625315Y-13608485D01*
X13625315Y-13608485D02*
X13591982Y-13684676D01*
X13591982Y-13684676D02*
X13591982Y-13875152D01*
X13591982Y-13875152D02*
X13625315Y-13951342D01*
X13625315Y-13951342D02*
X13658649Y-13989438D01*
X13658649Y-13989438D02*
X13725315Y-14027533D01*
X13725315Y-14027533D02*
X13858649Y-14027533D01*
X13858649Y-14027533D02*
X13925315Y-13989438D01*
X13925315Y-13989438D02*
X13958649Y-13951342D01*
X13958649Y-13951342D02*
X13991982Y-13875152D01*
X-14016018Y-9252295D02*
X-14016018Y-8452295D01*
X-13549351Y-8452295D02*
X-13416018Y-8452295D01*
X-13416018Y-8452295D02*
X-13349351Y-8490390D01*
X-13349351Y-8490390D02*
X-13282685Y-8566580D01*
X-13282685Y-8566580D02*
X-13249351Y-8718961D01*
X-13249351Y-8718961D02*
X-13249351Y-8985628D01*
X-13249351Y-8985628D02*
X-13282685Y-9138009D01*
X-13282685Y-9138009D02*
X-13349351Y-9214200D01*
X-13349351Y-9214200D02*
X-13416018Y-9252295D01*
X-13416018Y-9252295D02*
X-13549351Y-9252295D01*
X-13549351Y-9252295D02*
X-13616018Y-9214200D01*
X-13616018Y-9214200D02*
X-13682685Y-9138009D01*
X-13682685Y-9138009D02*
X-13716018Y-8985628D01*
X-13716018Y-8985628D02*
X-13716018Y-8718961D01*
X-13716018Y-8718961D02*
X-13682685Y-8566580D01*
X-13682685Y-8566580D02*
X-13616018Y-8490390D01*
X-13616018Y-8490390D02*
X-13549351Y-8452295D01*
X-12582685Y-9252295D02*
X-12982685Y-9252295D01*
X-12782685Y-9252295D02*
X-12782685Y-8452295D01*
X-12782685Y-8452295D02*
X-12849352Y-8566580D01*
X-12849352Y-8566580D02*
X-12916018Y-8642771D01*
X-12916018Y-8642771D02*
X-12982685Y-8680866D01*
X-12149351Y-8452295D02*
X-12082685Y-8452295D01*
X-12082685Y-8452295D02*
X-12016018Y-8490390D01*
X-12016018Y-8490390D02*
X-11982685Y-8528485D01*
X-11982685Y-8528485D02*
X-11949351Y-8604676D01*
X-11949351Y-8604676D02*
X-11916018Y-8757057D01*
X-11916018Y-8757057D02*
X-11916018Y-8947533D01*
X-11916018Y-8947533D02*
X-11949351Y-9099914D01*
X-11949351Y-9099914D02*
X-11982685Y-9176104D01*
X-11982685Y-9176104D02*
X-12016018Y-9214200D01*
X-12016018Y-9214200D02*
X-12082685Y-9252295D01*
X-12082685Y-9252295D02*
X-12149351Y-9252295D01*
X-12149351Y-9252295D02*
X-12216018Y-9214200D01*
X-12216018Y-9214200D02*
X-12249351Y-9176104D01*
X-12249351Y-9176104D02*
X-12282685Y-9099914D01*
X-12282685Y-9099914D02*
X-12316018Y-8947533D01*
X-12316018Y-8947533D02*
X-12316018Y-8757057D01*
X-12316018Y-8757057D02*
X-12282685Y-8604676D01*
X-12282685Y-8604676D02*
X-12249351Y-8528485D01*
X-12249351Y-8528485D02*
X-12216018Y-8490390D01*
X-12216018Y-8490390D02*
X-12149351Y-8452295D01*
X11591983Y16947705D02*
X12025316Y16947705D01*
X12025316Y16947705D02*
X11791983Y16642943D01*
X11791983Y16642943D02*
X11891983Y16642943D01*
X11891983Y16642943D02*
X11958649Y16604848D01*
X11958649Y16604848D02*
X11991983Y16566753D01*
X11991983Y16566753D02*
X12025316Y16490562D01*
X12025316Y16490562D02*
X12025316Y16300086D01*
X12025316Y16300086D02*
X11991983Y16223896D01*
X11991983Y16223896D02*
X11958649Y16185800D01*
X11958649Y16185800D02*
X11891983Y16147705D01*
X11891983Y16147705D02*
X11691983Y16147705D01*
X11691983Y16147705D02*
X11625316Y16185800D01*
X11625316Y16185800D02*
X11591983Y16223896D01*
X12225316Y16947705D02*
X12458650Y16147705D01*
X12458650Y16147705D02*
X12691983Y16947705D01*
X12925316Y16566753D02*
X13158650Y16566753D01*
X13258650Y16147705D02*
X12925316Y16147705D01*
X12925316Y16147705D02*
X12925316Y16947705D01*
X12925316Y16947705D02*
X13258650Y16947705D01*
X13558649Y16147705D02*
X13558649Y16947705D01*
X13558649Y16947705D02*
X13958649Y16147705D01*
X13958649Y16147705D02*
X13958649Y16947705D01*
X-13349351Y907705D02*
X-13349351Y1707705D01*
X-12882684Y1707705D02*
X-12749351Y1707705D01*
X-12749351Y1707705D02*
X-12682684Y1669610D01*
X-12682684Y1669610D02*
X-12616018Y1593420D01*
X-12616018Y1593420D02*
X-12582684Y1441039D01*
X-12582684Y1441039D02*
X-12582684Y1174372D01*
X-12582684Y1174372D02*
X-12616018Y1021991D01*
X-12616018Y1021991D02*
X-12682684Y945800D01*
X-12682684Y945800D02*
X-12749351Y907705D01*
X-12749351Y907705D02*
X-12882684Y907705D01*
X-12882684Y907705D02*
X-12949351Y945800D01*
X-12949351Y945800D02*
X-13016018Y1021991D01*
X-13016018Y1021991D02*
X-13049351Y1174372D01*
X-13049351Y1174372D02*
X-13049351Y1441039D01*
X-13049351Y1441039D02*
X-13016018Y1593420D01*
X-13016018Y1593420D02*
X-12949351Y1669610D01*
X-12949351Y1669610D02*
X-12882684Y1707705D01*
X-12349351Y1707705D02*
X-11882685Y1707705D01*
X-11882685Y1707705D02*
X-12182685Y907705D01*
X-13349351Y23767705D02*
X-13349351Y24567705D01*
X-12882684Y24567705D02*
X-12749351Y24567705D01*
X-12749351Y24567705D02*
X-12682684Y24529610D01*
X-12682684Y24529610D02*
X-12616018Y24453420D01*
X-12616018Y24453420D02*
X-12582684Y24301039D01*
X-12582684Y24301039D02*
X-12582684Y24034372D01*
X-12582684Y24034372D02*
X-12616018Y23881991D01*
X-12616018Y23881991D02*
X-12682684Y23805800D01*
X-12682684Y23805800D02*
X-12749351Y23767705D01*
X-12749351Y23767705D02*
X-12882684Y23767705D01*
X-12882684Y23767705D02*
X-12949351Y23805800D01*
X-12949351Y23805800D02*
X-13016018Y23881991D01*
X-13016018Y23881991D02*
X-13049351Y24034372D01*
X-13049351Y24034372D02*
X-13049351Y24301039D01*
X-13049351Y24301039D02*
X-13016018Y24453420D01*
X-13016018Y24453420D02*
X-12949351Y24529610D01*
X-12949351Y24529610D02*
X-12882684Y24567705D01*
X-12149351Y24567705D02*
X-12082685Y24567705D01*
X-12082685Y24567705D02*
X-12016018Y24529610D01*
X-12016018Y24529610D02*
X-11982685Y24491515D01*
X-11982685Y24491515D02*
X-11949351Y24415324D01*
X-11949351Y24415324D02*
X-11916018Y24262943D01*
X-11916018Y24262943D02*
X-11916018Y24072467D01*
X-11916018Y24072467D02*
X-11949351Y23920086D01*
X-11949351Y23920086D02*
X-11982685Y23843896D01*
X-11982685Y23843896D02*
X-12016018Y23805800D01*
X-12016018Y23805800D02*
X-12082685Y23767705D01*
X-12082685Y23767705D02*
X-12149351Y23767705D01*
X-12149351Y23767705D02*
X-12216018Y23805800D01*
X-12216018Y23805800D02*
X-12249351Y23843896D01*
X-12249351Y23843896D02*
X-12282685Y23920086D01*
X-12282685Y23920086D02*
X-12316018Y24072467D01*
X-12316018Y24072467D02*
X-12316018Y24262943D01*
X-12316018Y24262943D02*
X-12282685Y24415324D01*
X-12282685Y24415324D02*
X-12249351Y24491515D01*
X-12249351Y24491515D02*
X-12216018Y24529610D01*
X-12216018Y24529610D02*
X-12149351Y24567705D01*
X-13349351Y3447705D02*
X-13349351Y4247705D01*
X-12882684Y4247705D02*
X-12749351Y4247705D01*
X-12749351Y4247705D02*
X-12682684Y4209610D01*
X-12682684Y4209610D02*
X-12616018Y4133420D01*
X-12616018Y4133420D02*
X-12582684Y3981039D01*
X-12582684Y3981039D02*
X-12582684Y3714372D01*
X-12582684Y3714372D02*
X-12616018Y3561991D01*
X-12616018Y3561991D02*
X-12682684Y3485800D01*
X-12682684Y3485800D02*
X-12749351Y3447705D01*
X-12749351Y3447705D02*
X-12882684Y3447705D01*
X-12882684Y3447705D02*
X-12949351Y3485800D01*
X-12949351Y3485800D02*
X-13016018Y3561991D01*
X-13016018Y3561991D02*
X-13049351Y3714372D01*
X-13049351Y3714372D02*
X-13049351Y3981039D01*
X-13049351Y3981039D02*
X-13016018Y4133420D01*
X-13016018Y4133420D02*
X-12949351Y4209610D01*
X-12949351Y4209610D02*
X-12882684Y4247705D01*
X-11982685Y4247705D02*
X-12116018Y4247705D01*
X-12116018Y4247705D02*
X-12182685Y4209610D01*
X-12182685Y4209610D02*
X-12216018Y4171515D01*
X-12216018Y4171515D02*
X-12282685Y4057229D01*
X-12282685Y4057229D02*
X-12316018Y3904848D01*
X-12316018Y3904848D02*
X-12316018Y3600086D01*
X-12316018Y3600086D02*
X-12282685Y3523896D01*
X-12282685Y3523896D02*
X-12249351Y3485800D01*
X-12249351Y3485800D02*
X-12182685Y3447705D01*
X-12182685Y3447705D02*
X-12049351Y3447705D01*
X-12049351Y3447705D02*
X-11982685Y3485800D01*
X-11982685Y3485800D02*
X-11949351Y3523896D01*
X-11949351Y3523896D02*
X-11916018Y3600086D01*
X-11916018Y3600086D02*
X-11916018Y3790562D01*
X-11916018Y3790562D02*
X-11949351Y3866753D01*
X-11949351Y3866753D02*
X-11982685Y3904848D01*
X-11982685Y3904848D02*
X-12049351Y3942943D01*
X-12049351Y3942943D02*
X-12182685Y3942943D01*
X-12182685Y3942943D02*
X-12249351Y3904848D01*
X-12249351Y3904848D02*
X-12282685Y3866753D01*
X-12282685Y3866753D02*
X-12316018Y3790562D01*
X-13382684Y6749610D02*
X-13449351Y6787705D01*
X-13449351Y6787705D02*
X-13549351Y6787705D01*
X-13549351Y6787705D02*
X-13649351Y6749610D01*
X-13649351Y6749610D02*
X-13716017Y6673420D01*
X-13716017Y6673420D02*
X-13749351Y6597229D01*
X-13749351Y6597229D02*
X-13782684Y6444848D01*
X-13782684Y6444848D02*
X-13782684Y6330562D01*
X-13782684Y6330562D02*
X-13749351Y6178181D01*
X-13749351Y6178181D02*
X-13716017Y6101991D01*
X-13716017Y6101991D02*
X-13649351Y6025800D01*
X-13649351Y6025800D02*
X-13549351Y5987705D01*
X-13549351Y5987705D02*
X-13482684Y5987705D01*
X-13482684Y5987705D02*
X-13382684Y6025800D01*
X-13382684Y6025800D02*
X-13349351Y6063896D01*
X-13349351Y6063896D02*
X-13349351Y6330562D01*
X-13349351Y6330562D02*
X-13482684Y6330562D01*
X-13049351Y5987705D02*
X-13049351Y6787705D01*
X-13049351Y6787705D02*
X-12649351Y5987705D01*
X-12649351Y5987705D02*
X-12649351Y6787705D01*
X-12316018Y5987705D02*
X-12316018Y6787705D01*
X-12316018Y6787705D02*
X-12149351Y6787705D01*
X-12149351Y6787705D02*
X-12049351Y6749610D01*
X-12049351Y6749610D02*
X-11982684Y6673420D01*
X-11982684Y6673420D02*
X-11949351Y6597229D01*
X-11949351Y6597229D02*
X-11916018Y6444848D01*
X-11916018Y6444848D02*
X-11916018Y6330562D01*
X-11916018Y6330562D02*
X-11949351Y6178181D01*
X-11949351Y6178181D02*
X-11982684Y6101991D01*
X-11982684Y6101991D02*
X-12049351Y6025800D01*
X-12049351Y6025800D02*
X-12149351Y5987705D01*
X-12149351Y5987705D02*
X-12316018Y5987705D01*
X12525316Y-5950390D02*
X12458649Y-5912295D01*
X12458649Y-5912295D02*
X12358649Y-5912295D01*
X12358649Y-5912295D02*
X12258649Y-5950390D01*
X12258649Y-5950390D02*
X12191983Y-6026580D01*
X12191983Y-6026580D02*
X12158649Y-6102771D01*
X12158649Y-6102771D02*
X12125316Y-6255152D01*
X12125316Y-6255152D02*
X12125316Y-6369438D01*
X12125316Y-6369438D02*
X12158649Y-6521819D01*
X12158649Y-6521819D02*
X12191983Y-6598009D01*
X12191983Y-6598009D02*
X12258649Y-6674200D01*
X12258649Y-6674200D02*
X12358649Y-6712295D01*
X12358649Y-6712295D02*
X12425316Y-6712295D01*
X12425316Y-6712295D02*
X12525316Y-6674200D01*
X12525316Y-6674200D02*
X12558649Y-6636104D01*
X12558649Y-6636104D02*
X12558649Y-6369438D01*
X12558649Y-6369438D02*
X12425316Y-6369438D01*
X12858649Y-6712295D02*
X12858649Y-5912295D01*
X12858649Y-5912295D02*
X13258649Y-6712295D01*
X13258649Y-6712295D02*
X13258649Y-5912295D01*
X13591982Y-6712295D02*
X13591982Y-5912295D01*
X13591982Y-5912295D02*
X13758649Y-5912295D01*
X13758649Y-5912295D02*
X13858649Y-5950390D01*
X13858649Y-5950390D02*
X13925316Y-6026580D01*
X13925316Y-6026580D02*
X13958649Y-6102771D01*
X13958649Y-6102771D02*
X13991982Y-6255152D01*
X13991982Y-6255152D02*
X13991982Y-6369438D01*
X13991982Y-6369438D02*
X13958649Y-6521819D01*
X13958649Y-6521819D02*
X13925316Y-6598009D01*
X13925316Y-6598009D02*
X13858649Y-6674200D01*
X13858649Y-6674200D02*
X13758649Y-6712295D01*
X13758649Y-6712295D02*
X13591982Y-6712295D01*
X12525316Y-1632295D02*
X12291983Y-1251342D01*
X12125316Y-1632295D02*
X12125316Y-832295D01*
X12125316Y-832295D02*
X12391983Y-832295D01*
X12391983Y-832295D02*
X12458650Y-870390D01*
X12458650Y-870390D02*
X12491983Y-908485D01*
X12491983Y-908485D02*
X12525316Y-984676D01*
X12525316Y-984676D02*
X12525316Y-1098961D01*
X12525316Y-1098961D02*
X12491983Y-1175152D01*
X12491983Y-1175152D02*
X12458650Y-1213247D01*
X12458650Y-1213247D02*
X12391983Y-1251342D01*
X12391983Y-1251342D02*
X12125316Y-1251342D01*
X12825316Y-832295D02*
X12825316Y-1479914D01*
X12825316Y-1479914D02*
X12858650Y-1556104D01*
X12858650Y-1556104D02*
X12891983Y-1594200D01*
X12891983Y-1594200D02*
X12958650Y-1632295D01*
X12958650Y-1632295D02*
X13091983Y-1632295D01*
X13091983Y-1632295D02*
X13158650Y-1594200D01*
X13158650Y-1594200D02*
X13191983Y-1556104D01*
X13191983Y-1556104D02*
X13225316Y-1479914D01*
X13225316Y-1479914D02*
X13225316Y-832295D01*
X13558649Y-1632295D02*
X13558649Y-832295D01*
X13558649Y-832295D02*
X13958649Y-1632295D01*
X13958649Y-1632295D02*
X13958649Y-832295D01*
X11591982Y3676277D02*
X11925315Y3676277D01*
X11525315Y3447705D02*
X11758649Y4247705D01*
X11758649Y4247705D02*
X11991982Y3447705D01*
X12225315Y3447705D02*
X12225315Y4247705D01*
X12225315Y4247705D02*
X12391982Y4247705D01*
X12391982Y4247705D02*
X12491982Y4209610D01*
X12491982Y4209610D02*
X12558649Y4133420D01*
X12558649Y4133420D02*
X12591982Y4057229D01*
X12591982Y4057229D02*
X12625315Y3904848D01*
X12625315Y3904848D02*
X12625315Y3790562D01*
X12625315Y3790562D02*
X12591982Y3638181D01*
X12591982Y3638181D02*
X12558649Y3561991D01*
X12558649Y3561991D02*
X12491982Y3485800D01*
X12491982Y3485800D02*
X12391982Y3447705D01*
X12391982Y3447705D02*
X12225315Y3447705D01*
X13325315Y3523896D02*
X13291982Y3485800D01*
X13291982Y3485800D02*
X13191982Y3447705D01*
X13191982Y3447705D02*
X13125315Y3447705D01*
X13125315Y3447705D02*
X13025315Y3485800D01*
X13025315Y3485800D02*
X12958649Y3561991D01*
X12958649Y3561991D02*
X12925315Y3638181D01*
X12925315Y3638181D02*
X12891982Y3790562D01*
X12891982Y3790562D02*
X12891982Y3904848D01*
X12891982Y3904848D02*
X12925315Y4057229D01*
X12925315Y4057229D02*
X12958649Y4133420D01*
X12958649Y4133420D02*
X13025315Y4209610D01*
X13025315Y4209610D02*
X13125315Y4247705D01*
X13125315Y4247705D02*
X13191982Y4247705D01*
X13191982Y4247705D02*
X13291982Y4209610D01*
X13291982Y4209610D02*
X13325315Y4171515D01*
X13991982Y3447705D02*
X13591982Y3447705D01*
X13791982Y3447705D02*
X13791982Y4247705D01*
X13791982Y4247705D02*
X13725315Y4133420D01*
X13725315Y4133420D02*
X13658649Y4057229D01*
X13658649Y4057229D02*
X13591982Y4019134D01*
X-12408685Y-16872295D02*
X-12808685Y-16872295D01*
X-12608685Y-16872295D02*
X-12608685Y-16072295D01*
X-12608685Y-16072295D02*
X-12675352Y-16186580D01*
X-12675352Y-16186580D02*
X-12742018Y-16262771D01*
X-12742018Y-16262771D02*
X-12808685Y-16300866D01*
X-12175351Y-16072295D02*
X-11742018Y-16072295D01*
X-11742018Y-16072295D02*
X-11975351Y-16377057D01*
X-11975351Y-16377057D02*
X-11875351Y-16377057D01*
X-11875351Y-16377057D02*
X-11808685Y-16415152D01*
X-11808685Y-16415152D02*
X-11775351Y-16453247D01*
X-11775351Y-16453247D02*
X-11742018Y-16529438D01*
X-11742018Y-16529438D02*
X-11742018Y-16719914D01*
X-11742018Y-16719914D02*
X-11775351Y-16796104D01*
X-11775351Y-16796104D02*
X-11808685Y-16834200D01*
X-11808685Y-16834200D02*
X-11875351Y-16872295D01*
X-11875351Y-16872295D02*
X-12075351Y-16872295D01*
X-12075351Y-16872295D02*
X-12142018Y-16834200D01*
X-12142018Y-16834200D02*
X-12175351Y-16796104D01*
X-13382684Y-5950390D02*
X-13449351Y-5912295D01*
X-13449351Y-5912295D02*
X-13549351Y-5912295D01*
X-13549351Y-5912295D02*
X-13649351Y-5950390D01*
X-13649351Y-5950390D02*
X-13716017Y-6026580D01*
X-13716017Y-6026580D02*
X-13749351Y-6102771D01*
X-13749351Y-6102771D02*
X-13782684Y-6255152D01*
X-13782684Y-6255152D02*
X-13782684Y-6369438D01*
X-13782684Y-6369438D02*
X-13749351Y-6521819D01*
X-13749351Y-6521819D02*
X-13716017Y-6598009D01*
X-13716017Y-6598009D02*
X-13649351Y-6674200D01*
X-13649351Y-6674200D02*
X-13549351Y-6712295D01*
X-13549351Y-6712295D02*
X-13482684Y-6712295D01*
X-13482684Y-6712295D02*
X-13382684Y-6674200D01*
X-13382684Y-6674200D02*
X-13349351Y-6636104D01*
X-13349351Y-6636104D02*
X-13349351Y-6369438D01*
X-13349351Y-6369438D02*
X-13482684Y-6369438D01*
X-13049351Y-6712295D02*
X-13049351Y-5912295D01*
X-13049351Y-5912295D02*
X-12649351Y-6712295D01*
X-12649351Y-6712295D02*
X-12649351Y-5912295D01*
X-12316018Y-6712295D02*
X-12316018Y-5912295D01*
X-12316018Y-5912295D02*
X-12149351Y-5912295D01*
X-12149351Y-5912295D02*
X-12049351Y-5950390D01*
X-12049351Y-5950390D02*
X-11982684Y-6026580D01*
X-11982684Y-6026580D02*
X-11949351Y-6102771D01*
X-11949351Y-6102771D02*
X-11916018Y-6255152D01*
X-11916018Y-6255152D02*
X-11916018Y-6369438D01*
X-11916018Y-6369438D02*
X-11949351Y-6521819D01*
X-11949351Y-6521819D02*
X-11982684Y-6598009D01*
X-11982684Y-6598009D02*
X-12049351Y-6674200D01*
X-12049351Y-6674200D02*
X-12149351Y-6712295D01*
X-12149351Y-6712295D02*
X-12316018Y-6712295D01*
X11591982Y1136277D02*
X11925315Y1136277D01*
X11525315Y907705D02*
X11758649Y1707705D01*
X11758649Y1707705D02*
X11991982Y907705D01*
X12225315Y907705D02*
X12225315Y1707705D01*
X12225315Y1707705D02*
X12391982Y1707705D01*
X12391982Y1707705D02*
X12491982Y1669610D01*
X12491982Y1669610D02*
X12558649Y1593420D01*
X12558649Y1593420D02*
X12591982Y1517229D01*
X12591982Y1517229D02*
X12625315Y1364848D01*
X12625315Y1364848D02*
X12625315Y1250562D01*
X12625315Y1250562D02*
X12591982Y1098181D01*
X12591982Y1098181D02*
X12558649Y1021991D01*
X12558649Y1021991D02*
X12491982Y945800D01*
X12491982Y945800D02*
X12391982Y907705D01*
X12391982Y907705D02*
X12225315Y907705D01*
X13325315Y983896D02*
X13291982Y945800D01*
X13291982Y945800D02*
X13191982Y907705D01*
X13191982Y907705D02*
X13125315Y907705D01*
X13125315Y907705D02*
X13025315Y945800D01*
X13025315Y945800D02*
X12958649Y1021991D01*
X12958649Y1021991D02*
X12925315Y1098181D01*
X12925315Y1098181D02*
X12891982Y1250562D01*
X12891982Y1250562D02*
X12891982Y1364848D01*
X12891982Y1364848D02*
X12925315Y1517229D01*
X12925315Y1517229D02*
X12958649Y1593420D01*
X12958649Y1593420D02*
X13025315Y1669610D01*
X13025315Y1669610D02*
X13125315Y1707705D01*
X13125315Y1707705D02*
X13191982Y1707705D01*
X13191982Y1707705D02*
X13291982Y1669610D01*
X13291982Y1669610D02*
X13325315Y1631515D01*
X13758649Y1707705D02*
X13825315Y1707705D01*
X13825315Y1707705D02*
X13891982Y1669610D01*
X13891982Y1669610D02*
X13925315Y1631515D01*
X13925315Y1631515D02*
X13958649Y1555324D01*
X13958649Y1555324D02*
X13991982Y1402943D01*
X13991982Y1402943D02*
X13991982Y1212467D01*
X13991982Y1212467D02*
X13958649Y1060086D01*
X13958649Y1060086D02*
X13925315Y983896D01*
X13925315Y983896D02*
X13891982Y945800D01*
X13891982Y945800D02*
X13825315Y907705D01*
X13825315Y907705D02*
X13758649Y907705D01*
X13758649Y907705D02*
X13691982Y945800D01*
X13691982Y945800D02*
X13658649Y983896D01*
X13658649Y983896D02*
X13625315Y1060086D01*
X13625315Y1060086D02*
X13591982Y1212467D01*
X13591982Y1212467D02*
X13591982Y1402943D01*
X13591982Y1402943D02*
X13625315Y1555324D01*
X13625315Y1555324D02*
X13658649Y1631515D01*
X13658649Y1631515D02*
X13691982Y1669610D01*
X13691982Y1669610D02*
X13758649Y1707705D01*
X-13349351Y11067705D02*
X-13349351Y11867705D01*
X-12882684Y11867705D02*
X-12749351Y11867705D01*
X-12749351Y11867705D02*
X-12682684Y11829610D01*
X-12682684Y11829610D02*
X-12616018Y11753420D01*
X-12616018Y11753420D02*
X-12582684Y11601039D01*
X-12582684Y11601039D02*
X-12582684Y11334372D01*
X-12582684Y11334372D02*
X-12616018Y11181991D01*
X-12616018Y11181991D02*
X-12682684Y11105800D01*
X-12682684Y11105800D02*
X-12749351Y11067705D01*
X-12749351Y11067705D02*
X-12882684Y11067705D01*
X-12882684Y11067705D02*
X-12949351Y11105800D01*
X-12949351Y11105800D02*
X-13016018Y11181991D01*
X-13016018Y11181991D02*
X-13049351Y11334372D01*
X-13049351Y11334372D02*
X-13049351Y11601039D01*
X-13049351Y11601039D02*
X-13016018Y11753420D01*
X-13016018Y11753420D02*
X-12949351Y11829610D01*
X-12949351Y11829610D02*
X-12882684Y11867705D01*
X-11982685Y11601039D02*
X-11982685Y11067705D01*
X-12149351Y11905800D02*
X-12316018Y11334372D01*
X-12316018Y11334372D02*
X-11882685Y11334372D01*
X-12408685Y-21952295D02*
X-12808685Y-21952295D01*
X-12608685Y-21952295D02*
X-12608685Y-21152295D01*
X-12608685Y-21152295D02*
X-12675352Y-21266580D01*
X-12675352Y-21266580D02*
X-12742018Y-21342771D01*
X-12742018Y-21342771D02*
X-12808685Y-21380866D01*
X-11808685Y-21418961D02*
X-11808685Y-21952295D01*
X-11975351Y-21114200D02*
X-12142018Y-21685628D01*
X-12142018Y-21685628D02*
X-11708685Y-21685628D01*
X11891982Y-4172295D02*
X11891982Y-3372295D01*
X12358649Y-3372295D02*
X12491982Y-3372295D01*
X12491982Y-3372295D02*
X12558649Y-3410390D01*
X12558649Y-3410390D02*
X12625315Y-3486580D01*
X12625315Y-3486580D02*
X12658649Y-3638961D01*
X12658649Y-3638961D02*
X12658649Y-3905628D01*
X12658649Y-3905628D02*
X12625315Y-4058009D01*
X12625315Y-4058009D02*
X12558649Y-4134200D01*
X12558649Y-4134200D02*
X12491982Y-4172295D01*
X12491982Y-4172295D02*
X12358649Y-4172295D01*
X12358649Y-4172295D02*
X12291982Y-4134200D01*
X12291982Y-4134200D02*
X12225315Y-4058009D01*
X12225315Y-4058009D02*
X12191982Y-3905628D01*
X12191982Y-3905628D02*
X12191982Y-3638961D01*
X12191982Y-3638961D02*
X12225315Y-3486580D01*
X12225315Y-3486580D02*
X12291982Y-3410390D01*
X12291982Y-3410390D02*
X12358649Y-3372295D01*
X12925315Y-3448485D02*
X12958648Y-3410390D01*
X12958648Y-3410390D02*
X13025315Y-3372295D01*
X13025315Y-3372295D02*
X13191982Y-3372295D01*
X13191982Y-3372295D02*
X13258648Y-3410390D01*
X13258648Y-3410390D02*
X13291982Y-3448485D01*
X13291982Y-3448485D02*
X13325315Y-3524676D01*
X13325315Y-3524676D02*
X13325315Y-3600866D01*
X13325315Y-3600866D02*
X13291982Y-3715152D01*
X13291982Y-3715152D02*
X12891982Y-4172295D01*
X12891982Y-4172295D02*
X13325315Y-4172295D01*
X13591982Y-3448485D02*
X13625315Y-3410390D01*
X13625315Y-3410390D02*
X13691982Y-3372295D01*
X13691982Y-3372295D02*
X13858649Y-3372295D01*
X13858649Y-3372295D02*
X13925315Y-3410390D01*
X13925315Y-3410390D02*
X13958649Y-3448485D01*
X13958649Y-3448485D02*
X13991982Y-3524676D01*
X13991982Y-3524676D02*
X13991982Y-3600866D01*
X13991982Y-3600866D02*
X13958649Y-3715152D01*
X13958649Y-3715152D02*
X13558649Y-4172295D01*
X13558649Y-4172295D02*
X13991982Y-4172295D01*
X-13349351Y16147705D02*
X-13349351Y16947705D01*
X-12882684Y16947705D02*
X-12749351Y16947705D01*
X-12749351Y16947705D02*
X-12682684Y16909610D01*
X-12682684Y16909610D02*
X-12616018Y16833420D01*
X-12616018Y16833420D02*
X-12582684Y16681039D01*
X-12582684Y16681039D02*
X-12582684Y16414372D01*
X-12582684Y16414372D02*
X-12616018Y16261991D01*
X-12616018Y16261991D02*
X-12682684Y16185800D01*
X-12682684Y16185800D02*
X-12749351Y16147705D01*
X-12749351Y16147705D02*
X-12882684Y16147705D01*
X-12882684Y16147705D02*
X-12949351Y16185800D01*
X-12949351Y16185800D02*
X-13016018Y16261991D01*
X-13016018Y16261991D02*
X-13049351Y16414372D01*
X-13049351Y16414372D02*
X-13049351Y16681039D01*
X-13049351Y16681039D02*
X-13016018Y16833420D01*
X-13016018Y16833420D02*
X-12949351Y16909610D01*
X-12949351Y16909610D02*
X-12882684Y16947705D01*
X-12316018Y16871515D02*
X-12282685Y16909610D01*
X-12282685Y16909610D02*
X-12216018Y16947705D01*
X-12216018Y16947705D02*
X-12049351Y16947705D01*
X-12049351Y16947705D02*
X-11982685Y16909610D01*
X-11982685Y16909610D02*
X-11949351Y16871515D01*
X-11949351Y16871515D02*
X-11916018Y16795324D01*
X-11916018Y16795324D02*
X-11916018Y16719134D01*
X-11916018Y16719134D02*
X-11949351Y16604848D01*
X-11949351Y16604848D02*
X-12349351Y16147705D01*
X-12349351Y16147705D02*
X-11916018Y16147705D01*
X-12408685Y-24492295D02*
X-12808685Y-24492295D01*
X-12608685Y-24492295D02*
X-12608685Y-23692295D01*
X-12608685Y-23692295D02*
X-12675352Y-23806580D01*
X-12675352Y-23806580D02*
X-12742018Y-23882771D01*
X-12742018Y-23882771D02*
X-12808685Y-23920866D01*
X-11775351Y-23692295D02*
X-12108685Y-23692295D01*
X-12108685Y-23692295D02*
X-12142018Y-24073247D01*
X-12142018Y-24073247D02*
X-12108685Y-24035152D01*
X-12108685Y-24035152D02*
X-12042018Y-23997057D01*
X-12042018Y-23997057D02*
X-11875351Y-23997057D01*
X-11875351Y-23997057D02*
X-11808685Y-24035152D01*
X-11808685Y-24035152D02*
X-11775351Y-24073247D01*
X-11775351Y-24073247D02*
X-11742018Y-24149438D01*
X-11742018Y-24149438D02*
X-11742018Y-24339914D01*
X-11742018Y-24339914D02*
X-11775351Y-24416104D01*
X-11775351Y-24416104D02*
X-11808685Y-24454200D01*
X-11808685Y-24454200D02*
X-11875351Y-24492295D01*
X-11875351Y-24492295D02*
X-12042018Y-24492295D01*
X-12042018Y-24492295D02*
X-12108685Y-24454200D01*
X-12108685Y-24454200D02*
X-12142018Y-24416104D01*
X11891982Y-24492295D02*
X11891982Y-23692295D01*
X12358649Y-23692295D02*
X12491982Y-23692295D01*
X12491982Y-23692295D02*
X12558649Y-23730390D01*
X12558649Y-23730390D02*
X12625315Y-23806580D01*
X12625315Y-23806580D02*
X12658649Y-23958961D01*
X12658649Y-23958961D02*
X12658649Y-24225628D01*
X12658649Y-24225628D02*
X12625315Y-24378009D01*
X12625315Y-24378009D02*
X12558649Y-24454200D01*
X12558649Y-24454200D02*
X12491982Y-24492295D01*
X12491982Y-24492295D02*
X12358649Y-24492295D01*
X12358649Y-24492295D02*
X12291982Y-24454200D01*
X12291982Y-24454200D02*
X12225315Y-24378009D01*
X12225315Y-24378009D02*
X12191982Y-24225628D01*
X12191982Y-24225628D02*
X12191982Y-23958961D01*
X12191982Y-23958961D02*
X12225315Y-23806580D01*
X12225315Y-23806580D02*
X12291982Y-23730390D01*
X12291982Y-23730390D02*
X12358649Y-23692295D01*
X13325315Y-24492295D02*
X12925315Y-24492295D01*
X13125315Y-24492295D02*
X13125315Y-23692295D01*
X13125315Y-23692295D02*
X13058648Y-23806580D01*
X13058648Y-23806580D02*
X12991982Y-23882771D01*
X12991982Y-23882771D02*
X12925315Y-23920866D01*
X13925315Y-23692295D02*
X13791982Y-23692295D01*
X13791982Y-23692295D02*
X13725315Y-23730390D01*
X13725315Y-23730390D02*
X13691982Y-23768485D01*
X13691982Y-23768485D02*
X13625315Y-23882771D01*
X13625315Y-23882771D02*
X13591982Y-24035152D01*
X13591982Y-24035152D02*
X13591982Y-24339914D01*
X13591982Y-24339914D02*
X13625315Y-24416104D01*
X13625315Y-24416104D02*
X13658649Y-24454200D01*
X13658649Y-24454200D02*
X13725315Y-24492295D01*
X13725315Y-24492295D02*
X13858649Y-24492295D01*
X13858649Y-24492295D02*
X13925315Y-24454200D01*
X13925315Y-24454200D02*
X13958649Y-24416104D01*
X13958649Y-24416104D02*
X13991982Y-24339914D01*
X13991982Y-24339914D02*
X13991982Y-24149438D01*
X13991982Y-24149438D02*
X13958649Y-24073247D01*
X13958649Y-24073247D02*
X13925315Y-24035152D01*
X13925315Y-24035152D02*
X13858649Y-23997057D01*
X13858649Y-23997057D02*
X13725315Y-23997057D01*
X13725315Y-23997057D02*
X13658649Y-24035152D01*
X13658649Y-24035152D02*
X13625315Y-24073247D01*
X13625315Y-24073247D02*
X13591982Y-24149438D01*
X-18548095Y21306848D02*
X-18548095Y20640181D01*
X-18548095Y21211610D02*
X-18500476Y21259229D01*
X-18500476Y21259229D02*
X-18405238Y21306848D01*
X-18405238Y21306848D02*
X-18262381Y21306848D01*
X-18262381Y21306848D02*
X-18167143Y21259229D01*
X-18167143Y21259229D02*
X-18119524Y21163991D01*
X-18119524Y21163991D02*
X-18119524Y20640181D01*
X-17452857Y21640181D02*
X-17357619Y21640181D01*
X-17357619Y21640181D02*
X-17262381Y21592562D01*
X-17262381Y21592562D02*
X-17214762Y21544943D01*
X-17214762Y21544943D02*
X-17167143Y21449705D01*
X-17167143Y21449705D02*
X-17119524Y21259229D01*
X-17119524Y21259229D02*
X-17119524Y21021134D01*
X-17119524Y21021134D02*
X-17167143Y20830658D01*
X-17167143Y20830658D02*
X-17214762Y20735420D01*
X-17214762Y20735420D02*
X-17262381Y20687800D01*
X-17262381Y20687800D02*
X-17357619Y20640181D01*
X-17357619Y20640181D02*
X-17452857Y20640181D01*
X-17452857Y20640181D02*
X-17548095Y20687800D01*
X-17548095Y20687800D02*
X-17595714Y20735420D01*
X-17595714Y20735420D02*
X-17643333Y20830658D01*
X-17643333Y20830658D02*
X-17690952Y21021134D01*
X-17690952Y21021134D02*
X-17690952Y21259229D01*
X-17690952Y21259229D02*
X-17643333Y21449705D01*
X-17643333Y21449705D02*
X-17595714Y21544943D01*
X-17595714Y21544943D02*
X-17548095Y21592562D01*
X-17548095Y21592562D02*
X-17452857Y21640181D01*
X-16690952Y20640181D02*
X-16690952Y21306848D01*
X-16690952Y21211610D02*
X-16643333Y21259229D01*
X-16643333Y21259229D02*
X-16548095Y21306848D01*
X-16548095Y21306848D02*
X-16405238Y21306848D01*
X-16405238Y21306848D02*
X-16310000Y21259229D01*
X-16310000Y21259229D02*
X-16262381Y21163991D01*
X-16262381Y21163991D02*
X-16262381Y20640181D01*
X-16262381Y21163991D02*
X-16214762Y21259229D01*
X-16214762Y21259229D02*
X-16119524Y21306848D01*
X-16119524Y21306848D02*
X-15976667Y21306848D01*
X-15976667Y21306848D02*
X-15881428Y21259229D01*
X-15881428Y21259229D02*
X-15833809Y21163991D01*
X-15833809Y21163991D02*
X-15833809Y20640181D01*
X-14833810Y20640181D02*
X-15405238Y20640181D01*
X-15119524Y20640181D02*
X-15119524Y21640181D01*
X-15119524Y21640181D02*
X-15214762Y21497324D01*
X-15214762Y21497324D02*
X-15310000Y21402086D01*
X-15310000Y21402086D02*
X-15405238Y21354467D01*
X-14452857Y20687800D02*
X-14357619Y20640181D01*
X-14357619Y20640181D02*
X-14167143Y20640181D01*
X-14167143Y20640181D02*
X-14071905Y20687800D01*
X-14071905Y20687800D02*
X-14024286Y20783039D01*
X-14024286Y20783039D02*
X-14024286Y20830658D01*
X-14024286Y20830658D02*
X-14071905Y20925896D01*
X-14071905Y20925896D02*
X-14167143Y20973515D01*
X-14167143Y20973515D02*
X-14310000Y20973515D01*
X-14310000Y20973515D02*
X-14405238Y21021134D01*
X-14405238Y21021134D02*
X-14452857Y21116372D01*
X-14452857Y21116372D02*
X-14452857Y21163991D01*
X-14452857Y21163991D02*
X-14405238Y21259229D01*
X-14405238Y21259229D02*
X-14310000Y21306848D01*
X-14310000Y21306848D02*
X-14167143Y21306848D01*
X-14167143Y21306848D02*
X-14071905Y21259229D01*
X-17792476Y-25468295D02*
X-17792476Y-24668295D01*
X-17792476Y-24668295D02*
X-17602000Y-24668295D01*
X-17602000Y-24668295D02*
X-17487714Y-24706390D01*
X-17487714Y-24706390D02*
X-17411524Y-24782580D01*
X-17411524Y-24782580D02*
X-17373429Y-24858771D01*
X-17373429Y-24858771D02*
X-17335333Y-25011152D01*
X-17335333Y-25011152D02*
X-17335333Y-25125438D01*
X-17335333Y-25125438D02*
X-17373429Y-25277819D01*
X-17373429Y-25277819D02*
X-17411524Y-25354009D01*
X-17411524Y-25354009D02*
X-17487714Y-25430200D01*
X-17487714Y-25430200D02*
X-17602000Y-25468295D01*
X-17602000Y-25468295D02*
X-17792476Y-25468295D01*
X-16992476Y-25049247D02*
X-16725810Y-25049247D01*
X-16611524Y-25468295D02*
X-16992476Y-25468295D01*
X-16992476Y-25468295D02*
X-16992476Y-24668295D01*
X-16992476Y-24668295D02*
X-16611524Y-24668295D01*
X-16002000Y-25049247D02*
X-15887714Y-25087342D01*
X-15887714Y-25087342D02*
X-15849619Y-25125438D01*
X-15849619Y-25125438D02*
X-15811523Y-25201628D01*
X-15811523Y-25201628D02*
X-15811523Y-25315914D01*
X-15811523Y-25315914D02*
X-15849619Y-25392104D01*
X-15849619Y-25392104D02*
X-15887714Y-25430200D01*
X-15887714Y-25430200D02*
X-15963904Y-25468295D01*
X-15963904Y-25468295D02*
X-16268666Y-25468295D01*
X-16268666Y-25468295D02*
X-16268666Y-24668295D01*
X-16268666Y-24668295D02*
X-16002000Y-24668295D01*
X-16002000Y-24668295D02*
X-15925809Y-24706390D01*
X-15925809Y-24706390D02*
X-15887714Y-24744485D01*
X-15887714Y-24744485D02*
X-15849619Y-24820676D01*
X-15849619Y-24820676D02*
X-15849619Y-24896866D01*
X-15849619Y-24896866D02*
X-15887714Y-24973057D01*
X-15887714Y-24973057D02*
X-15925809Y-25011152D01*
X-15925809Y-25011152D02*
X-16002000Y-25049247D01*
X-16002000Y-25049247D02*
X-16268666Y-25049247D01*
X-15468666Y-24668295D02*
X-15468666Y-25315914D01*
X-15468666Y-25315914D02*
X-15430571Y-25392104D01*
X-15430571Y-25392104D02*
X-15392476Y-25430200D01*
X-15392476Y-25430200D02*
X-15316285Y-25468295D01*
X-15316285Y-25468295D02*
X-15163904Y-25468295D01*
X-15163904Y-25468295D02*
X-15087714Y-25430200D01*
X-15087714Y-25430200D02*
X-15049619Y-25392104D01*
X-15049619Y-25392104D02*
X-15011523Y-25315914D01*
X-15011523Y-25315914D02*
X-15011523Y-24668295D01*
X-14211524Y-24706390D02*
X-14287714Y-24668295D01*
X-14287714Y-24668295D02*
X-14402000Y-24668295D01*
X-14402000Y-24668295D02*
X-14516286Y-24706390D01*
X-14516286Y-24706390D02*
X-14592476Y-24782580D01*
X-14592476Y-24782580D02*
X-14630571Y-24858771D01*
X-14630571Y-24858771D02*
X-14668667Y-25011152D01*
X-14668667Y-25011152D02*
X-14668667Y-25125438D01*
X-14668667Y-25125438D02*
X-14630571Y-25277819D01*
X-14630571Y-25277819D02*
X-14592476Y-25354009D01*
X-14592476Y-25354009D02*
X-14516286Y-25430200D01*
X-14516286Y-25430200D02*
X-14402000Y-25468295D01*
X-14402000Y-25468295D02*
X-14325809Y-25468295D01*
X-14325809Y-25468295D02*
X-14211524Y-25430200D01*
X-14211524Y-25430200D02*
X-14173428Y-25392104D01*
X-14173428Y-25392104D02*
X-14173428Y-25125438D01*
X-14173428Y-25125438D02*
X-14325809Y-25125438D01*
D11*
X-15605562Y-10817795D02*
X-16557943Y-11484462D01*
X-15605562Y-11960652D02*
X-17605562Y-11960652D01*
X-17605562Y-11960652D02*
X-17605562Y-11198747D01*
X-17605562Y-11198747D02*
X-17510324Y-11008271D01*
X-17510324Y-11008271D02*
X-17415086Y-10913033D01*
X-17415086Y-10913033D02*
X-17224610Y-10817795D01*
X-17224610Y-10817795D02*
X-16938896Y-10817795D01*
X-16938896Y-10817795D02*
X-16748420Y-10913033D01*
X-16748420Y-10913033D02*
X-16653181Y-11008271D01*
X-16653181Y-11008271D02*
X-16557943Y-11198747D01*
X-16557943Y-11198747D02*
X-16557943Y-11960652D01*
X-15605562Y-9960652D02*
X-17605562Y-9960652D01*
X-17605562Y-9960652D02*
X-17605562Y-9198747D01*
X-17605562Y-9198747D02*
X-17510324Y-9008271D01*
X-17510324Y-9008271D02*
X-17415086Y-8913033D01*
X-17415086Y-8913033D02*
X-17224610Y-8817795D01*
X-17224610Y-8817795D02*
X-16938896Y-8817795D01*
X-16938896Y-8817795D02*
X-16748420Y-8913033D01*
X-16748420Y-8913033D02*
X-16653181Y-9008271D01*
X-16653181Y-9008271D02*
X-16557943Y-9198747D01*
X-16557943Y-9198747D02*
X-16557943Y-9960652D01*
X-15605562Y-7960652D02*
X-16938896Y-7960652D01*
X-17605562Y-7960652D02*
X-17510324Y-8055890D01*
X-17510324Y-8055890D02*
X-17415086Y-7960652D01*
X-17415086Y-7960652D02*
X-17510324Y-7865414D01*
X-17510324Y-7865414D02*
X-17605562Y-7960652D01*
X-17605562Y-7960652D02*
X-17415086Y-7960652D01*
X-16938896Y-5484461D02*
X-14938896Y-5484461D01*
X-16843658Y-5484461D02*
X-16938896Y-5293985D01*
X-16938896Y-5293985D02*
X-16938896Y-4913032D01*
X-16938896Y-4913032D02*
X-16843658Y-4722556D01*
X-16843658Y-4722556D02*
X-16748420Y-4627318D01*
X-16748420Y-4627318D02*
X-16557943Y-4532080D01*
X-16557943Y-4532080D02*
X-15986515Y-4532080D01*
X-15986515Y-4532080D02*
X-15796039Y-4627318D01*
X-15796039Y-4627318D02*
X-15700800Y-4722556D01*
X-15700800Y-4722556D02*
X-15605562Y-4913032D01*
X-15605562Y-4913032D02*
X-15605562Y-5293985D01*
X-15605562Y-5293985D02*
X-15700800Y-5484461D01*
X-15605562Y-3674937D02*
X-16938896Y-3674937D01*
X-17605562Y-3674937D02*
X-17510324Y-3770175D01*
X-17510324Y-3770175D02*
X-17415086Y-3674937D01*
X-17415086Y-3674937D02*
X-17510324Y-3579699D01*
X-17510324Y-3579699D02*
X-17605562Y-3674937D01*
X-17605562Y-3674937D02*
X-17415086Y-3674937D01*
X-15700800Y-1865413D02*
X-15605562Y-2055889D01*
X-15605562Y-2055889D02*
X-15605562Y-2436842D01*
X-15605562Y-2436842D02*
X-15700800Y-2627318D01*
X-15700800Y-2627318D02*
X-15796039Y-2722556D01*
X-15796039Y-2722556D02*
X-15986515Y-2817794D01*
X-15986515Y-2817794D02*
X-16557943Y-2817794D01*
X-16557943Y-2817794D02*
X-16748420Y-2722556D01*
X-16748420Y-2722556D02*
X-16843658Y-2627318D01*
X-16843658Y-2627318D02*
X-16938896Y-2436842D01*
X-16938896Y-2436842D02*
X-16938896Y-2055889D01*
X-16938896Y-2055889D02*
X-16843658Y-1865413D01*
X-15605562Y-722556D02*
X-15700800Y-913032D01*
X-15700800Y-913032D02*
X-15796039Y-1008270D01*
X-15796039Y-1008270D02*
X-15986515Y-1103508D01*
X-15986515Y-1103508D02*
X-16557943Y-1103508D01*
X-16557943Y-1103508D02*
X-16748420Y-1008270D01*
X-16748420Y-1008270D02*
X-16843658Y-913032D01*
X-16843658Y-913032D02*
X-16938896Y-722556D01*
X-16938896Y-722556D02*
X-16938896Y-436841D01*
X-16938896Y-436841D02*
X-16843658Y-246365D01*
X-16843658Y-246365D02*
X-16748420Y-151127D01*
X-16748420Y-151127D02*
X-16557943Y-55889D01*
X-16557943Y-55889D02*
X-15986515Y-55889D01*
X-15986515Y-55889D02*
X-15796039Y-151127D01*
X-15796039Y-151127D02*
X-15700800Y-246365D01*
X-15700800Y-246365D02*
X-15605562Y-436841D01*
X-15605562Y-436841D02*
X-15605562Y-722556D01*
X-15605562Y3182207D02*
X-16653181Y3182207D01*
X-16653181Y3182207D02*
X-16843658Y3086969D01*
X-16843658Y3086969D02*
X-16938896Y2896493D01*
X-16938896Y2896493D02*
X-16938896Y2515540D01*
X-16938896Y2515540D02*
X-16843658Y2325064D01*
X-15700800Y3182207D02*
X-15605562Y2991731D01*
X-15605562Y2991731D02*
X-15605562Y2515540D01*
X-15605562Y2515540D02*
X-15700800Y2325064D01*
X-15700800Y2325064D02*
X-15891277Y2229826D01*
X-15891277Y2229826D02*
X-16081753Y2229826D01*
X-16081753Y2229826D02*
X-16272229Y2325064D01*
X-16272229Y2325064D02*
X-16367467Y2515540D01*
X-16367467Y2515540D02*
X-16367467Y2991731D01*
X-16367467Y2991731D02*
X-16462705Y3182207D01*
X-15605562Y4991731D02*
X-17605562Y4991731D01*
X-15700800Y4991731D02*
X-15605562Y4801255D01*
X-15605562Y4801255D02*
X-15605562Y4420302D01*
X-15605562Y4420302D02*
X-15700800Y4229826D01*
X-15700800Y4229826D02*
X-15796039Y4134588D01*
X-15796039Y4134588D02*
X-15986515Y4039350D01*
X-15986515Y4039350D02*
X-16557943Y4039350D01*
X-16557943Y4039350D02*
X-16748420Y4134588D01*
X-16748420Y4134588D02*
X-16843658Y4229826D01*
X-16843658Y4229826D02*
X-16938896Y4420302D01*
X-16938896Y4420302D02*
X-16938896Y4801255D01*
X-16938896Y4801255D02*
X-16843658Y4991731D01*
X-15605562Y6801255D02*
X-16653181Y6801255D01*
X-16653181Y6801255D02*
X-16843658Y6706017D01*
X-16843658Y6706017D02*
X-16938896Y6515541D01*
X-16938896Y6515541D02*
X-16938896Y6134588D01*
X-16938896Y6134588D02*
X-16843658Y5944112D01*
X-15700800Y6801255D02*
X-15605562Y6610779D01*
X-15605562Y6610779D02*
X-15605562Y6134588D01*
X-15605562Y6134588D02*
X-15700800Y5944112D01*
X-15700800Y5944112D02*
X-15891277Y5848874D01*
X-15891277Y5848874D02*
X-16081753Y5848874D01*
X-16081753Y5848874D02*
X-16272229Y5944112D01*
X-16272229Y5944112D02*
X-16367467Y6134588D01*
X-16367467Y6134588D02*
X-16367467Y6610779D01*
X-16367467Y6610779D02*
X-16462705Y6801255D01*
X-16938896Y7753636D02*
X-14938896Y7753636D01*
X-16843658Y7753636D02*
X-16938896Y7944112D01*
X-16938896Y7944112D02*
X-16938896Y8325065D01*
X-16938896Y8325065D02*
X-16843658Y8515541D01*
X-16843658Y8515541D02*
X-16748420Y8610779D01*
X-16748420Y8610779D02*
X-16557943Y8706017D01*
X-16557943Y8706017D02*
X-15986515Y8706017D01*
X-15986515Y8706017D02*
X-15796039Y8610779D01*
X-15796039Y8610779D02*
X-15700800Y8515541D01*
X-15700800Y8515541D02*
X-15605562Y8325065D01*
X-15605562Y8325065D02*
X-15605562Y7944112D01*
X-15605562Y7944112D02*
X-15700800Y7753636D01*
X-16938896Y9277446D02*
X-16938896Y10039350D01*
X-17605562Y9563160D02*
X-15891277Y9563160D01*
X-15891277Y9563160D02*
X-15700800Y9658398D01*
X-15700800Y9658398D02*
X-15605562Y9848874D01*
X-15605562Y9848874D02*
X-15605562Y10039350D01*
X-15700800Y11467922D02*
X-15605562Y11277446D01*
X-15605562Y11277446D02*
X-15605562Y10896493D01*
X-15605562Y10896493D02*
X-15700800Y10706017D01*
X-15700800Y10706017D02*
X-15891277Y10610779D01*
X-15891277Y10610779D02*
X-16653181Y10610779D01*
X-16653181Y10610779D02*
X-16843658Y10706017D01*
X-16843658Y10706017D02*
X-16938896Y10896493D01*
X-16938896Y10896493D02*
X-16938896Y11277446D01*
X-16938896Y11277446D02*
X-16843658Y11467922D01*
X-16843658Y11467922D02*
X-16653181Y11563160D01*
X-16653181Y11563160D02*
X-16462705Y11563160D01*
X-16462705Y11563160D02*
X-16272229Y10610779D01*
X-15605562Y12420303D02*
X-16938896Y12420303D01*
X-16557943Y12420303D02*
X-16748420Y12515541D01*
X-16748420Y12515541D02*
X-16843658Y12610779D01*
X-16843658Y12610779D02*
X-16938896Y12801255D01*
X-16938896Y12801255D02*
X-16938896Y12991732D01*
D10*
X-14016018Y-11792295D02*
X-14016018Y-10992295D01*
X-13549351Y-10992295D02*
X-13416018Y-10992295D01*
X-13416018Y-10992295D02*
X-13349351Y-11030390D01*
X-13349351Y-11030390D02*
X-13282685Y-11106580D01*
X-13282685Y-11106580D02*
X-13249351Y-11258961D01*
X-13249351Y-11258961D02*
X-13249351Y-11525628D01*
X-13249351Y-11525628D02*
X-13282685Y-11678009D01*
X-13282685Y-11678009D02*
X-13349351Y-11754200D01*
X-13349351Y-11754200D02*
X-13416018Y-11792295D01*
X-13416018Y-11792295D02*
X-13549351Y-11792295D01*
X-13549351Y-11792295D02*
X-13616018Y-11754200D01*
X-13616018Y-11754200D02*
X-13682685Y-11678009D01*
X-13682685Y-11678009D02*
X-13716018Y-11525628D01*
X-13716018Y-11525628D02*
X-13716018Y-11258961D01*
X-13716018Y-11258961D02*
X-13682685Y-11106580D01*
X-13682685Y-11106580D02*
X-13616018Y-11030390D01*
X-13616018Y-11030390D02*
X-13549351Y-10992295D01*
X-12582685Y-11792295D02*
X-12982685Y-11792295D01*
X-12782685Y-11792295D02*
X-12782685Y-10992295D01*
X-12782685Y-10992295D02*
X-12849352Y-11106580D01*
X-12849352Y-11106580D02*
X-12916018Y-11182771D01*
X-12916018Y-11182771D02*
X-12982685Y-11220866D01*
X-11916018Y-11792295D02*
X-12316018Y-11792295D01*
X-12116018Y-11792295D02*
X-12116018Y-10992295D01*
X-12116018Y-10992295D02*
X-12182685Y-11106580D01*
X-12182685Y-11106580D02*
X-12249351Y-11182771D01*
X-12249351Y-11182771D02*
X-12316018Y-11220866D01*
X11891982Y-16872295D02*
X11891982Y-16072295D01*
X12358649Y-16072295D02*
X12491982Y-16072295D01*
X12491982Y-16072295D02*
X12558649Y-16110390D01*
X12558649Y-16110390D02*
X12625315Y-16186580D01*
X12625315Y-16186580D02*
X12658649Y-16338961D01*
X12658649Y-16338961D02*
X12658649Y-16605628D01*
X12658649Y-16605628D02*
X12625315Y-16758009D01*
X12625315Y-16758009D02*
X12558649Y-16834200D01*
X12558649Y-16834200D02*
X12491982Y-16872295D01*
X12491982Y-16872295D02*
X12358649Y-16872295D01*
X12358649Y-16872295D02*
X12291982Y-16834200D01*
X12291982Y-16834200D02*
X12225315Y-16758009D01*
X12225315Y-16758009D02*
X12191982Y-16605628D01*
X12191982Y-16605628D02*
X12191982Y-16338961D01*
X12191982Y-16338961D02*
X12225315Y-16186580D01*
X12225315Y-16186580D02*
X12291982Y-16110390D01*
X12291982Y-16110390D02*
X12358649Y-16072295D01*
X13325315Y-16872295D02*
X12925315Y-16872295D01*
X13125315Y-16872295D02*
X13125315Y-16072295D01*
X13125315Y-16072295D02*
X13058648Y-16186580D01*
X13058648Y-16186580D02*
X12991982Y-16262771D01*
X12991982Y-16262771D02*
X12925315Y-16300866D01*
X13725315Y-16415152D02*
X13658649Y-16377057D01*
X13658649Y-16377057D02*
X13625315Y-16338961D01*
X13625315Y-16338961D02*
X13591982Y-16262771D01*
X13591982Y-16262771D02*
X13591982Y-16224676D01*
X13591982Y-16224676D02*
X13625315Y-16148485D01*
X13625315Y-16148485D02*
X13658649Y-16110390D01*
X13658649Y-16110390D02*
X13725315Y-16072295D01*
X13725315Y-16072295D02*
X13858649Y-16072295D01*
X13858649Y-16072295D02*
X13925315Y-16110390D01*
X13925315Y-16110390D02*
X13958649Y-16148485D01*
X13958649Y-16148485D02*
X13991982Y-16224676D01*
X13991982Y-16224676D02*
X13991982Y-16262771D01*
X13991982Y-16262771D02*
X13958649Y-16338961D01*
X13958649Y-16338961D02*
X13925315Y-16377057D01*
X13925315Y-16377057D02*
X13858649Y-16415152D01*
X13858649Y-16415152D02*
X13725315Y-16415152D01*
X13725315Y-16415152D02*
X13658649Y-16453247D01*
X13658649Y-16453247D02*
X13625315Y-16491342D01*
X13625315Y-16491342D02*
X13591982Y-16567533D01*
X13591982Y-16567533D02*
X13591982Y-16719914D01*
X13591982Y-16719914D02*
X13625315Y-16796104D01*
X13625315Y-16796104D02*
X13658649Y-16834200D01*
X13658649Y-16834200D02*
X13725315Y-16872295D01*
X13725315Y-16872295D02*
X13858649Y-16872295D01*
X13858649Y-16872295D02*
X13925315Y-16834200D01*
X13925315Y-16834200D02*
X13958649Y-16796104D01*
X13958649Y-16796104D02*
X13991982Y-16719914D01*
X13991982Y-16719914D02*
X13991982Y-16567533D01*
X13991982Y-16567533D02*
X13958649Y-16491342D01*
X13958649Y-16491342D02*
X13925315Y-16453247D01*
X13925315Y-16453247D02*
X13858649Y-16415152D01*
X-11695351Y-18650390D02*
X-11762018Y-18612295D01*
X-11762018Y-18612295D02*
X-11862018Y-18612295D01*
X-11862018Y-18612295D02*
X-11962018Y-18650390D01*
X-11962018Y-18650390D02*
X-12028684Y-18726580D01*
X-12028684Y-18726580D02*
X-12062018Y-18802771D01*
X-12062018Y-18802771D02*
X-12095351Y-18955152D01*
X-12095351Y-18955152D02*
X-12095351Y-19069438D01*
X-12095351Y-19069438D02*
X-12062018Y-19221819D01*
X-12062018Y-19221819D02*
X-12028684Y-19298009D01*
X-12028684Y-19298009D02*
X-11962018Y-19374200D01*
X-11962018Y-19374200D02*
X-11862018Y-19412295D01*
X-11862018Y-19412295D02*
X-11795351Y-19412295D01*
X-11795351Y-19412295D02*
X-11695351Y-19374200D01*
X-11695351Y-19374200D02*
X-11662018Y-19336104D01*
X-11662018Y-19336104D02*
X-11662018Y-19069438D01*
X-11662018Y-19069438D02*
X-11795351Y-19069438D01*
X5017238Y-26458152D02*
X5255333Y-27124819D01*
X5255333Y-27124819D02*
X5493428Y-26458152D01*
X6398190Y-27124819D02*
X5826762Y-27124819D01*
X6112476Y-27124819D02*
X6112476Y-26124819D01*
X6112476Y-26124819D02*
X6017238Y-26267676D01*
X6017238Y-26267676D02*
X5922000Y-26362914D01*
X5922000Y-26362914D02*
X5826762Y-26410533D01*
X6826762Y-27029580D02*
X6874381Y-27077200D01*
X6874381Y-27077200D02*
X6826762Y-27124819D01*
X6826762Y-27124819D02*
X6779143Y-27077200D01*
X6779143Y-27077200D02*
X6826762Y-27029580D01*
X6826762Y-27029580D02*
X6826762Y-27124819D01*
X7493428Y-26124819D02*
X7588666Y-26124819D01*
X7588666Y-26124819D02*
X7683904Y-26172438D01*
X7683904Y-26172438D02*
X7731523Y-26220057D01*
X7731523Y-26220057D02*
X7779142Y-26315295D01*
X7779142Y-26315295D02*
X7826761Y-26505771D01*
X7826761Y-26505771D02*
X7826761Y-26743866D01*
X7826761Y-26743866D02*
X7779142Y-26934342D01*
X7779142Y-26934342D02*
X7731523Y-27029580D01*
X7731523Y-27029580D02*
X7683904Y-27077200D01*
X7683904Y-27077200D02*
X7588666Y-27124819D01*
X7588666Y-27124819D02*
X7493428Y-27124819D01*
X7493428Y-27124819D02*
X7398190Y-27077200D01*
X7398190Y-27077200D02*
X7350571Y-27029580D01*
X7350571Y-27029580D02*
X7302952Y-26934342D01*
X7302952Y-26934342D02*
X7255333Y-26743866D01*
X7255333Y-26743866D02*
X7255333Y-26505771D01*
X7255333Y-26505771D02*
X7302952Y-26315295D01*
X7302952Y-26315295D02*
X7350571Y-26220057D01*
X7350571Y-26220057D02*
X7398190Y-26172438D01*
X7398190Y-26172438D02*
X7493428Y-26124819D01*
X9017238Y-26743866D02*
X9779143Y-26743866D01*
X10969619Y-26220057D02*
X11017238Y-26172438D01*
X11017238Y-26172438D02*
X11112476Y-26124819D01*
X11112476Y-26124819D02*
X11350571Y-26124819D01*
X11350571Y-26124819D02*
X11445809Y-26172438D01*
X11445809Y-26172438D02*
X11493428Y-26220057D01*
X11493428Y-26220057D02*
X11541047Y-26315295D01*
X11541047Y-26315295D02*
X11541047Y-26410533D01*
X11541047Y-26410533D02*
X11493428Y-26553390D01*
X11493428Y-26553390D02*
X10922000Y-27124819D01*
X10922000Y-27124819D02*
X11541047Y-27124819D01*
X12160095Y-26124819D02*
X12255333Y-26124819D01*
X12255333Y-26124819D02*
X12350571Y-26172438D01*
X12350571Y-26172438D02*
X12398190Y-26220057D01*
X12398190Y-26220057D02*
X12445809Y-26315295D01*
X12445809Y-26315295D02*
X12493428Y-26505771D01*
X12493428Y-26505771D02*
X12493428Y-26743866D01*
X12493428Y-26743866D02*
X12445809Y-26934342D01*
X12445809Y-26934342D02*
X12398190Y-27029580D01*
X12398190Y-27029580D02*
X12350571Y-27077200D01*
X12350571Y-27077200D02*
X12255333Y-27124819D01*
X12255333Y-27124819D02*
X12160095Y-27124819D01*
X12160095Y-27124819D02*
X12064857Y-27077200D01*
X12064857Y-27077200D02*
X12017238Y-27029580D01*
X12017238Y-27029580D02*
X11969619Y-26934342D01*
X11969619Y-26934342D02*
X11922000Y-26743866D01*
X11922000Y-26743866D02*
X11922000Y-26505771D01*
X11922000Y-26505771D02*
X11969619Y-26315295D01*
X11969619Y-26315295D02*
X12017238Y-26220057D01*
X12017238Y-26220057D02*
X12064857Y-26172438D01*
X12064857Y-26172438D02*
X12160095Y-26124819D01*
X12874381Y-26220057D02*
X12922000Y-26172438D01*
X12922000Y-26172438D02*
X13017238Y-26124819D01*
X13017238Y-26124819D02*
X13255333Y-26124819D01*
X13255333Y-26124819D02*
X13350571Y-26172438D01*
X13350571Y-26172438D02*
X13398190Y-26220057D01*
X13398190Y-26220057D02*
X13445809Y-26315295D01*
X13445809Y-26315295D02*
X13445809Y-26410533D01*
X13445809Y-26410533D02*
X13398190Y-26553390D01*
X13398190Y-26553390D02*
X12826762Y-27124819D01*
X12826762Y-27124819D02*
X13445809Y-27124819D01*
X14302952Y-26458152D02*
X14302952Y-27124819D01*
X14064857Y-26077200D02*
X13826762Y-26791485D01*
X13826762Y-26791485D02*
X14445809Y-26791485D01*
X14826762Y-27029580D02*
X14874381Y-27077200D01*
X14874381Y-27077200D02*
X14826762Y-27124819D01*
X14826762Y-27124819D02*
X14779143Y-27077200D01*
X14779143Y-27077200D02*
X14826762Y-27029580D01*
X14826762Y-27029580D02*
X14826762Y-27124819D01*
X15493428Y-26124819D02*
X15588666Y-26124819D01*
X15588666Y-26124819D02*
X15683904Y-26172438D01*
X15683904Y-26172438D02*
X15731523Y-26220057D01*
X15731523Y-26220057D02*
X15779142Y-26315295D01*
X15779142Y-26315295D02*
X15826761Y-26505771D01*
X15826761Y-26505771D02*
X15826761Y-26743866D01*
X15826761Y-26743866D02*
X15779142Y-26934342D01*
X15779142Y-26934342D02*
X15731523Y-27029580D01*
X15731523Y-27029580D02*
X15683904Y-27077200D01*
X15683904Y-27077200D02*
X15588666Y-27124819D01*
X15588666Y-27124819D02*
X15493428Y-27124819D01*
X15493428Y-27124819D02*
X15398190Y-27077200D01*
X15398190Y-27077200D02*
X15350571Y-27029580D01*
X15350571Y-27029580D02*
X15302952Y-26934342D01*
X15302952Y-26934342D02*
X15255333Y-26743866D01*
X15255333Y-26743866D02*
X15255333Y-26505771D01*
X15255333Y-26505771D02*
X15302952Y-26315295D01*
X15302952Y-26315295D02*
X15350571Y-26220057D01*
X15350571Y-26220057D02*
X15398190Y-26172438D01*
X15398190Y-26172438D02*
X15493428Y-26124819D01*
X16779142Y-27124819D02*
X16207714Y-27124819D01*
X16493428Y-27124819D02*
X16493428Y-26124819D01*
X16493428Y-26124819D02*
X16398190Y-26267676D01*
X16398190Y-26267676D02*
X16302952Y-26362914D01*
X16302952Y-26362914D02*
X16207714Y-26410533D01*
X11558649Y6216277D02*
X11891982Y6216277D01*
X11491982Y5987705D02*
X11725316Y6787705D01*
X11725316Y6787705D02*
X11958649Y5987705D01*
X12191982Y5987705D02*
X12191982Y6787705D01*
X12191982Y6787705D02*
X12358649Y6787705D01*
X12358649Y6787705D02*
X12458649Y6749610D01*
X12458649Y6749610D02*
X12525316Y6673420D01*
X12525316Y6673420D02*
X12558649Y6597229D01*
X12558649Y6597229D02*
X12591982Y6444848D01*
X12591982Y6444848D02*
X12591982Y6330562D01*
X12591982Y6330562D02*
X12558649Y6178181D01*
X12558649Y6178181D02*
X12525316Y6101991D01*
X12525316Y6101991D02*
X12458649Y6025800D01*
X12458649Y6025800D02*
X12358649Y5987705D01*
X12358649Y5987705D02*
X12191982Y5987705D01*
X13291982Y6063896D02*
X13258649Y6025800D01*
X13258649Y6025800D02*
X13158649Y5987705D01*
X13158649Y5987705D02*
X13091982Y5987705D01*
X13091982Y5987705D02*
X12991982Y6025800D01*
X12991982Y6025800D02*
X12925316Y6101991D01*
X12925316Y6101991D02*
X12891982Y6178181D01*
X12891982Y6178181D02*
X12858649Y6330562D01*
X12858649Y6330562D02*
X12858649Y6444848D01*
X12858649Y6444848D02*
X12891982Y6597229D01*
X12891982Y6597229D02*
X12925316Y6673420D01*
X12925316Y6673420D02*
X12991982Y6749610D01*
X12991982Y6749610D02*
X13091982Y6787705D01*
X13091982Y6787705D02*
X13158649Y6787705D01*
X13158649Y6787705D02*
X13258649Y6749610D01*
X13258649Y6749610D02*
X13291982Y6711515D01*
X13958649Y6749610D02*
X13891982Y6787705D01*
X13891982Y6787705D02*
X13791982Y6787705D01*
X13791982Y6787705D02*
X13691982Y6749610D01*
X13691982Y6749610D02*
X13625316Y6673420D01*
X13625316Y6673420D02*
X13591982Y6597229D01*
X13591982Y6597229D02*
X13558649Y6444848D01*
X13558649Y6444848D02*
X13558649Y6330562D01*
X13558649Y6330562D02*
X13591982Y6178181D01*
X13591982Y6178181D02*
X13625316Y6101991D01*
X13625316Y6101991D02*
X13691982Y6025800D01*
X13691982Y6025800D02*
X13791982Y5987705D01*
X13791982Y5987705D02*
X13858649Y5987705D01*
X13858649Y5987705D02*
X13958649Y6025800D01*
X13958649Y6025800D02*
X13991982Y6063896D01*
X13991982Y6063896D02*
X13991982Y6330562D01*
X13991982Y6330562D02*
X13858649Y6330562D01*
X11491981Y13912467D02*
X12025315Y13912467D01*
X11758648Y13607705D02*
X11758648Y14217229D01*
X12291982Y14407705D02*
X12725315Y14407705D01*
X12725315Y14407705D02*
X12491982Y14102943D01*
X12491982Y14102943D02*
X12591982Y14102943D01*
X12591982Y14102943D02*
X12658648Y14064848D01*
X12658648Y14064848D02*
X12691982Y14026753D01*
X12691982Y14026753D02*
X12725315Y13950562D01*
X12725315Y13950562D02*
X12725315Y13760086D01*
X12725315Y13760086D02*
X12691982Y13683896D01*
X12691982Y13683896D02*
X12658648Y13645800D01*
X12658648Y13645800D02*
X12591982Y13607705D01*
X12591982Y13607705D02*
X12391982Y13607705D01*
X12391982Y13607705D02*
X12325315Y13645800D01*
X12325315Y13645800D02*
X12291982Y13683896D01*
X12925315Y14407705D02*
X13158649Y13607705D01*
X13158649Y13607705D02*
X13391982Y14407705D01*
X13558649Y14407705D02*
X13991982Y14407705D01*
X13991982Y14407705D02*
X13758649Y14102943D01*
X13758649Y14102943D02*
X13858649Y14102943D01*
X13858649Y14102943D02*
X13925315Y14064848D01*
X13925315Y14064848D02*
X13958649Y14026753D01*
X13958649Y14026753D02*
X13991982Y13950562D01*
X13991982Y13950562D02*
X13991982Y13760086D01*
X13991982Y13760086D02*
X13958649Y13683896D01*
X13958649Y13683896D02*
X13925315Y13645800D01*
X13925315Y13645800D02*
X13858649Y13607705D01*
X13858649Y13607705D02*
X13658649Y13607705D01*
X13658649Y13607705D02*
X13591982Y13645800D01*
X13591982Y13645800D02*
X13558649Y13683896D01*
X-13349351Y13607705D02*
X-13349351Y14407705D01*
X-12882684Y14407705D02*
X-12749351Y14407705D01*
X-12749351Y14407705D02*
X-12682684Y14369610D01*
X-12682684Y14369610D02*
X-12616018Y14293420D01*
X-12616018Y14293420D02*
X-12582684Y14141039D01*
X-12582684Y14141039D02*
X-12582684Y13874372D01*
X-12582684Y13874372D02*
X-12616018Y13721991D01*
X-12616018Y13721991D02*
X-12682684Y13645800D01*
X-12682684Y13645800D02*
X-12749351Y13607705D01*
X-12749351Y13607705D02*
X-12882684Y13607705D01*
X-12882684Y13607705D02*
X-12949351Y13645800D01*
X-12949351Y13645800D02*
X-13016018Y13721991D01*
X-13016018Y13721991D02*
X-13049351Y13874372D01*
X-13049351Y13874372D02*
X-13049351Y14141039D01*
X-13049351Y14141039D02*
X-13016018Y14293420D01*
X-13016018Y14293420D02*
X-12949351Y14369610D01*
X-12949351Y14369610D02*
X-12882684Y14407705D01*
X-12349351Y14407705D02*
X-11916018Y14407705D01*
X-11916018Y14407705D02*
X-12149351Y14102943D01*
X-12149351Y14102943D02*
X-12049351Y14102943D01*
X-12049351Y14102943D02*
X-11982685Y14064848D01*
X-11982685Y14064848D02*
X-11949351Y14026753D01*
X-11949351Y14026753D02*
X-11916018Y13950562D01*
X-11916018Y13950562D02*
X-11916018Y13760086D01*
X-11916018Y13760086D02*
X-11949351Y13683896D01*
X-11949351Y13683896D02*
X-11982685Y13645800D01*
X-11982685Y13645800D02*
X-12049351Y13607705D01*
X-12049351Y13607705D02*
X-12249351Y13607705D01*
X-12249351Y13607705D02*
X-12316018Y13645800D01*
X-12316018Y13645800D02*
X-12349351Y13683896D01*
X11891982Y-9252295D02*
X11891982Y-8452295D01*
X12358649Y-8452295D02*
X12491982Y-8452295D01*
X12491982Y-8452295D02*
X12558649Y-8490390D01*
X12558649Y-8490390D02*
X12625315Y-8566580D01*
X12625315Y-8566580D02*
X12658649Y-8718961D01*
X12658649Y-8718961D02*
X12658649Y-8985628D01*
X12658649Y-8985628D02*
X12625315Y-9138009D01*
X12625315Y-9138009D02*
X12558649Y-9214200D01*
X12558649Y-9214200D02*
X12491982Y-9252295D01*
X12491982Y-9252295D02*
X12358649Y-9252295D01*
X12358649Y-9252295D02*
X12291982Y-9214200D01*
X12291982Y-9214200D02*
X12225315Y-9138009D01*
X12225315Y-9138009D02*
X12191982Y-8985628D01*
X12191982Y-8985628D02*
X12191982Y-8718961D01*
X12191982Y-8718961D02*
X12225315Y-8566580D01*
X12225315Y-8566580D02*
X12291982Y-8490390D01*
X12291982Y-8490390D02*
X12358649Y-8452295D01*
X12925315Y-8528485D02*
X12958648Y-8490390D01*
X12958648Y-8490390D02*
X13025315Y-8452295D01*
X13025315Y-8452295D02*
X13191982Y-8452295D01*
X13191982Y-8452295D02*
X13258648Y-8490390D01*
X13258648Y-8490390D02*
X13291982Y-8528485D01*
X13291982Y-8528485D02*
X13325315Y-8604676D01*
X13325315Y-8604676D02*
X13325315Y-8680866D01*
X13325315Y-8680866D02*
X13291982Y-8795152D01*
X13291982Y-8795152D02*
X12891982Y-9252295D01*
X12891982Y-9252295D02*
X13325315Y-9252295D01*
X13991982Y-9252295D02*
X13591982Y-9252295D01*
X13791982Y-9252295D02*
X13791982Y-8452295D01*
X13791982Y-8452295D02*
X13725315Y-8566580D01*
X13725315Y-8566580D02*
X13658649Y-8642771D01*
X13658649Y-8642771D02*
X13591982Y-8680866D01*
X-4071429Y9866181D02*
X-3833334Y8866181D01*
X-3833334Y8866181D02*
X-3642858Y9580467D01*
X-3642858Y9580467D02*
X-3452382Y8866181D01*
X-3452382Y8866181D02*
X-3214286Y9866181D01*
X-2404763Y8866181D02*
X-2404763Y9389991D01*
X-2404763Y9389991D02*
X-2452382Y9485229D01*
X-2452382Y9485229D02*
X-2547620Y9532848D01*
X-2547620Y9532848D02*
X-2738096Y9532848D01*
X-2738096Y9532848D02*
X-2833334Y9485229D01*
X-2404763Y8913800D02*
X-2500001Y8866181D01*
X-2500001Y8866181D02*
X-2738096Y8866181D01*
X-2738096Y8866181D02*
X-2833334Y8913800D01*
X-2833334Y8913800D02*
X-2880953Y9009039D01*
X-2880953Y9009039D02*
X-2880953Y9104277D01*
X-2880953Y9104277D02*
X-2833334Y9199515D01*
X-2833334Y9199515D02*
X-2738096Y9247134D01*
X-2738096Y9247134D02*
X-2500001Y9247134D01*
X-2500001Y9247134D02*
X-2404763Y9294753D01*
X-2023810Y9532848D02*
X-1785715Y8866181D01*
X-1547620Y9532848D02*
X-1785715Y8866181D01*
X-1785715Y8866181D02*
X-1880953Y8628086D01*
X-1880953Y8628086D02*
X-1928572Y8580467D01*
X-1928572Y8580467D02*
X-2023810Y8532848D01*
X-1261905Y9866181D02*
X-1023810Y8866181D01*
X-1023810Y8866181D02*
X-833334Y9580467D01*
X-833334Y9580467D02*
X-642858Y8866181D01*
X-642858Y8866181D02*
X-404762Y9866181D01*
X404761Y8866181D02*
X404761Y9389991D01*
X404761Y9389991D02*
X357142Y9485229D01*
X357142Y9485229D02*
X261904Y9532848D01*
X261904Y9532848D02*
X71428Y9532848D01*
X71428Y9532848D02*
X-23810Y9485229D01*
X404761Y8913800D02*
X309523Y8866181D01*
X309523Y8866181D02*
X71428Y8866181D01*
X71428Y8866181D02*
X-23810Y8913800D01*
X-23810Y8913800D02*
X-71429Y9009039D01*
X-71429Y9009039D02*
X-71429Y9104277D01*
X-71429Y9104277D02*
X-23810Y9199515D01*
X-23810Y9199515D02*
X71428Y9247134D01*
X71428Y9247134D02*
X309523Y9247134D01*
X309523Y9247134D02*
X404761Y9294753D01*
X785714Y9532848D02*
X1023809Y8866181D01*
X1261904Y9532848D02*
X1023809Y8866181D01*
X1023809Y8866181D02*
X928571Y8628086D01*
X928571Y8628086D02*
X880952Y8580467D01*
X880952Y8580467D02*
X785714Y8532848D01*
X1547619Y9866181D02*
X1785714Y8866181D01*
X1785714Y8866181D02*
X1976190Y9580467D01*
X1976190Y9580467D02*
X2166666Y8866181D01*
X2166666Y8866181D02*
X2404762Y9866181D01*
X3214285Y8866181D02*
X3214285Y9389991D01*
X3214285Y9389991D02*
X3166666Y9485229D01*
X3166666Y9485229D02*
X3071428Y9532848D01*
X3071428Y9532848D02*
X2880952Y9532848D01*
X2880952Y9532848D02*
X2785714Y9485229D01*
X3214285Y8913800D02*
X3119047Y8866181D01*
X3119047Y8866181D02*
X2880952Y8866181D01*
X2880952Y8866181D02*
X2785714Y8913800D01*
X2785714Y8913800D02*
X2738095Y9009039D01*
X2738095Y9009039D02*
X2738095Y9104277D01*
X2738095Y9104277D02*
X2785714Y9199515D01*
X2785714Y9199515D02*
X2880952Y9247134D01*
X2880952Y9247134D02*
X3119047Y9247134D01*
X3119047Y9247134D02*
X3214285Y9294753D01*
X3595238Y9532848D02*
X3833333Y8866181D01*
X4071428Y9532848D02*
X3833333Y8866181D01*
X3833333Y8866181D02*
X3738095Y8628086D01*
X3738095Y8628086D02*
X3690476Y8580467D01*
X3690476Y8580467D02*
X3595238Y8532848D01*
X11591982Y8756277D02*
X11925315Y8756277D01*
X11525315Y8527705D02*
X11758649Y9327705D01*
X11758649Y9327705D02*
X11991982Y8527705D01*
X12225315Y8527705D02*
X12225315Y9327705D01*
X12225315Y9327705D02*
X12391982Y9327705D01*
X12391982Y9327705D02*
X12491982Y9289610D01*
X12491982Y9289610D02*
X12558649Y9213420D01*
X12558649Y9213420D02*
X12591982Y9137229D01*
X12591982Y9137229D02*
X12625315Y8984848D01*
X12625315Y8984848D02*
X12625315Y8870562D01*
X12625315Y8870562D02*
X12591982Y8718181D01*
X12591982Y8718181D02*
X12558649Y8641991D01*
X12558649Y8641991D02*
X12491982Y8565800D01*
X12491982Y8565800D02*
X12391982Y8527705D01*
X12391982Y8527705D02*
X12225315Y8527705D01*
X13325315Y8603896D02*
X13291982Y8565800D01*
X13291982Y8565800D02*
X13191982Y8527705D01*
X13191982Y8527705D02*
X13125315Y8527705D01*
X13125315Y8527705D02*
X13025315Y8565800D01*
X13025315Y8565800D02*
X12958649Y8641991D01*
X12958649Y8641991D02*
X12925315Y8718181D01*
X12925315Y8718181D02*
X12891982Y8870562D01*
X12891982Y8870562D02*
X12891982Y8984848D01*
X12891982Y8984848D02*
X12925315Y9137229D01*
X12925315Y9137229D02*
X12958649Y9213420D01*
X12958649Y9213420D02*
X13025315Y9289610D01*
X13025315Y9289610D02*
X13125315Y9327705D01*
X13125315Y9327705D02*
X13191982Y9327705D01*
X13191982Y9327705D02*
X13291982Y9289610D01*
X13291982Y9289610D02*
X13325315Y9251515D01*
X13591982Y9251515D02*
X13625315Y9289610D01*
X13625315Y9289610D02*
X13691982Y9327705D01*
X13691982Y9327705D02*
X13858649Y9327705D01*
X13858649Y9327705D02*
X13925315Y9289610D01*
X13925315Y9289610D02*
X13958649Y9251515D01*
X13958649Y9251515D02*
X13991982Y9175324D01*
X13991982Y9175324D02*
X13991982Y9099134D01*
X13991982Y9099134D02*
X13958649Y8984848D01*
X13958649Y8984848D02*
X13558649Y8527705D01*
X13558649Y8527705D02*
X13991982Y8527705D01*
X11658649Y11296277D02*
X11991982Y11296277D01*
X11591982Y11067705D02*
X11825316Y11867705D01*
X11825316Y11867705D02*
X12058649Y11067705D01*
X12291982Y11067705D02*
X12291982Y11867705D01*
X12291982Y11867705D02*
X12458649Y11867705D01*
X12458649Y11867705D02*
X12558649Y11829610D01*
X12558649Y11829610D02*
X12625316Y11753420D01*
X12625316Y11753420D02*
X12658649Y11677229D01*
X12658649Y11677229D02*
X12691982Y11524848D01*
X12691982Y11524848D02*
X12691982Y11410562D01*
X12691982Y11410562D02*
X12658649Y11258181D01*
X12658649Y11258181D02*
X12625316Y11181991D01*
X12625316Y11181991D02*
X12558649Y11105800D01*
X12558649Y11105800D02*
X12458649Y11067705D01*
X12458649Y11067705D02*
X12291982Y11067705D01*
X13391982Y11143896D02*
X13358649Y11105800D01*
X13358649Y11105800D02*
X13258649Y11067705D01*
X13258649Y11067705D02*
X13191982Y11067705D01*
X13191982Y11067705D02*
X13091982Y11105800D01*
X13091982Y11105800D02*
X13025316Y11181991D01*
X13025316Y11181991D02*
X12991982Y11258181D01*
X12991982Y11258181D02*
X12958649Y11410562D01*
X12958649Y11410562D02*
X12958649Y11524848D01*
X12958649Y11524848D02*
X12991982Y11677229D01*
X12991982Y11677229D02*
X13025316Y11753420D01*
X13025316Y11753420D02*
X13091982Y11829610D01*
X13091982Y11829610D02*
X13191982Y11867705D01*
X13191982Y11867705D02*
X13258649Y11867705D01*
X13258649Y11867705D02*
X13358649Y11829610D01*
X13358649Y11829610D02*
X13391982Y11791515D01*
X13591982Y11867705D02*
X13825316Y11067705D01*
X13825316Y11067705D02*
X14058649Y11867705D01*
X11891982Y-21952295D02*
X11891982Y-21152295D01*
X12358649Y-21152295D02*
X12491982Y-21152295D01*
X12491982Y-21152295D02*
X12558649Y-21190390D01*
X12558649Y-21190390D02*
X12625315Y-21266580D01*
X12625315Y-21266580D02*
X12658649Y-21418961D01*
X12658649Y-21418961D02*
X12658649Y-21685628D01*
X12658649Y-21685628D02*
X12625315Y-21838009D01*
X12625315Y-21838009D02*
X12558649Y-21914200D01*
X12558649Y-21914200D02*
X12491982Y-21952295D01*
X12491982Y-21952295D02*
X12358649Y-21952295D01*
X12358649Y-21952295D02*
X12291982Y-21914200D01*
X12291982Y-21914200D02*
X12225315Y-21838009D01*
X12225315Y-21838009D02*
X12191982Y-21685628D01*
X12191982Y-21685628D02*
X12191982Y-21418961D01*
X12191982Y-21418961D02*
X12225315Y-21266580D01*
X12225315Y-21266580D02*
X12291982Y-21190390D01*
X12291982Y-21190390D02*
X12358649Y-21152295D01*
X13325315Y-21952295D02*
X12925315Y-21952295D01*
X13125315Y-21952295D02*
X13125315Y-21152295D01*
X13125315Y-21152295D02*
X13058648Y-21266580D01*
X13058648Y-21266580D02*
X12991982Y-21342771D01*
X12991982Y-21342771D02*
X12925315Y-21380866D01*
X13558649Y-21152295D02*
X14025315Y-21152295D01*
X14025315Y-21152295D02*
X13725315Y-21952295D01*
X-13349351Y21227705D02*
X-13349351Y22027705D01*
X-12882684Y22027705D02*
X-12749351Y22027705D01*
X-12749351Y22027705D02*
X-12682684Y21989610D01*
X-12682684Y21989610D02*
X-12616018Y21913420D01*
X-12616018Y21913420D02*
X-12582684Y21761039D01*
X-12582684Y21761039D02*
X-12582684Y21494372D01*
X-12582684Y21494372D02*
X-12616018Y21341991D01*
X-12616018Y21341991D02*
X-12682684Y21265800D01*
X-12682684Y21265800D02*
X-12749351Y21227705D01*
X-12749351Y21227705D02*
X-12882684Y21227705D01*
X-12882684Y21227705D02*
X-12949351Y21265800D01*
X-12949351Y21265800D02*
X-13016018Y21341991D01*
X-13016018Y21341991D02*
X-13049351Y21494372D01*
X-13049351Y21494372D02*
X-13049351Y21761039D01*
X-13049351Y21761039D02*
X-13016018Y21913420D01*
X-13016018Y21913420D02*
X-12949351Y21989610D01*
X-12949351Y21989610D02*
X-12882684Y22027705D01*
X-11916018Y21227705D02*
X-12316018Y21227705D01*
X-12116018Y21227705D02*
X-12116018Y22027705D01*
X-12116018Y22027705D02*
X-12182685Y21913420D01*
X-12182685Y21913420D02*
X-12249351Y21837229D01*
X-12249351Y21837229D02*
X-12316018Y21799134D01*
X12525316Y19449610D02*
X12458649Y19487705D01*
X12458649Y19487705D02*
X12358649Y19487705D01*
X12358649Y19487705D02*
X12258649Y19449610D01*
X12258649Y19449610D02*
X12191983Y19373420D01*
X12191983Y19373420D02*
X12158649Y19297229D01*
X12158649Y19297229D02*
X12125316Y19144848D01*
X12125316Y19144848D02*
X12125316Y19030562D01*
X12125316Y19030562D02*
X12158649Y18878181D01*
X12158649Y18878181D02*
X12191983Y18801991D01*
X12191983Y18801991D02*
X12258649Y18725800D01*
X12258649Y18725800D02*
X12358649Y18687705D01*
X12358649Y18687705D02*
X12425316Y18687705D01*
X12425316Y18687705D02*
X12525316Y18725800D01*
X12525316Y18725800D02*
X12558649Y18763896D01*
X12558649Y18763896D02*
X12558649Y19030562D01*
X12558649Y19030562D02*
X12425316Y19030562D01*
X12858649Y18687705D02*
X12858649Y19487705D01*
X12858649Y19487705D02*
X13258649Y18687705D01*
X13258649Y18687705D02*
X13258649Y19487705D01*
X13591982Y18687705D02*
X13591982Y19487705D01*
X13591982Y19487705D02*
X13758649Y19487705D01*
X13758649Y19487705D02*
X13858649Y19449610D01*
X13858649Y19449610D02*
X13925316Y19373420D01*
X13925316Y19373420D02*
X13958649Y19297229D01*
X13958649Y19297229D02*
X13991982Y19144848D01*
X13991982Y19144848D02*
X13991982Y19030562D01*
X13991982Y19030562D02*
X13958649Y18878181D01*
X13958649Y18878181D02*
X13925316Y18801991D01*
X13925316Y18801991D02*
X13858649Y18725800D01*
X13858649Y18725800D02*
X13758649Y18687705D01*
X13758649Y18687705D02*
X13591982Y18687705D01*
X-13349351Y-4172295D02*
X-13349351Y-3372295D01*
X-12882684Y-3372295D02*
X-12749351Y-3372295D01*
X-12749351Y-3372295D02*
X-12682684Y-3410390D01*
X-12682684Y-3410390D02*
X-12616018Y-3486580D01*
X-12616018Y-3486580D02*
X-12582684Y-3638961D01*
X-12582684Y-3638961D02*
X-12582684Y-3905628D01*
X-12582684Y-3905628D02*
X-12616018Y-4058009D01*
X-12616018Y-4058009D02*
X-12682684Y-4134200D01*
X-12682684Y-4134200D02*
X-12749351Y-4172295D01*
X-12749351Y-4172295D02*
X-12882684Y-4172295D01*
X-12882684Y-4172295D02*
X-12949351Y-4134200D01*
X-12949351Y-4134200D02*
X-13016018Y-4058009D01*
X-13016018Y-4058009D02*
X-13049351Y-3905628D01*
X-13049351Y-3905628D02*
X-13049351Y-3638961D01*
X-13049351Y-3638961D02*
X-13016018Y-3486580D01*
X-13016018Y-3486580D02*
X-12949351Y-3410390D01*
X-12949351Y-3410390D02*
X-12882684Y-3372295D01*
X-12249351Y-4172295D02*
X-12116018Y-4172295D01*
X-12116018Y-4172295D02*
X-12049351Y-4134200D01*
X-12049351Y-4134200D02*
X-12016018Y-4096104D01*
X-12016018Y-4096104D02*
X-11949351Y-3981819D01*
X-11949351Y-3981819D02*
X-11916018Y-3829438D01*
X-11916018Y-3829438D02*
X-11916018Y-3524676D01*
X-11916018Y-3524676D02*
X-11949351Y-3448485D01*
X-11949351Y-3448485D02*
X-11982685Y-3410390D01*
X-11982685Y-3410390D02*
X-12049351Y-3372295D01*
X-12049351Y-3372295D02*
X-12182685Y-3372295D01*
X-12182685Y-3372295D02*
X-12249351Y-3410390D01*
X-12249351Y-3410390D02*
X-12282685Y-3448485D01*
X-12282685Y-3448485D02*
X-12316018Y-3524676D01*
X-12316018Y-3524676D02*
X-12316018Y-3715152D01*
X-12316018Y-3715152D02*
X-12282685Y-3791342D01*
X-12282685Y-3791342D02*
X-12249351Y-3829438D01*
X-12249351Y-3829438D02*
X-12182685Y-3867533D01*
X-12182685Y-3867533D02*
X-12049351Y-3867533D01*
X-12049351Y-3867533D02*
X-11982685Y-3829438D01*
X-11982685Y-3829438D02*
X-11949351Y-3791342D01*
X-11949351Y-3791342D02*
X-11916018Y-3715152D01*
X11891982Y-11792295D02*
X11891982Y-10992295D01*
X12358649Y-10992295D02*
X12491982Y-10992295D01*
X12491982Y-10992295D02*
X12558649Y-11030390D01*
X12558649Y-11030390D02*
X12625315Y-11106580D01*
X12625315Y-11106580D02*
X12658649Y-11258961D01*
X12658649Y-11258961D02*
X12658649Y-11525628D01*
X12658649Y-11525628D02*
X12625315Y-11678009D01*
X12625315Y-11678009D02*
X12558649Y-11754200D01*
X12558649Y-11754200D02*
X12491982Y-11792295D01*
X12491982Y-11792295D02*
X12358649Y-11792295D01*
X12358649Y-11792295D02*
X12291982Y-11754200D01*
X12291982Y-11754200D02*
X12225315Y-11678009D01*
X12225315Y-11678009D02*
X12191982Y-11525628D01*
X12191982Y-11525628D02*
X12191982Y-11258961D01*
X12191982Y-11258961D02*
X12225315Y-11106580D01*
X12225315Y-11106580D02*
X12291982Y-11030390D01*
X12291982Y-11030390D02*
X12358649Y-10992295D01*
X12925315Y-11068485D02*
X12958648Y-11030390D01*
X12958648Y-11030390D02*
X13025315Y-10992295D01*
X13025315Y-10992295D02*
X13191982Y-10992295D01*
X13191982Y-10992295D02*
X13258648Y-11030390D01*
X13258648Y-11030390D02*
X13291982Y-11068485D01*
X13291982Y-11068485D02*
X13325315Y-11144676D01*
X13325315Y-11144676D02*
X13325315Y-11220866D01*
X13325315Y-11220866D02*
X13291982Y-11335152D01*
X13291982Y-11335152D02*
X12891982Y-11792295D01*
X12891982Y-11792295D02*
X13325315Y-11792295D01*
X13758649Y-10992295D02*
X13825315Y-10992295D01*
X13825315Y-10992295D02*
X13891982Y-11030390D01*
X13891982Y-11030390D02*
X13925315Y-11068485D01*
X13925315Y-11068485D02*
X13958649Y-11144676D01*
X13958649Y-11144676D02*
X13991982Y-11297057D01*
X13991982Y-11297057D02*
X13991982Y-11487533D01*
X13991982Y-11487533D02*
X13958649Y-11639914D01*
X13958649Y-11639914D02*
X13925315Y-11716104D01*
X13925315Y-11716104D02*
X13891982Y-11754200D01*
X13891982Y-11754200D02*
X13825315Y-11792295D01*
X13825315Y-11792295D02*
X13758649Y-11792295D01*
X13758649Y-11792295D02*
X13691982Y-11754200D01*
X13691982Y-11754200D02*
X13658649Y-11716104D01*
X13658649Y-11716104D02*
X13625315Y-11639914D01*
X13625315Y-11639914D02*
X13591982Y-11487533D01*
X13591982Y-11487533D02*
X13591982Y-11297057D01*
X13591982Y-11297057D02*
X13625315Y-11144676D01*
X13625315Y-11144676D02*
X13658649Y-11068485D01*
X13658649Y-11068485D02*
X13691982Y-11030390D01*
X13691982Y-11030390D02*
X13758649Y-10992295D01*
D12*
%TO.C,U1*%
X-10610000Y23070000D02*
X-11090000Y23070000D01*
X-10610000Y23070000D02*
X-10610000Y22650000D01*
X-10610000Y20530000D02*
X-10610000Y20110000D01*
X-10610000Y17990000D02*
X-10610000Y17570000D01*
X-10610000Y15450000D02*
X-10610000Y15030000D01*
X-10610000Y12910000D02*
X-10610000Y12490000D01*
X-10610000Y10370000D02*
X-10610000Y9950000D01*
X-10610000Y7830000D02*
X-10610000Y7410000D01*
X-10610000Y5290000D02*
X-10610000Y4870000D01*
X-10610000Y2750000D02*
X-10610000Y2330000D01*
X-10610000Y210000D02*
X-10610000Y-210000D01*
X-10610000Y-2330000D02*
X-10610000Y-2750000D01*
X-10610000Y-4870000D02*
X-10610000Y-5290000D01*
X-10610000Y-7410000D02*
X-10610000Y-7830000D01*
X-10610000Y-9950000D02*
X-10610000Y-10370000D01*
X-10610000Y-12490000D02*
X-10610000Y-12910000D01*
X-10610000Y-15030000D02*
X-10610000Y-15450000D01*
X-10610000Y-17570000D02*
X-10610000Y-17990000D01*
X-10610000Y-20110000D02*
X-10610000Y-20530000D01*
X-10610000Y-22650000D02*
X-10610000Y-23070000D01*
X-10579676Y25189937D02*
X-11090000Y25190000D01*
X-10000000Y25610000D02*
X-7510000Y25610000D01*
X-10000000Y25610000D02*
X-7510000Y25610000D01*
X-10000000Y-25610000D02*
X-6162061Y-25610000D01*
X-7510000Y25610000D02*
X-7510000Y24696480D01*
X-7510000Y25610000D02*
X-6162060Y25610000D01*
X-7510000Y22303520D02*
X-7510000Y-22303520D01*
X-7510000Y-24696480D02*
X-7510000Y-25610000D01*
X-5237939Y25610000D02*
X-4235000Y25610000D01*
X-3600000Y-25610000D02*
X-5237939Y-25610000D01*
X-1480000Y-25610000D02*
X-1060000Y-25610000D01*
X1060000Y-25610000D02*
X1480000Y-25610000D01*
X4235000Y25610000D02*
X5237939Y25610000D01*
X5237939Y-25610000D02*
X3600000Y-25610000D01*
X6162061Y25610000D02*
X7510000Y25610000D01*
X6162061Y-25610000D02*
X10000000Y-25610000D01*
X7510000Y25610000D02*
X7510000Y24696480D01*
X7510000Y22303520D02*
X7510000Y-22303520D01*
X7510000Y-24696480D02*
X7510000Y-25610000D01*
X10000000Y25610000D02*
X7510000Y25610000D01*
X10000000Y25610000D02*
X7510000Y25610000D01*
X10610000Y23070000D02*
X10610000Y22650000D01*
X10610000Y20530000D02*
X10610000Y20110000D01*
X10610000Y17990000D02*
X10610000Y17570000D01*
X10610000Y15450000D02*
X10610000Y15030000D01*
X10610000Y12910000D02*
X10610000Y12490000D01*
X10610000Y10370000D02*
X10610000Y9950000D01*
X10610000Y7830000D02*
X10610000Y7410000D01*
X10610000Y5290000D02*
X10610000Y4870000D01*
X10610000Y2750000D02*
X10610000Y2330000D01*
X10610000Y210000D02*
X10610000Y-210000D01*
X10610000Y-2330000D02*
X10610000Y-2750000D01*
X10610000Y-4870000D02*
X10610000Y-5290000D01*
X10610000Y-7410000D02*
X10610000Y-7830000D01*
X10610000Y-9950000D02*
X10610000Y-10370000D01*
X10610000Y-12490000D02*
X10610000Y-12910000D01*
X10610000Y-15030000D02*
X10610000Y-15450000D01*
X10610000Y-17570000D02*
X10610000Y-17990000D01*
X10610000Y-20110000D02*
X10610000Y-20530000D01*
X10610000Y-22650000D02*
X10610000Y-23070000D01*
X-10000000Y25610000D02*
G75*
G03*
X-10579676Y25189937I0J-610000D01*
G01*
X-10579676Y-25189937D02*
G75*
G03*
X-10000000Y-25610000I579677J189939D01*
G01*
X10579676Y25189937D02*
G75*
G03*
X10000000Y25610000I-579676J-189937D01*
G01*
X10000000Y-25609947D02*
G75*
G03*
X10579675Y-25189937I200J609747D01*
G01*
%TO.C,G\u002A\u002A\u002A*%
G36*
X-15559863Y23804205D02*
G01*
X-15542459Y23778231D01*
X-15540416Y23743044D01*
X-15545923Y23695825D01*
X-15571896Y23678420D01*
X-15607083Y23676378D01*
X-15654303Y23681884D01*
X-15671707Y23707858D01*
X-15673749Y23743044D01*
X-15668243Y23790264D01*
X-15642269Y23807669D01*
X-15607083Y23809711D01*
X-15559863Y23804205D01*
G37*
G36*
X-16092765Y23961229D02*
G01*
X-16076469Y23939915D01*
X-16077897Y23893044D01*
X-16092217Y23837678D01*
X-16125072Y23815231D01*
X-16130220Y23814329D01*
X-16174376Y23815816D01*
X-16191331Y23823589D01*
X-16202887Y23855433D01*
X-16207083Y23902304D01*
X-16201302Y23946677D01*
X-16174662Y23963269D01*
X-16139008Y23965267D01*
X-16092765Y23961229D01*
G37*
G36*
X-16143987Y23613206D02*
G01*
X-16038337Y23596348D01*
X-15895950Y23567809D01*
X-15851527Y23558296D01*
X-15722134Y23529989D01*
X-15629959Y23508412D01*
X-15568713Y23491223D01*
X-15532104Y23476082D01*
X-15513842Y23460646D01*
X-15507636Y23442576D01*
X-15507083Y23430102D01*
X-15511187Y23398039D01*
X-15531039Y23381565D01*
X-15577949Y23374904D01*
X-15618194Y23373362D01*
X-15695964Y23373420D01*
X-15763838Y23377056D01*
X-15784861Y23379629D01*
X-15955075Y23409865D01*
X-16085405Y23437598D01*
X-16180223Y23464415D01*
X-16243901Y23491907D01*
X-16280812Y23521662D01*
X-16295325Y23555268D01*
X-16295972Y23565356D01*
X-16288892Y23594457D01*
X-16264426Y23612183D01*
X-16217737Y23618459D01*
X-16143987Y23613206D01*
G37*
G36*
X-18462638Y24930166D02*
G01*
X-18314103Y24928614D01*
X-18203123Y24925162D01*
X-18122830Y24919235D01*
X-18066354Y24910260D01*
X-18026826Y24897662D01*
X-18016860Y24892889D01*
X-17963344Y24870881D01*
X-17881832Y24844077D01*
X-17787692Y24817427D01*
X-17762851Y24811086D01*
X-17572660Y24749943D01*
X-17414369Y24670025D01*
X-17318194Y24597725D01*
X-17253276Y24549211D01*
X-17184719Y24523670D01*
X-17103444Y24520639D01*
X-17000369Y24539654D01*
X-16880990Y24575388D01*
X-16756208Y24615915D01*
X-16651987Y24646816D01*
X-16559158Y24669226D01*
X-16468550Y24684278D01*
X-16370995Y24693107D01*
X-16257324Y24696845D01*
X-16118367Y24696628D01*
X-15944957Y24693589D01*
X-15928049Y24693230D01*
X-15763261Y24689293D01*
X-15635719Y24684952D01*
X-15538222Y24679523D01*
X-15463572Y24672320D01*
X-15404572Y24662657D01*
X-15354021Y24649849D01*
X-15307083Y24634074D01*
X-15220554Y24603088D01*
X-15112634Y24565352D01*
X-15004112Y24528123D01*
X-14984861Y24521611D01*
X-14835165Y24469197D01*
X-14721046Y24424074D01*
X-14635045Y24382424D01*
X-14569707Y24340430D01*
X-14517572Y24294276D01*
X-14497187Y24272005D01*
X-14426340Y24183508D01*
X-14362745Y24091795D01*
X-14312406Y24006738D01*
X-14281328Y23938210D01*
X-14274251Y23905467D01*
X-14264750Y23860619D01*
X-14251527Y23843044D01*
X-14238595Y23814547D01*
X-14230582Y23757407D01*
X-14229305Y23720265D01*
X-14221513Y23636693D01*
X-14201967Y23557330D01*
X-14192912Y23534901D01*
X-14156518Y23458583D01*
X-13849749Y23470728D01*
X-13692766Y23474695D01*
X-13569149Y23471336D01*
X-13468157Y23458806D01*
X-13379052Y23435265D01*
X-13291093Y23398868D01*
X-13220881Y23362821D01*
X-13106329Y23289265D01*
X-12998734Y23194184D01*
X-12888092Y23068457D01*
X-12862638Y23036152D01*
X-12807091Y22965670D01*
X-12754472Y22900833D01*
X-12723749Y22864455D01*
X-12683249Y22807190D01*
X-12678096Y22759555D01*
X-12705287Y22708409D01*
X-12731044Y22681232D01*
X-12761858Y22678144D01*
X-12810843Y22694843D01*
X-12887524Y22722940D01*
X-12962638Y22747148D01*
X-13022724Y22768635D01*
X-13065915Y22790830D01*
X-13068731Y22792966D01*
X-13100159Y22806141D01*
X-13110625Y22802465D01*
X-13106366Y22779794D01*
X-13079526Y22742970D01*
X-13042415Y22705367D01*
X-13007343Y22680362D01*
X-12994926Y22676762D01*
X-12967307Y22661760D01*
X-12921905Y22623761D01*
X-12890167Y22592924D01*
X-12843196Y22541658D01*
X-12823797Y22507051D01*
X-12826693Y22475823D01*
X-12835657Y22455716D01*
X-12882549Y22409893D01*
X-12969150Y22376349D01*
X-13092280Y22355715D01*
X-13248758Y22348619D01*
X-13362638Y22351365D01*
X-13516113Y22360023D01*
X-13635879Y22371249D01*
X-13732673Y22387315D01*
X-13817230Y22410496D01*
X-13900286Y22443066D01*
X-13983972Y22482960D01*
X-14012407Y22494174D01*
X-14037895Y22491367D01*
X-14068716Y22469096D01*
X-14113148Y22421914D01*
X-14160346Y22366951D01*
X-14231425Y22276395D01*
X-14302738Y22174548D01*
X-14359325Y22082824D01*
X-14361235Y22079370D01*
X-14410283Y21994628D01*
X-14446477Y21945750D01*
X-14475195Y21928066D01*
X-14501817Y21936906D01*
X-14513472Y21947211D01*
X-14537333Y21992210D01*
X-14540416Y22013522D01*
X-14527254Y22075908D01*
X-14491864Y22160740D01*
X-14440392Y22256252D01*
X-14378981Y22350681D01*
X-14333476Y22409711D01*
X-14231032Y22531933D01*
X-14291280Y22558468D01*
X-14341902Y22579272D01*
X-14419845Y22609707D01*
X-14510642Y22644272D01*
X-14599825Y22677468D01*
X-14672926Y22703792D01*
X-14679809Y22706186D01*
X-14721777Y22737113D01*
X-14735870Y22781073D01*
X-14720472Y22816322D01*
X-14718248Y22826356D01*
X-14483902Y22826356D01*
X-14466409Y22812827D01*
X-14440416Y22800750D01*
X-14389998Y22783304D01*
X-14362616Y22782092D01*
X-14365786Y22795770D01*
X-14385504Y22810579D01*
X-14435384Y22828021D01*
X-14462638Y22830591D01*
X-14483902Y22826356D01*
X-14718248Y22826356D01*
X-14716942Y22832249D01*
X-14744771Y22846727D01*
X-14809370Y22862022D01*
X-14845299Y22868629D01*
X-14958108Y22887557D01*
X-15030406Y22896402D01*
X-15065242Y22893897D01*
X-15065667Y22878774D01*
X-15034730Y22849765D01*
X-14983319Y22811262D01*
X-14885662Y22740119D01*
X-14818459Y22688778D01*
X-14776021Y22651172D01*
X-14752664Y22621233D01*
X-14742700Y22592892D01*
X-14740443Y22560082D01*
X-14740416Y22552061D01*
X-14748811Y22497352D01*
X-14771251Y22416124D01*
X-14803623Y22322419D01*
X-14819677Y22281529D01*
X-14855803Y22192158D01*
X-14886226Y22115189D01*
X-14906425Y22062136D01*
X-14911221Y22048357D01*
X-14941899Y22012993D01*
X-14993567Y21992181D01*
X-15043204Y21994288D01*
X-15050264Y21997819D01*
X-15067325Y22016971D01*
X-15070827Y22049734D01*
X-15059283Y22102349D01*
X-15031205Y22181058D01*
X-14985104Y22292104D01*
X-14973936Y22317945D01*
X-14927461Y22428676D01*
X-14899905Y22505341D01*
X-14890245Y22553592D01*
X-14897455Y22579079D01*
X-14920512Y22587455D01*
X-14925061Y22587584D01*
X-14963222Y22600974D01*
X-15023299Y22636287D01*
X-15096226Y22686500D01*
X-15172939Y22744592D01*
X-15244374Y22803539D01*
X-15301466Y22856319D01*
X-15335150Y22895908D01*
X-15340416Y22909381D01*
X-15361411Y22922370D01*
X-15419911Y22938181D01*
X-15509193Y22955280D01*
X-15605668Y22969872D01*
X-15951428Y23036712D01*
X-16289238Y23140237D01*
X-16395972Y23181672D01*
X-16523680Y23232520D01*
X-16649895Y23279999D01*
X-16767727Y23321814D01*
X-16870282Y23355666D01*
X-16950671Y23379258D01*
X-17002002Y23390294D01*
X-17017367Y23388827D01*
X-17043899Y23377145D01*
X-17102131Y23364833D01*
X-17179217Y23354584D01*
X-17284030Y23341747D01*
X-17395689Y23324726D01*
X-17462638Y23312549D01*
X-17595972Y23285726D01*
X-17602153Y22981318D01*
X-17604866Y22859841D01*
X-17608127Y22775559D01*
X-17613301Y22721230D01*
X-17621750Y22689612D01*
X-17634838Y22673463D01*
X-17653929Y22665540D01*
X-17662001Y22663441D01*
X-17711176Y22657790D01*
X-17736637Y22662931D01*
X-17743233Y22688536D01*
X-17747102Y22749250D01*
X-17748501Y22835838D01*
X-17747684Y22939066D01*
X-17744909Y23049699D01*
X-17740430Y23158502D01*
X-17734504Y23256240D01*
X-17727386Y23333678D01*
X-17719333Y23381581D01*
X-17716516Y23389328D01*
X-17683487Y23412807D01*
X-17607769Y23436993D01*
X-17488516Y23462154D01*
X-17480512Y23463601D01*
X-17385905Y23480698D01*
X-17307376Y23495111D01*
X-17255464Y23504894D01*
X-17241205Y23507795D01*
X-17247968Y23519070D01*
X-17286575Y23543575D01*
X-17344978Y23574147D01*
X-17424719Y23609045D01*
X-17477666Y23620977D01*
X-17510856Y23613803D01*
X-17548865Y23600606D01*
X-17619412Y23582016D01*
X-17711347Y23560814D01*
X-17784861Y23545427D01*
X-17994094Y23503146D01*
X-18162555Y23468310D01*
X-18293170Y23440253D01*
X-18388863Y23418307D01*
X-18452560Y23401807D01*
X-18487186Y23390085D01*
X-18495948Y23383410D01*
X-18485088Y23357699D01*
X-18456982Y23306955D01*
X-18428095Y23259029D01*
X-18388038Y23187447D01*
X-18369157Y23126569D01*
X-18365596Y23053369D01*
X-18366984Y23018663D01*
X-18372153Y22945429D01*
X-18381300Y22906145D01*
X-18399385Y22890328D01*
X-18429030Y22887489D01*
X-18463198Y22892552D01*
X-18482845Y22915287D01*
X-18495435Y22967014D01*
X-18499627Y22994555D01*
X-18531299Y23102587D01*
X-18595466Y23224913D01*
X-18605457Y23240549D01*
X-18667256Y23350314D01*
X-18693151Y23434681D01*
X-18683099Y23493412D01*
X-18655622Y23518631D01*
X-18618631Y23531539D01*
X-18546563Y23551180D01*
X-18447931Y23575608D01*
X-18331249Y23602877D01*
X-18205028Y23631039D01*
X-18077780Y23658148D01*
X-17958019Y23682257D01*
X-17862638Y23699963D01*
X-17763271Y23717830D01*
X-17702359Y23732299D01*
X-17674629Y23747898D01*
X-17674802Y23769152D01*
X-17697605Y23800589D01*
X-17718033Y23824035D01*
X-17768805Y23900445D01*
X-17780130Y23953074D01*
X-17602887Y23953074D01*
X-17584324Y23912923D01*
X-17534861Y23868703D01*
X-17474345Y23829559D01*
X-17382496Y23777961D01*
X-17268975Y23718625D01*
X-17143443Y23656265D01*
X-17015559Y23595598D01*
X-16894987Y23541338D01*
X-16791385Y23498201D01*
X-16729481Y23475606D01*
X-16629322Y23440700D01*
X-16525239Y23401132D01*
X-16452146Y23370795D01*
X-16363818Y23335822D01*
X-16257810Y23299563D01*
X-16174192Y23274686D01*
X-16076605Y23248373D01*
X-15958381Y23216597D01*
X-15841825Y23185351D01*
X-15818194Y23179029D01*
X-15725172Y23157500D01*
X-15601159Y23133559D01*
X-15459357Y23109515D01*
X-15312969Y23087673D01*
X-15240416Y23078076D01*
X-15110672Y23061111D01*
X-14991950Y23044362D01*
X-14893170Y23029180D01*
X-14823252Y23016919D01*
X-14795972Y23010711D01*
X-14736977Y22998431D01*
X-14654631Y22987596D01*
X-14591898Y22982287D01*
X-14514784Y22979293D01*
X-14471129Y22983927D01*
X-14450269Y22998473D01*
X-14443978Y23013956D01*
X-14416850Y23045872D01*
X-14370466Y23053950D01*
X-14322837Y23038567D01*
X-14296590Y23010867D01*
X-14268836Y22982438D01*
X-14216650Y22966685D01*
X-14156919Y22960867D01*
X-14088869Y22955119D01*
X-14054181Y22944115D01*
X-14041777Y22921935D01*
X-14040416Y22898600D01*
X-14048456Y22858540D01*
X-14081079Y22838562D01*
X-14114335Y22831933D01*
X-14188254Y22820822D01*
X-14125446Y22762657D01*
X-13980045Y22655513D01*
X-13806391Y22573723D01*
X-13615906Y22522610D01*
X-13607083Y22521110D01*
X-13525731Y22511456D01*
X-13425746Y22505019D01*
X-13320901Y22502055D01*
X-13224971Y22502823D01*
X-13151728Y22507579D01*
X-13125625Y22512116D01*
X-13105951Y22521059D01*
X-13105042Y22537020D01*
X-13126955Y22565992D01*
X-13175747Y22613969D01*
X-13225625Y22659849D01*
X-13302017Y22726782D01*
X-13375627Y22786861D01*
X-13433772Y22829865D01*
X-13447139Y22838409D01*
X-13499936Y22880432D01*
X-13514388Y22923595D01*
X-13513806Y22929262D01*
X-13506223Y22954048D01*
X-13485665Y22968223D01*
X-13442123Y22974692D01*
X-13365586Y22976362D01*
X-13351527Y22976378D01*
X-13251683Y22973851D01*
X-13150821Y22967294D01*
X-13084861Y22959986D01*
X-12973749Y22943594D01*
X-13106946Y23068684D01*
X-13226088Y23173290D01*
X-13334475Y23248988D01*
X-13442649Y23299314D01*
X-13561150Y23327805D01*
X-13700519Y23337997D01*
X-13871297Y23333426D01*
X-13892332Y23332181D01*
X-13996929Y23324106D01*
X-14086156Y23314167D01*
X-14150088Y23303669D01*
X-14178082Y23294597D01*
X-14228806Y23276084D01*
X-14278977Y23289765D01*
X-14310836Y23329309D01*
X-14313928Y23343044D01*
X-14328270Y23403156D01*
X-14352817Y23468625D01*
X-14373051Y23536015D01*
X-14384141Y23618001D01*
X-14384861Y23641149D01*
X-14389260Y23712027D01*
X-14400316Y23768678D01*
X-14405741Y23782235D01*
X-14426979Y23834972D01*
X-14438271Y23876378D01*
X-14455764Y23924853D01*
X-14489277Y23994024D01*
X-14522947Y24054156D01*
X-14569353Y24120910D01*
X-14625419Y24176750D01*
X-14698613Y24226291D01*
X-14796401Y24274148D01*
X-14926249Y24324935D01*
X-15007083Y24353405D01*
X-15096784Y24385564D01*
X-15178555Y24417186D01*
X-15236185Y24441970D01*
X-15240556Y24444110D01*
X-15323957Y24480485D01*
X-15415366Y24508391D01*
X-15522515Y24529074D01*
X-15653135Y24543778D01*
X-15814957Y24553748D01*
X-15951527Y24558593D01*
X-16100945Y24562217D01*
X-16215541Y24563155D01*
X-16304891Y24560824D01*
X-16378568Y24554638D01*
X-16446146Y24544014D01*
X-16517199Y24528367D01*
X-16540416Y24522658D01*
X-16644576Y24493501D01*
X-16758199Y24456592D01*
X-16870665Y24415949D01*
X-16971355Y24375591D01*
X-17049650Y24339538D01*
X-17092786Y24313616D01*
X-17150335Y24273953D01*
X-17222007Y24232929D01*
X-17251527Y24218396D01*
X-17285004Y24200038D01*
X-17344926Y24164555D01*
X-17420171Y24118572D01*
X-17445972Y24102534D01*
X-17535894Y24042135D01*
X-17587471Y23994230D01*
X-17602887Y23953074D01*
X-17780130Y23953074D01*
X-17783672Y23969535D01*
X-17761240Y24024325D01*
X-17758564Y24027119D01*
X-17740950Y24056643D01*
X-17761343Y24068928D01*
X-17816317Y24062817D01*
X-17843888Y24055899D01*
X-17910910Y24043945D01*
X-18003947Y24036041D01*
X-18112356Y24032089D01*
X-18225497Y24031989D01*
X-18332727Y24035641D01*
X-18423405Y24042946D01*
X-18486890Y24053804D01*
X-18507694Y24062114D01*
X-18560217Y24087205D01*
X-18626799Y24106283D01*
X-18629305Y24106760D01*
X-18757768Y24146592D01*
X-18896924Y24217291D01*
X-19033994Y24311982D01*
X-19076863Y24347559D01*
X-19161126Y24424030D01*
X-19200649Y24466790D01*
X-18945399Y24466790D01*
X-18944567Y24456115D01*
X-18913243Y24424005D01*
X-18885924Y24398936D01*
X-18803296Y24339680D01*
X-18692646Y24288912D01*
X-18613321Y24261846D01*
X-18528679Y24233755D01*
X-18461396Y24208235D01*
X-18422034Y24189424D01*
X-18416502Y24184751D01*
X-18386018Y24171641D01*
X-18321878Y24165152D01*
X-18234297Y24164784D01*
X-18133489Y24170037D01*
X-18029670Y24180411D01*
X-17933054Y24195405D01*
X-17862638Y24211869D01*
X-17762824Y24237490D01*
X-17658974Y24258757D01*
X-17584861Y24269681D01*
X-17481650Y24290246D01*
X-17387341Y24334118D01*
X-17321185Y24379153D01*
X-17329390Y24396772D01*
X-17364901Y24431585D01*
X-17418315Y24475730D01*
X-17480229Y24521344D01*
X-17530589Y24554234D01*
X-17597398Y24585658D01*
X-17689354Y24617459D01*
X-17787683Y24643228D01*
X-17797255Y24645250D01*
X-17893306Y24668126D01*
X-17983248Y24694839D01*
X-18049340Y24720049D01*
X-18055036Y24722827D01*
X-18136569Y24750178D01*
X-18257593Y24770472D01*
X-18352813Y24779300D01*
X-18569303Y24794517D01*
X-18530974Y24729892D01*
X-18489195Y24676687D01*
X-18429319Y24619098D01*
X-18404521Y24599217D01*
X-18343311Y24543325D01*
X-18322401Y24496648D01*
X-18322851Y24488106D01*
X-18328295Y24469066D01*
X-18343192Y24456302D01*
X-18375097Y24448567D01*
X-18431566Y24444614D01*
X-18520156Y24443197D01*
X-18595972Y24443044D01*
X-18705726Y24444488D01*
X-18803692Y24448410D01*
X-18878730Y24454199D01*
X-18918194Y24460729D01*
X-18945399Y24466790D01*
X-19200649Y24466790D01*
X-19213733Y24480945D01*
X-19239166Y24524624D01*
X-19241904Y24561385D01*
X-19237959Y24574768D01*
X-19220805Y24593601D01*
X-19181442Y24604500D01*
X-19111120Y24609173D01*
X-19058990Y24609711D01*
X-18961171Y24606320D01*
X-18866302Y24597448D01*
X-18797555Y24585569D01*
X-18727085Y24572118D01*
X-18667502Y24567841D01*
X-18654375Y24568903D01*
X-18634194Y24576023D01*
X-18633949Y24592516D01*
X-18657305Y24624796D01*
X-18707926Y24679276D01*
X-18730999Y24702974D01*
X-18799727Y24778198D01*
X-18837362Y24833136D01*
X-18848217Y24874363D01*
X-18847672Y24880752D01*
X-18840416Y24931933D01*
X-18462638Y24930166D01*
G37*
%TO.C,J2*%
X-19275000Y-23100000D02*
X-19275000Y-24350000D01*
X-19275000Y-24350000D02*
X-18025000Y-24350000D01*
X-18985000Y-13940000D02*
X-18985000Y-24060000D01*
X-18985000Y-24060000D02*
X-13015000Y-24060000D01*
X-18975000Y-13950000D02*
X-18975000Y-15750000D01*
X-18975000Y-15750000D02*
X-18225000Y-15750000D01*
X-18975000Y-17250000D02*
X-18975000Y-20750000D01*
X-18975000Y-20750000D02*
X-18225000Y-20750000D01*
X-18975000Y-22250000D02*
X-18975000Y-24050000D01*
X-18975000Y-24050000D02*
X-18225000Y-24050000D01*
X-18225000Y-13950000D02*
X-18975000Y-13950000D01*
X-18225000Y-15750000D02*
X-18225000Y-13950000D01*
X-18225000Y-17250000D02*
X-18975000Y-17250000D01*
X-18225000Y-20750000D02*
X-18225000Y-17250000D01*
X-18225000Y-22250000D02*
X-18975000Y-22250000D01*
X-18225000Y-24050000D02*
X-18225000Y-22250000D01*
X-16725000Y-13950000D02*
X-16725000Y-14700000D01*
X-16725000Y-14700000D02*
X-13775000Y-14700000D01*
X-16725000Y-23300000D02*
X-15385000Y-23300000D01*
X-16725000Y-24050000D02*
X-16725000Y-23300000D01*
X-13775000Y-14700000D02*
X-13775000Y-19000000D01*
X-13775000Y-19000000D02*
X-13775000Y-22240000D01*
X-13015000Y-13940000D02*
X-18985000Y-13940000D01*
X-13015000Y-24060000D02*
X-13015000Y-13940000D01*
%TD*%
M02*
