%TF.GenerationSoftware,KiCad,Pcbnew,7.0.9*%
%TF.CreationDate,2024-01-10T08:51:34-08:00*%
%TF.ProjectId,rpi_adapter,7270695f-6164-4617-9074-65722e6b6963,rev?*%
%TF.SameCoordinates,PX82a7440PY660b0c0*%
%TF.FileFunction,Legend,Bot*%
%TF.FilePolarity,Positive*%
%FSLAX46Y46*%
G04 Gerber Fmt 4.6, Leading zero omitted, Abs format (unit mm)*
G04 Created by KiCad (PCBNEW 7.0.9) date 2024-01-10 08:51:34*
%MOMM*%
%LPD*%
G01*
G04 APERTURE LIST*
%ADD10C,0.150000*%
%ADD11C,0.120000*%
G04 APERTURE END LIST*
D10*
X-13255906Y21470848D02*
X-13255906Y20804181D01*
X-13255906Y21375610D02*
X-13303525Y21423229D01*
X-13303525Y21423229D02*
X-13398763Y21470848D01*
X-13398763Y21470848D02*
X-13541620Y21470848D01*
X-13541620Y21470848D02*
X-13636858Y21423229D01*
X-13636858Y21423229D02*
X-13684477Y21327991D01*
X-13684477Y21327991D02*
X-13684477Y20804181D01*
X-14351144Y21804181D02*
X-14446382Y21804181D01*
X-14446382Y21804181D02*
X-14541620Y21756562D01*
X-14541620Y21756562D02*
X-14589239Y21708943D01*
X-14589239Y21708943D02*
X-14636858Y21613705D01*
X-14636858Y21613705D02*
X-14684477Y21423229D01*
X-14684477Y21423229D02*
X-14684477Y21185134D01*
X-14684477Y21185134D02*
X-14636858Y20994658D01*
X-14636858Y20994658D02*
X-14589239Y20899420D01*
X-14589239Y20899420D02*
X-14541620Y20851800D01*
X-14541620Y20851800D02*
X-14446382Y20804181D01*
X-14446382Y20804181D02*
X-14351144Y20804181D01*
X-14351144Y20804181D02*
X-14255906Y20851800D01*
X-14255906Y20851800D02*
X-14208287Y20899420D01*
X-14208287Y20899420D02*
X-14160668Y20994658D01*
X-14160668Y20994658D02*
X-14113049Y21185134D01*
X-14113049Y21185134D02*
X-14113049Y21423229D01*
X-14113049Y21423229D02*
X-14160668Y21613705D01*
X-14160668Y21613705D02*
X-14208287Y21708943D01*
X-14208287Y21708943D02*
X-14255906Y21756562D01*
X-14255906Y21756562D02*
X-14351144Y21804181D01*
X-15113049Y20804181D02*
X-15113049Y21470848D01*
X-15113049Y21375610D02*
X-15160668Y21423229D01*
X-15160668Y21423229D02*
X-15255906Y21470848D01*
X-15255906Y21470848D02*
X-15398763Y21470848D01*
X-15398763Y21470848D02*
X-15494001Y21423229D01*
X-15494001Y21423229D02*
X-15541620Y21327991D01*
X-15541620Y21327991D02*
X-15541620Y20804181D01*
X-15541620Y21327991D02*
X-15589239Y21423229D01*
X-15589239Y21423229D02*
X-15684477Y21470848D01*
X-15684477Y21470848D02*
X-15827334Y21470848D01*
X-15827334Y21470848D02*
X-15922573Y21423229D01*
X-15922573Y21423229D02*
X-15970192Y21327991D01*
X-15970192Y21327991D02*
X-15970192Y20804181D01*
X-16970191Y20804181D02*
X-16398763Y20804181D01*
X-16684477Y20804181D02*
X-16684477Y21804181D01*
X-16684477Y21804181D02*
X-16589239Y21661324D01*
X-16589239Y21661324D02*
X-16494001Y21566086D01*
X-16494001Y21566086D02*
X-16398763Y21518467D01*
X-17351144Y20851800D02*
X-17446382Y20804181D01*
X-17446382Y20804181D02*
X-17636858Y20804181D01*
X-17636858Y20804181D02*
X-17732096Y20851800D01*
X-17732096Y20851800D02*
X-17779715Y20947039D01*
X-17779715Y20947039D02*
X-17779715Y20994658D01*
X-17779715Y20994658D02*
X-17732096Y21089896D01*
X-17732096Y21089896D02*
X-17636858Y21137515D01*
X-17636858Y21137515D02*
X-17494001Y21137515D01*
X-17494001Y21137515D02*
X-17398763Y21185134D01*
X-17398763Y21185134D02*
X-17351144Y21280372D01*
X-17351144Y21280372D02*
X-17351144Y21327991D01*
X-17351144Y21327991D02*
X-17398763Y21423229D01*
X-17398763Y21423229D02*
X-17494001Y21470848D01*
X-17494001Y21470848D02*
X-17636858Y21470848D01*
X-17636858Y21470848D02*
X-17732096Y21423229D01*
X-13287317Y-18650390D02*
X-13220650Y-18612295D01*
X-13220650Y-18612295D02*
X-13120650Y-18612295D01*
X-13120650Y-18612295D02*
X-13020650Y-18650390D01*
X-13020650Y-18650390D02*
X-12953983Y-18726580D01*
X-12953983Y-18726580D02*
X-12920650Y-18802771D01*
X-12920650Y-18802771D02*
X-12887317Y-18955152D01*
X-12887317Y-18955152D02*
X-12887317Y-19069438D01*
X-12887317Y-19069438D02*
X-12920650Y-19221819D01*
X-12920650Y-19221819D02*
X-12953983Y-19298009D01*
X-12953983Y-19298009D02*
X-13020650Y-19374200D01*
X-13020650Y-19374200D02*
X-13120650Y-19412295D01*
X-13120650Y-19412295D02*
X-13187317Y-19412295D01*
X-13187317Y-19412295D02*
X-13287317Y-19374200D01*
X-13287317Y-19374200D02*
X-13320650Y-19336104D01*
X-13320650Y-19336104D02*
X-13320650Y-19069438D01*
X-13320650Y-19069438D02*
X-13187317Y-19069438D01*
X-13620650Y-19412295D02*
X-13620650Y-18612295D01*
X-13620650Y-18612295D02*
X-14020650Y-19412295D01*
X-14020650Y-19412295D02*
X-14020650Y-18612295D01*
X-14353983Y-19412295D02*
X-14353983Y-18612295D01*
X-14353983Y-18612295D02*
X-14520650Y-18612295D01*
X-14520650Y-18612295D02*
X-14620650Y-18650390D01*
X-14620650Y-18650390D02*
X-14687316Y-18726580D01*
X-14687316Y-18726580D02*
X-14720650Y-18802771D01*
X-14720650Y-18802771D02*
X-14753983Y-18955152D01*
X-14753983Y-18955152D02*
X-14753983Y-19069438D01*
X-14753983Y-19069438D02*
X-14720650Y-19221819D01*
X-14720650Y-19221819D02*
X-14687316Y-19298009D01*
X-14687316Y-19298009D02*
X-14620650Y-19374200D01*
X-14620650Y-19374200D02*
X-14520650Y-19412295D01*
X-14520650Y-19412295D02*
X-14353983Y-19412295D01*
X-10887316Y-21914200D02*
X-10987316Y-21952295D01*
X-10987316Y-21952295D02*
X-11153982Y-21952295D01*
X-11153982Y-21952295D02*
X-11220649Y-21914200D01*
X-11220649Y-21914200D02*
X-11253982Y-21876104D01*
X-11253982Y-21876104D02*
X-11287316Y-21799914D01*
X-11287316Y-21799914D02*
X-11287316Y-21723723D01*
X-11287316Y-21723723D02*
X-11253982Y-21647533D01*
X-11253982Y-21647533D02*
X-11220649Y-21609438D01*
X-11220649Y-21609438D02*
X-11153982Y-21571342D01*
X-11153982Y-21571342D02*
X-11020649Y-21533247D01*
X-11020649Y-21533247D02*
X-10953982Y-21495152D01*
X-10953982Y-21495152D02*
X-10920649Y-21457057D01*
X-10920649Y-21457057D02*
X-10887316Y-21380866D01*
X-10887316Y-21380866D02*
X-10887316Y-21304676D01*
X-10887316Y-21304676D02*
X-10920649Y-21228485D01*
X-10920649Y-21228485D02*
X-10953982Y-21190390D01*
X-10953982Y-21190390D02*
X-11020649Y-21152295D01*
X-11020649Y-21152295D02*
X-11187316Y-21152295D01*
X-11187316Y-21152295D02*
X-11287316Y-21190390D01*
X-11520649Y-21152295D02*
X-11687316Y-21952295D01*
X-11687316Y-21952295D02*
X-11820649Y-21380866D01*
X-11820649Y-21380866D02*
X-11953983Y-21952295D01*
X-11953983Y-21952295D02*
X-12120649Y-21152295D01*
X-12387316Y-21952295D02*
X-12387316Y-21152295D01*
X-12387316Y-21152295D02*
X-12553983Y-21152295D01*
X-12553983Y-21152295D02*
X-12653983Y-21190390D01*
X-12653983Y-21190390D02*
X-12720649Y-21266580D01*
X-12720649Y-21266580D02*
X-12753983Y-21342771D01*
X-12753983Y-21342771D02*
X-12787316Y-21495152D01*
X-12787316Y-21495152D02*
X-12787316Y-21609438D01*
X-12787316Y-21609438D02*
X-12753983Y-21761819D01*
X-12753983Y-21761819D02*
X-12720649Y-21838009D01*
X-12720649Y-21838009D02*
X-12653983Y-21914200D01*
X-12653983Y-21914200D02*
X-12553983Y-21952295D01*
X-12553983Y-21952295D02*
X-12387316Y-21952295D01*
X-13487316Y-21876104D02*
X-13453983Y-21914200D01*
X-13453983Y-21914200D02*
X-13353983Y-21952295D01*
X-13353983Y-21952295D02*
X-13287316Y-21952295D01*
X-13287316Y-21952295D02*
X-13187316Y-21914200D01*
X-13187316Y-21914200D02*
X-13120649Y-21838009D01*
X-13120649Y-21838009D02*
X-13087316Y-21761819D01*
X-13087316Y-21761819D02*
X-13053983Y-21609438D01*
X-13053983Y-21609438D02*
X-13053983Y-21495152D01*
X-13053983Y-21495152D02*
X-13087316Y-21342771D01*
X-13087316Y-21342771D02*
X-13120649Y-21266580D01*
X-13120649Y-21266580D02*
X-13187316Y-21190390D01*
X-13187316Y-21190390D02*
X-13287316Y-21152295D01*
X-13287316Y-21152295D02*
X-13353983Y-21152295D01*
X-13353983Y-21152295D02*
X-13453983Y-21190390D01*
X-13453983Y-21190390D02*
X-13487316Y-21228485D01*
X-14120649Y-21952295D02*
X-13787316Y-21952295D01*
X-13787316Y-21952295D02*
X-13787316Y-21152295D01*
X-14353983Y-21952295D02*
X-14353983Y-21152295D01*
X-14753983Y-21952295D02*
X-14453983Y-21495152D01*
X-14753983Y-21152295D02*
X-14353983Y-21609438D01*
X-11787317Y-16834200D02*
X-11887317Y-16872295D01*
X-11887317Y-16872295D02*
X-12053983Y-16872295D01*
X-12053983Y-16872295D02*
X-12120650Y-16834200D01*
X-12120650Y-16834200D02*
X-12153983Y-16796104D01*
X-12153983Y-16796104D02*
X-12187317Y-16719914D01*
X-12187317Y-16719914D02*
X-12187317Y-16643723D01*
X-12187317Y-16643723D02*
X-12153983Y-16567533D01*
X-12153983Y-16567533D02*
X-12120650Y-16529438D01*
X-12120650Y-16529438D02*
X-12053983Y-16491342D01*
X-12053983Y-16491342D02*
X-11920650Y-16453247D01*
X-11920650Y-16453247D02*
X-11853983Y-16415152D01*
X-11853983Y-16415152D02*
X-11820650Y-16377057D01*
X-11820650Y-16377057D02*
X-11787317Y-16300866D01*
X-11787317Y-16300866D02*
X-11787317Y-16224676D01*
X-11787317Y-16224676D02*
X-11820650Y-16148485D01*
X-11820650Y-16148485D02*
X-11853983Y-16110390D01*
X-11853983Y-16110390D02*
X-11920650Y-16072295D01*
X-11920650Y-16072295D02*
X-12087317Y-16072295D01*
X-12087317Y-16072295D02*
X-12187317Y-16110390D01*
X-12420650Y-16072295D02*
X-12587317Y-16872295D01*
X-12587317Y-16872295D02*
X-12720650Y-16300866D01*
X-12720650Y-16300866D02*
X-12853984Y-16872295D01*
X-12853984Y-16872295D02*
X-13020650Y-16072295D01*
X-13287317Y-16872295D02*
X-13287317Y-16072295D01*
X-13287317Y-16072295D02*
X-13453984Y-16072295D01*
X-13453984Y-16072295D02*
X-13553984Y-16110390D01*
X-13553984Y-16110390D02*
X-13620650Y-16186580D01*
X-13620650Y-16186580D02*
X-13653984Y-16262771D01*
X-13653984Y-16262771D02*
X-13687317Y-16415152D01*
X-13687317Y-16415152D02*
X-13687317Y-16529438D01*
X-13687317Y-16529438D02*
X-13653984Y-16681819D01*
X-13653984Y-16681819D02*
X-13620650Y-16758009D01*
X-13620650Y-16758009D02*
X-13553984Y-16834200D01*
X-13553984Y-16834200D02*
X-13453984Y-16872295D01*
X-13453984Y-16872295D02*
X-13287317Y-16872295D01*
X-13987317Y-16872295D02*
X-13987317Y-16072295D01*
X-14453983Y-16072295D02*
X-14587317Y-16072295D01*
X-14587317Y-16072295D02*
X-14653983Y-16110390D01*
X-14653983Y-16110390D02*
X-14720650Y-16186580D01*
X-14720650Y-16186580D02*
X-14753983Y-16338961D01*
X-14753983Y-16338961D02*
X-14753983Y-16605628D01*
X-14753983Y-16605628D02*
X-14720650Y-16758009D01*
X-14720650Y-16758009D02*
X-14653983Y-16834200D01*
X-14653983Y-16834200D02*
X-14587317Y-16872295D01*
X-14587317Y-16872295D02*
X-14453983Y-16872295D01*
X-14453983Y-16872295D02*
X-14387317Y-16834200D01*
X-14387317Y-16834200D02*
X-14320650Y-16758009D01*
X-14320650Y-16758009D02*
X-14287317Y-16605628D01*
X-14287317Y-16605628D02*
X-14287317Y-16338961D01*
X-14287317Y-16338961D02*
X-14320650Y-16186580D01*
X-14320650Y-16186580D02*
X-14387317Y-16110390D01*
X-14387317Y-16110390D02*
X-14453983Y-16072295D01*
D11*
%TO.C,J1*%
X19330000Y-25460000D02*
X14130000Y-25460000D01*
X19330000Y24130000D02*
X19330000Y-25460000D01*
X19330000Y24130000D02*
X19330000Y25460000D01*
X19330000Y25460000D02*
X18000000Y25460000D01*
X18000000Y25460000D02*
X14130000Y25460000D01*
X14130000Y25460000D02*
X14130000Y-25460000D01*
%TO.C,G\u002A\u002A\u002A*%
G36*
X-15811731Y23999669D02*
G01*
X-15785757Y23982264D01*
X-15780251Y23935044D01*
X-15782293Y23899858D01*
X-15799697Y23873884D01*
X-15846917Y23868378D01*
X-15882104Y23870420D01*
X-15908077Y23887825D01*
X-15913584Y23935044D01*
X-15911541Y23970231D01*
X-15894137Y23996205D01*
X-15846917Y24001711D01*
X-15811731Y23999669D01*
G37*
G36*
X-15279338Y24155269D02*
G01*
X-15252698Y24138677D01*
X-15246917Y24094304D01*
X-15251113Y24047433D01*
X-15262669Y24015589D01*
X-15279624Y24007816D01*
X-15323780Y24006329D01*
X-15328928Y24007231D01*
X-15361783Y24029678D01*
X-15376103Y24085044D01*
X-15377531Y24131915D01*
X-15361235Y24153229D01*
X-15314992Y24157267D01*
X-15279338Y24155269D01*
G37*
G36*
X-15189574Y23804183D02*
G01*
X-15165108Y23786457D01*
X-15158028Y23757356D01*
X-15158675Y23747268D01*
X-15173188Y23713662D01*
X-15210099Y23683907D01*
X-15273777Y23656415D01*
X-15368595Y23629598D01*
X-15498925Y23601865D01*
X-15669139Y23571629D01*
X-15690162Y23569056D01*
X-15758036Y23565420D01*
X-15835806Y23565362D01*
X-15876051Y23566904D01*
X-15922961Y23573565D01*
X-15942813Y23590039D01*
X-15946917Y23622102D01*
X-15946364Y23634576D01*
X-15940158Y23652646D01*
X-15921896Y23668082D01*
X-15885287Y23683223D01*
X-15824041Y23700412D01*
X-15731866Y23721989D01*
X-15602473Y23750296D01*
X-15558050Y23759809D01*
X-15415663Y23788348D01*
X-15310013Y23805206D01*
X-15236263Y23810459D01*
X-15189574Y23804183D01*
G37*
G36*
X-12292874Y24616030D02*
G01*
X-12377137Y24539559D01*
X-12420006Y24503982D01*
X-12557076Y24409291D01*
X-12696232Y24338592D01*
X-12824695Y24298760D01*
X-12827201Y24298283D01*
X-12893783Y24279205D01*
X-12946306Y24254114D01*
X-12967110Y24245804D01*
X-13030595Y24234946D01*
X-13121273Y24227641D01*
X-13228503Y24223989D01*
X-13341644Y24224089D01*
X-13450053Y24228041D01*
X-13543090Y24235945D01*
X-13610112Y24247899D01*
X-13637683Y24254817D01*
X-13692657Y24260928D01*
X-13713050Y24248643D01*
X-13695436Y24219119D01*
X-13692760Y24216325D01*
X-13670328Y24161535D01*
X-13673870Y24145074D01*
X-13685195Y24092445D01*
X-13735967Y24016035D01*
X-13756395Y23992589D01*
X-13779198Y23961152D01*
X-13779371Y23939898D01*
X-13751641Y23924299D01*
X-13690729Y23909830D01*
X-13591362Y23891963D01*
X-13495981Y23874257D01*
X-13376220Y23850148D01*
X-13248972Y23823039D01*
X-13122751Y23794877D01*
X-13006069Y23767608D01*
X-12907437Y23743180D01*
X-12835369Y23723539D01*
X-12798378Y23710631D01*
X-12770901Y23685412D01*
X-12760849Y23626681D01*
X-12786744Y23542314D01*
X-12848543Y23432549D01*
X-12858534Y23416913D01*
X-12922701Y23294587D01*
X-12954373Y23186555D01*
X-12958565Y23159014D01*
X-12971155Y23107287D01*
X-12990802Y23084552D01*
X-13024970Y23079489D01*
X-13054615Y23082328D01*
X-13072700Y23098145D01*
X-13081847Y23137429D01*
X-13087016Y23210663D01*
X-13088404Y23245369D01*
X-13084843Y23318569D01*
X-13065962Y23379447D01*
X-13025905Y23451029D01*
X-12997018Y23498955D01*
X-12968912Y23549699D01*
X-12958052Y23575410D01*
X-12966814Y23582085D01*
X-13001440Y23593807D01*
X-13065137Y23610307D01*
X-13160830Y23632253D01*
X-13291445Y23660310D01*
X-13459906Y23695146D01*
X-13669139Y23737427D01*
X-13742653Y23752814D01*
X-13834588Y23774016D01*
X-13905135Y23792606D01*
X-13943144Y23805803D01*
X-13976334Y23812977D01*
X-14029281Y23801045D01*
X-14109022Y23766147D01*
X-14167425Y23735575D01*
X-14206032Y23711070D01*
X-14212795Y23699795D01*
X-14198536Y23696894D01*
X-14146624Y23687111D01*
X-14068095Y23672698D01*
X-13973488Y23655601D01*
X-13965484Y23654154D01*
X-13846231Y23628993D01*
X-13770513Y23604807D01*
X-13737484Y23581328D01*
X-13734667Y23573581D01*
X-13726614Y23525678D01*
X-13719496Y23448240D01*
X-13713570Y23350502D01*
X-13709091Y23241699D01*
X-13706316Y23131066D01*
X-13705499Y23027838D01*
X-13706898Y22941250D01*
X-13710767Y22880536D01*
X-13717363Y22854931D01*
X-13742824Y22849790D01*
X-13791999Y22855441D01*
X-13800071Y22857540D01*
X-13819162Y22865463D01*
X-13832250Y22881612D01*
X-13840699Y22913230D01*
X-13845873Y22967559D01*
X-13849134Y23051841D01*
X-13851847Y23173318D01*
X-13858028Y23477726D01*
X-13991362Y23504549D01*
X-14058311Y23516726D01*
X-14169970Y23533747D01*
X-14274783Y23546584D01*
X-14351869Y23556833D01*
X-14410101Y23569145D01*
X-14436633Y23580827D01*
X-14451998Y23582294D01*
X-14503329Y23571258D01*
X-14583718Y23547666D01*
X-14686273Y23513814D01*
X-14804105Y23471999D01*
X-14930320Y23424520D01*
X-15058028Y23373672D01*
X-15164762Y23332237D01*
X-15502572Y23228712D01*
X-15848332Y23161872D01*
X-15944807Y23147280D01*
X-16034089Y23130181D01*
X-16092589Y23114370D01*
X-16113584Y23101381D01*
X-16118850Y23087908D01*
X-16152534Y23048319D01*
X-16209626Y22995539D01*
X-16281061Y22936592D01*
X-16357774Y22878500D01*
X-16430701Y22828287D01*
X-16490778Y22792974D01*
X-16528939Y22779584D01*
X-16533488Y22779455D01*
X-16556545Y22771079D01*
X-16563755Y22745592D01*
X-16554095Y22697341D01*
X-16526539Y22620676D01*
X-16480064Y22509945D01*
X-16468896Y22484104D01*
X-16422795Y22373058D01*
X-16394717Y22294349D01*
X-16383173Y22241734D01*
X-16386675Y22208971D01*
X-16403736Y22189819D01*
X-16410796Y22186288D01*
X-16460433Y22184181D01*
X-16512101Y22204993D01*
X-16542779Y22240357D01*
X-16547575Y22254136D01*
X-16567774Y22307189D01*
X-16598197Y22384158D01*
X-16634323Y22473529D01*
X-16650377Y22514419D01*
X-16682749Y22608124D01*
X-16705189Y22689352D01*
X-16713584Y22744061D01*
X-16713557Y22752082D01*
X-16711300Y22784892D01*
X-16701336Y22813233D01*
X-16677979Y22843172D01*
X-16635541Y22880778D01*
X-16568338Y22932119D01*
X-16470681Y23003262D01*
X-16419270Y23041765D01*
X-16388333Y23070774D01*
X-16388758Y23085897D01*
X-16423594Y23088402D01*
X-16495892Y23079557D01*
X-16608701Y23060629D01*
X-16644630Y23054022D01*
X-16709229Y23038727D01*
X-16737058Y23024249D01*
X-16735752Y23018356D01*
X-16733528Y23008322D01*
X-16718130Y22973073D01*
X-16732223Y22929113D01*
X-16774191Y22898186D01*
X-16781074Y22895792D01*
X-16854175Y22869468D01*
X-16943358Y22836272D01*
X-17034155Y22801707D01*
X-17112098Y22771272D01*
X-17162720Y22750468D01*
X-17222968Y22723933D01*
X-17120524Y22601711D01*
X-17075019Y22542681D01*
X-17013608Y22448252D01*
X-16962136Y22352740D01*
X-16926746Y22267908D01*
X-16913584Y22205522D01*
X-16916667Y22184210D01*
X-16940528Y22139211D01*
X-16952183Y22128906D01*
X-16978805Y22120066D01*
X-17007523Y22137750D01*
X-17043717Y22186628D01*
X-17092765Y22271370D01*
X-17094675Y22274824D01*
X-17151262Y22366548D01*
X-17222575Y22468395D01*
X-17293654Y22558951D01*
X-17340852Y22613914D01*
X-17385284Y22661096D01*
X-17416105Y22683367D01*
X-17441593Y22686174D01*
X-17470028Y22674960D01*
X-17553714Y22635066D01*
X-17636770Y22602496D01*
X-17721327Y22579315D01*
X-17818121Y22563249D01*
X-17937887Y22552023D01*
X-18091362Y22543365D01*
X-18205242Y22540619D01*
X-18361720Y22547715D01*
X-18484850Y22568349D01*
X-18571451Y22601893D01*
X-18618343Y22647716D01*
X-18627307Y22667823D01*
X-18630203Y22699051D01*
X-18610804Y22733658D01*
X-18563833Y22784924D01*
X-18532095Y22815761D01*
X-18486693Y22853760D01*
X-18459074Y22868762D01*
X-18446657Y22872362D01*
X-18411585Y22897367D01*
X-18374474Y22934970D01*
X-18347634Y22971794D01*
X-18343375Y22994465D01*
X-18353841Y22998141D01*
X-18385269Y22984966D01*
X-18388085Y22982830D01*
X-18431276Y22960635D01*
X-18491362Y22939148D01*
X-18566476Y22914940D01*
X-18643157Y22886843D01*
X-18692142Y22870144D01*
X-18722956Y22873232D01*
X-18748713Y22900409D01*
X-18775904Y22951555D01*
X-18770751Y22999190D01*
X-18730251Y23056455D01*
X-18699528Y23092833D01*
X-18664825Y23135594D01*
X-18480251Y23135594D01*
X-18369139Y23151986D01*
X-18303179Y23159294D01*
X-18202317Y23165851D01*
X-18102473Y23168378D01*
X-18088414Y23168362D01*
X-18011877Y23166692D01*
X-17968335Y23160223D01*
X-17947777Y23146048D01*
X-17940194Y23121262D01*
X-17939612Y23115595D01*
X-17954064Y23072432D01*
X-18006861Y23030409D01*
X-18020228Y23021865D01*
X-18078373Y22978861D01*
X-18151983Y22918782D01*
X-18228375Y22851849D01*
X-18278253Y22805969D01*
X-18327045Y22757992D01*
X-18348958Y22729020D01*
X-18348049Y22713059D01*
X-18328375Y22704116D01*
X-18302272Y22699579D01*
X-18229029Y22694823D01*
X-18133099Y22694055D01*
X-18028254Y22697019D01*
X-17928269Y22703456D01*
X-17846917Y22713110D01*
X-17838094Y22714610D01*
X-17647609Y22765723D01*
X-17473955Y22847513D01*
X-17328554Y22954657D01*
X-17307568Y22974092D01*
X-17091384Y22974092D01*
X-17064002Y22975304D01*
X-17013584Y22992750D01*
X-16987591Y23004827D01*
X-16970098Y23018356D01*
X-16991362Y23022591D01*
X-17018616Y23020021D01*
X-17068496Y23002579D01*
X-17088214Y22987770D01*
X-17091384Y22974092D01*
X-17307568Y22974092D01*
X-17265746Y23012822D01*
X-17339665Y23023933D01*
X-17372921Y23030562D01*
X-17405544Y23050540D01*
X-17413584Y23090600D01*
X-17412223Y23113935D01*
X-17399819Y23136115D01*
X-17365131Y23147119D01*
X-17297081Y23152867D01*
X-17237350Y23158685D01*
X-17185164Y23174438D01*
X-17157410Y23202867D01*
X-17131163Y23230567D01*
X-17083534Y23245950D01*
X-17037150Y23237872D01*
X-17010022Y23205956D01*
X-17003731Y23190473D01*
X-16982871Y23175927D01*
X-16939216Y23171293D01*
X-16862102Y23174287D01*
X-16799369Y23179596D01*
X-16717023Y23190431D01*
X-16658028Y23202711D01*
X-16630748Y23208919D01*
X-16560830Y23221180D01*
X-16462050Y23236362D01*
X-16343328Y23253111D01*
X-16213584Y23270076D01*
X-16141031Y23279673D01*
X-15994643Y23301515D01*
X-15852841Y23325559D01*
X-15728828Y23349500D01*
X-15635806Y23371029D01*
X-15612175Y23377351D01*
X-15495619Y23408597D01*
X-15377395Y23440373D01*
X-15279808Y23466686D01*
X-15196190Y23491563D01*
X-15090182Y23527822D01*
X-15001854Y23562795D01*
X-14928761Y23593132D01*
X-14824678Y23632700D01*
X-14724519Y23667606D01*
X-14662615Y23690201D01*
X-14559013Y23733338D01*
X-14438441Y23787598D01*
X-14310557Y23848265D01*
X-14185025Y23910625D01*
X-14071504Y23969961D01*
X-13979655Y24021559D01*
X-13919139Y24060703D01*
X-13869676Y24104923D01*
X-13851113Y24145074D01*
X-13866529Y24186230D01*
X-13918106Y24234135D01*
X-14008028Y24294534D01*
X-14033829Y24310572D01*
X-14109074Y24356555D01*
X-14168996Y24392038D01*
X-14202473Y24410396D01*
X-14231993Y24424929D01*
X-14303665Y24465953D01*
X-14361214Y24505616D01*
X-14404350Y24531538D01*
X-14482645Y24567591D01*
X-14491532Y24571153D01*
X-14132815Y24571153D01*
X-14066659Y24526118D01*
X-13972350Y24482246D01*
X-13869139Y24461681D01*
X-13795026Y24450757D01*
X-13691176Y24429490D01*
X-13591362Y24403869D01*
X-13520946Y24387405D01*
X-13424330Y24372411D01*
X-13320511Y24362037D01*
X-13219703Y24356784D01*
X-13132122Y24357152D01*
X-13067982Y24363641D01*
X-13037498Y24376751D01*
X-13031966Y24381424D01*
X-12992604Y24400235D01*
X-12925321Y24425755D01*
X-12840679Y24453846D01*
X-12761354Y24480912D01*
X-12650704Y24531680D01*
X-12568076Y24590936D01*
X-12540757Y24616005D01*
X-12509433Y24648115D01*
X-12508601Y24658790D01*
X-12535806Y24652729D01*
X-12575270Y24646199D01*
X-12650308Y24640410D01*
X-12748274Y24636488D01*
X-12858028Y24635044D01*
X-12933844Y24635197D01*
X-13022434Y24636614D01*
X-13078903Y24640567D01*
X-13110808Y24648302D01*
X-13125705Y24661066D01*
X-13131149Y24680106D01*
X-13131599Y24688648D01*
X-13110689Y24735325D01*
X-13049479Y24791217D01*
X-13024681Y24811098D01*
X-12964805Y24868687D01*
X-12923026Y24921892D01*
X-12884697Y24986517D01*
X-13101187Y24971300D01*
X-13196407Y24962472D01*
X-13317431Y24942178D01*
X-13398964Y24914827D01*
X-13404660Y24912049D01*
X-13470752Y24886839D01*
X-13560694Y24860126D01*
X-13656745Y24837250D01*
X-13666317Y24835228D01*
X-13764646Y24809459D01*
X-13856602Y24777658D01*
X-13923411Y24746234D01*
X-13973771Y24713344D01*
X-14035685Y24667730D01*
X-14089099Y24623585D01*
X-14124610Y24588772D01*
X-14132815Y24571153D01*
X-14491532Y24571153D01*
X-14583335Y24607949D01*
X-14695801Y24648592D01*
X-14809424Y24685501D01*
X-14913584Y24714658D01*
X-14936801Y24720367D01*
X-15007854Y24736014D01*
X-15075432Y24746638D01*
X-15149109Y24752824D01*
X-15238459Y24755155D01*
X-15353055Y24754217D01*
X-15502473Y24750593D01*
X-15639043Y24745748D01*
X-15800865Y24735778D01*
X-15931485Y24721074D01*
X-16038634Y24700391D01*
X-16130043Y24672485D01*
X-16213444Y24636110D01*
X-16217815Y24633970D01*
X-16275445Y24609186D01*
X-16357216Y24577564D01*
X-16446917Y24545405D01*
X-16527751Y24516935D01*
X-16657599Y24466148D01*
X-16755387Y24418291D01*
X-16828581Y24368750D01*
X-16884647Y24312910D01*
X-16931053Y24246156D01*
X-16964723Y24186024D01*
X-16998236Y24116853D01*
X-17015729Y24068378D01*
X-17027021Y24026972D01*
X-17048259Y23974235D01*
X-17053684Y23960678D01*
X-17064740Y23904027D01*
X-17069139Y23833149D01*
X-17069859Y23810001D01*
X-17080949Y23728015D01*
X-17101183Y23660625D01*
X-17125730Y23595156D01*
X-17140072Y23535044D01*
X-17143164Y23521309D01*
X-17175023Y23481765D01*
X-17225194Y23468084D01*
X-17275918Y23486597D01*
X-17303912Y23495669D01*
X-17367844Y23506167D01*
X-17457071Y23516106D01*
X-17561668Y23524181D01*
X-17582703Y23525426D01*
X-17753481Y23529997D01*
X-17892850Y23519805D01*
X-18011351Y23491314D01*
X-18119525Y23440988D01*
X-18227912Y23365290D01*
X-18347054Y23260684D01*
X-18480251Y23135594D01*
X-18664825Y23135594D01*
X-18646909Y23157670D01*
X-18591362Y23228152D01*
X-18565908Y23260457D01*
X-18455266Y23386184D01*
X-18347671Y23481265D01*
X-18233119Y23554821D01*
X-18162907Y23590868D01*
X-18074948Y23627265D01*
X-17985843Y23650806D01*
X-17884851Y23663336D01*
X-17761234Y23666695D01*
X-17604251Y23662728D01*
X-17297482Y23650583D01*
X-17261088Y23726901D01*
X-17252033Y23749330D01*
X-17232487Y23828693D01*
X-17224695Y23912265D01*
X-17223418Y23949407D01*
X-17215405Y24006547D01*
X-17202473Y24035044D01*
X-17189250Y24052619D01*
X-17179749Y24097467D01*
X-17172672Y24130210D01*
X-17141594Y24198738D01*
X-17091255Y24283795D01*
X-17027660Y24375508D01*
X-16956813Y24464005D01*
X-16936428Y24486276D01*
X-16884293Y24532430D01*
X-16818955Y24574424D01*
X-16732954Y24616074D01*
X-16618835Y24661197D01*
X-16469139Y24713611D01*
X-16449888Y24720123D01*
X-16341366Y24757352D01*
X-16233446Y24795088D01*
X-16146917Y24826074D01*
X-16099979Y24841849D01*
X-16049428Y24854657D01*
X-15990428Y24864320D01*
X-15915778Y24871523D01*
X-15818281Y24876952D01*
X-15690739Y24881293D01*
X-15525951Y24885230D01*
X-15509043Y24885589D01*
X-15335633Y24888628D01*
X-15196676Y24888845D01*
X-15083005Y24885107D01*
X-14985450Y24876278D01*
X-14894842Y24861226D01*
X-14802013Y24838816D01*
X-14697792Y24807915D01*
X-14573010Y24767388D01*
X-14453631Y24731654D01*
X-14350556Y24712639D01*
X-14269281Y24715670D01*
X-14200724Y24741211D01*
X-14135806Y24789725D01*
X-14039631Y24862025D01*
X-13881340Y24941943D01*
X-13691149Y25003086D01*
X-13666308Y25009427D01*
X-13572168Y25036077D01*
X-13490656Y25062881D01*
X-13437140Y25084889D01*
X-13427174Y25089662D01*
X-13387646Y25102260D01*
X-13331170Y25111235D01*
X-13250877Y25117162D01*
X-13139897Y25120614D01*
X-12991362Y25122166D01*
X-12613584Y25123933D01*
X-12606328Y25072752D01*
X-12605783Y25066363D01*
X-12616638Y25025136D01*
X-12654273Y24970198D01*
X-12723001Y24894974D01*
X-12746074Y24871276D01*
X-12796695Y24816796D01*
X-12820051Y24784516D01*
X-12819806Y24768023D01*
X-12799625Y24760903D01*
X-12786498Y24759841D01*
X-12726915Y24764118D01*
X-12656445Y24777569D01*
X-12587698Y24789448D01*
X-12492829Y24798320D01*
X-12395010Y24801711D01*
X-12342880Y24801173D01*
X-12272558Y24796500D01*
X-12233195Y24785601D01*
X-12216041Y24766768D01*
X-12212096Y24753385D01*
X-12214834Y24716624D01*
X-12240267Y24672945D01*
X-12253351Y24658790D01*
X-12292874Y24616030D01*
G37*
%TD*%
M02*
